<svg id="Слой_1" data-name="Слой 1" xmlns="http://www.w3.org/2000/svg" viewBox="0 0 1039 366">
  <defs>
    <style>
      .cls-1 {
        fill: #eebf3e;
      }

      .cls-2 {
        fill-rule: evenodd;
      }
    </style>
  </defs>
  <title>Безымянный-1</title>
  <path class="cls-1" d="M966.92,366H76.08c-28.16,0-46.15-5.41-58.35-17.54S0,318.22,0,290V72.8C0,44.68,5.58,27,18.08,15.59,30,4.66,47.37,0,76.08,0H966.92c28.51,0,45.38,4.79,56.43,16S1039,43.74,1039,72.8V290c0,28.85-4.58,46.21-15.32,58.06C1012.42,360.46,994.91,366,966.92,366ZM76.08,7C49.27,7,33.33,11.15,22.8,20.79,11.88,30.79,7,46.83,7,72.8V290c0,26.22,4.83,42.72,15.65,53.49S49.91,359,76.08,359H966.92c25.85,0,41.76-4.83,51.58-15.67C1028,332.86,1032,316.91,1032,290V72.8c0-27-3.94-42-13.62-51.85S993.38,7,966.92,7Z"/>
  <polygon class="cls-2" points="217.44 150.85 100.27 83.44 192.82 175.51 217.44 150.85"/>
  <path class="cls-2" d="M89.61,84.12a5.83,5.83,0,0,0-.71,2.79V277.67a5.87,5.87,0,0,0,.25,1.7l98-98.2Z"/>
  <path class="cls-2" d="M192.84,186.82l-96.1,96.26a5.26,5.26,0,0,0,.84-.39L219,212.84Z"/>
  <path class="cls-2" d="M263.36,177.27,224.62,155l-26.13,26.17,27.69,27.55,37.18-21.39A5.79,5.79,0,0,0,263.36,177.27Z"/>
  <path class="cls-2" d="M396.19,213.74c0,13.45-4,24.24-12,32.21q-13.59,14.25-35.37,14.29-20.84,0-35.42-14.43T298.84,210q0-21.37,14.59-35.83a48.46,48.46,0,0,1,35.42-14.45,49.65,49.65,0,0,1,19.77,4,39.94,39.94,0,0,1,15.06,10.76L375.21,183q-9.54-11.43-26.36-11.43a36.58,36.58,0,0,0-26.28,10.69q-11.1,10.68-11.1,27.76t11.1,27.77a36.58,36.58,0,0,0,26.28,10.69c10.76,0,19.73-3.51,26.89-10.69,4.67-4.66,7.35-11.42,8.07-19.42H348.9v-12h46.61a47.52,47.52,0,0,1,.68,7.4"/>
  <path class="cls-2" d="M420.05,242.46a20.78,20.78,0,0,0,30.25,0q6.39-6.53,6.39-17.27t-6.39-17.28a20.8,20.8,0,0,0-30.25,0q-6.39,6.53-6.39,17.28T420.05,242.46Zm-9.21-42.35q9.56-10,24.34-10t24.34,10q9.54,10,9.54,25.08t-9.54,25.07q-9.56,10-24.34,10t-24.34-10q-9.54-10-9.55-25.07t9.55-25.08"/>
  <path class="cls-2" d="M492,242.46a20.78,20.78,0,0,0,30.25,0q6.39-6.53,6.39-17.27t-6.39-17.28a20.8,20.8,0,0,0-30.25,0q-6.4,6.53-6.39,17.28T492,242.46Zm-9.22-42.35q9.56-10,24.34-10t24.34,10q9.54,10,9.54,25.08t-9.54,25.07q-9.56,10-24.34,10t-24.34-10q-9.54-10-9.54-25.07t9.54-25.08"/>
  <path class="cls-2" d="M578.51,249a19.73,19.73,0,0,0,14.86-6.46q6.12-6.45,6.12-17.34c0-7.27-2-13-6.12-17.35a20.19,20.19,0,0,0-29.65.07q-6.18,6.53-6.19,17.28t6.19,17.27A19.67,19.67,0,0,0,578.51,249Zm-.94,40.33q-11.7,0-19.09-5.85a34.28,34.28,0,0,1-10.63-13.38l11.3-4.7a18.47,18.47,0,0,0,6.93,9A19.06,19.06,0,0,0,577.57,278c6.81,0,12.37-2,16.27-6.12s6.06-9.61,6.06-16.61v-6H599a27.1,27.1,0,0,1-22.46,11c-8.51,0-15.86-3.41-22-10.13s-9.28-15.09-9.28-25,3.09-18.3,9.28-25,13.54-10.09,22-10.09a27.32,27.32,0,0,1,13.31,3.19,27.68,27.68,0,0,1,9.15,8.05h.95v-9h11v62.42c0,11.3-3.07,19.88-9.61,25.76s-14.31,8.8-23.72,8.8"/>
  <rect x="622.9" y="162.34" width="12" height="96"/>
  <path class="cls-2" d="M694,217.34c-.27-4-2-7.39-5.18-10.8s-7.92-5.13-14.19-5.13a17.77,17.77,0,0,0-11.9,4.33,21.46,21.46,0,0,0-6.92,11.6Zm-17.75,42.94q-14.94,0-24.27-9.95t-9.35-25.14a36.25,36.25,0,0,1,9.08-24.75,29.45,29.45,0,0,1,23.19-10.35q14.65,0,23.46,9.55c5.87,6.37,8.81,14.81,8.81,25.48l-.13,2.22H655c.35,7,2.58,11.94,6.65,15.79A20.26,20.26,0,0,0,676,249q13.31,0,18-11.28l11,4.58A29.56,29.56,0,0,1,694.4,255.1c-4.92,3.45-11,5.18-18.14,5.18"/>
  <path class="cls-2" d="M755.9,207.34h20.66a16,16,0,0,0,12.5-5.26,17,17,0,0,0,4.71-11.58,17.36,17.36,0,0,0-4.71-11.74,16.11,16.11,0,0,0-12.5-5.42H755.9Zm0,51h-12v-96h32.39a30.24,30.24,0,0,1,21.18,7.89,26.3,26.3,0,0,1,8.94,20.38,26.62,26.62,0,0,1-8.94,20.55,30.45,30.45,0,0,1-21.18,8.18H755.9v39"/>
  <rect x="814.9" y="162.34" width="12" height="96"/>
  <path class="cls-2" d="M860.72,249a20.21,20.21,0,0,0,13.92-5.72,17.72,17.72,0,0,0,6.25-13.52q-5.24-4.29-15.73-4.29-9,0-13.58,3.89A11.74,11.74,0,0,0,847,238.5a8.79,8.79,0,0,0,4.17,7.66A16.64,16.64,0,0,0,860.72,249Zm-2,11.47a26.07,26.07,0,0,1-17.55-6.15c-4.71-4-7.06-9.4-7.06-16,0-7.17,2.78-12.82,8.34-16.89s12.42-6.13,20.58-6.13c7.26,0,12.88,1.33,17.88,4v-1.89a14.75,14.75,0,0,0-5-11.63,17.91,17.91,0,0,0-12.24-4.36,19,19,0,0,0-9.75,2.55,13.19,13.19,0,0,0-6,7l-11.3-4.84q2.29-5.91,9-11t17.76-5c8.42,0,15.5,2.47,21.06,7.39s8.42,11.89,8.42,20.85v40h-12v-9h-.54a25.29,25.29,0,0,1-21.65,11.12"/>
  <polyline class="cls-2" points="919.9 287.34 906.85 287.34 922.17 254.09 895.02 192.34 908.46 192.34 928.09 239.34 928.36 239.34 947.45 192.34 960.9 192.34 919.62 287.34"/>
  <path d="M309.92,142.66h-6.39V125.23h5.09q6.75-5.82,6.61-19.91V79.61h32.6v45.62h5.81v17.43h-6.39v-11H309.92Zm12-37.34q.15,12.36-4.94,19.91h24.18V86H321.91Z"/>
  <path d="M363.74,100.31a18.64,18.64,0,0,1,26.3,0,18.87,18.87,0,0,1,5.15,13.55A18.85,18.85,0,0,1,390,127.37a18.69,18.69,0,0,1-26.3,0,18.86,18.86,0,0,1-5.16-13.55A18.75,18.75,0,0,1,363.74,100.31Zm4.94,22.88a11.22,11.22,0,0,0,8.21,3.49,11,11,0,0,0,8.17-3.52,12.77,12.77,0,0,0,3.45-9.34,12.77,12.77,0,0,0-3.45-9.33,11.24,11.24,0,0,0-16.34,0,12.77,12.77,0,0,0-3.45,9.33A12.94,12.94,0,0,0,368.68,123.19Z"/>
  <path d="M417.57,132.78a17.36,17.36,0,0,1-13.15-5.41,18.86,18.86,0,0,1-5.16-13.55,18.87,18.87,0,0,1,5.16-13.55,17.4,17.4,0,0,1,13.15-5.41,16.15,16.15,0,0,1,9.88,2.91,17.12,17.12,0,0,1,5.74,7.34l-6.11,2.54a10,10,0,0,0-9.95-6.68,10.39,10.39,0,0,0-7.81,3.63,14.31,14.31,0,0,0,0,18.45,10.39,10.39,0,0,0,7.81,3.63q7.49,0,10.32-6.68l5.95,2.54a17.05,17.05,0,0,1-5.84,7.3A16.51,16.51,0,0,1,417.57,132.78Z"/>
  <path d="M436.89,102.13V96h27.6v6.1H454v29.49h-6.68V102.13Z"/>
  <path d="M479.82,147.31h-6.9l8.28-17.94L466.53,96h7.26L484.4,121.6h.14L494.86,96h7.26Z"/>
  <path d="M506.48,131.62V96H538v35.59h-6.69V102.13H513.16v29.49Z"/>
  <path d="M577.67,131.62H571V117H552.82v14.67h-6.68V96h6.68V110.7H571V96h6.69Z"/>
  <path d="M588.93,100.31a18.63,18.63,0,0,1,26.29,0,18.87,18.87,0,0,1,5.16,13.55,18.86,18.86,0,0,1-5.16,13.55,18.67,18.67,0,0,1-26.29,0,18.86,18.86,0,0,1-5.16-13.55A18.75,18.75,0,0,1,588.93,100.31Zm4.93,22.88a11.22,11.22,0,0,0,8.21,3.49,11.06,11.06,0,0,0,8.18-3.52,12.77,12.77,0,0,0,3.45-9.34,12.77,12.77,0,0,0-3.45-9.33,11.25,11.25,0,0,0-16.35,0,12.77,12.77,0,0,0-3.45,9.33A13,13,0,0,0,593.86,123.19Z"/>
  <path d="M666.43,113.53q6,2.48,6,7.7a9.53,9.53,0,0,1-3.34,7.41,11.31,11.31,0,0,1-7.77,3H642.46V96h17.8a11.06,11.06,0,0,1,7.55,2.9,9.25,9.25,0,0,1,3.27,7.19q0,4.8-4.65,7.19Zm-6.61-11.4H649.14v8.71h10.68a4.57,4.57,0,0,0,3.2-1.27,4.14,4.14,0,0,0,0-6.17A4.57,4.57,0,0,0,659.82,102.13Zm.8,14.09H649.14v9.3h11.48a5,5,0,0,0,3.45-1.35,4.27,4.27,0,0,0,1.49-3.3,4.33,4.33,0,0,0-1.49-3.27A4.91,4.91,0,0,0,660.62,116.22Z"/>
</svg>
