<?xml version="1.0" encoding="utf-8"?><svg xmlns="http://www.w3.org/2000/svg" xmlns:xlink="http://www.w3.org/1999/xlink"><symbol id="24h" viewBox="0 0 479.9 479.89" xmlns="http://www.w3.org/2000/svg"><defs><style>.acls-1{fill:#f3b828}</style></defs><path class="acls-1" d="M472 432h-24V280a8 8 0 0 0-14.55-4.58l-112 160A8 8 0 0 0 328 448h104v24a8 8 0 0 0 16 0v-24h24a8 8 0 0 0 0-16zm-40-126.62V432h-88.64z" transform="translate(-.1 -.11)"/><path class="acls-1" d="M328 464h-94.71l88-103.69a8 8 0 0 0 .56-.74A55.64 55.64 0 0 0 309.34 284 64 64 0 0 0 208 336a8 8 0 0 0 16 0 48 48 0 0 1 76-39 39.49 39.49 0 0 1 8.8 53.32l-98.9 116.5A8 8 0 0 0 216 480h112a8 8 0 0 0 0-16z" transform="translate(-.1 -.11)"/><path class="acls-1" d="M215.43.11C96.58.28.28 96.58.11 215.43V216.57c.2 115.91 91.94 211 207.78 215.28h.29a8 8 0 0 0 8-7.7 8 8 0 0 0-7.7-8.29A199.77 199.77 0 0 1 16.28 224H48a8 8 0 0 0 0-16H16.28A199.52 199.52 0 0 1 208 16.29V40a8 8 0 0 0 16 0V16.29a199.67 199.67 0 0 1 191.62 188l-31.2-31.2a8 8 0 0 0-11.32 11.31l44.66 44.66a8 8 0 0 0 3.15 2.29 1553.29 1553.29 0 0 0 2.65.64h.44a7.28 7.28 0 0 0 1.79-.35 7.89 7.89 0 0 0 1-.18 8 8 0 0 0 2.89-1.81l45.27-45.25a8 8 0 0 0-11.32-11.31l-32 31.95A215.67 215.67 0 0 0 216.57.11z" transform="translate(-.1 -.11)"/><path class="acls-1" d="M323.48 108.52a8 8 0 0 0-11.31 0l-86 86a25 25 0 0 0-20.41 0l-40.7-40.7a8 8 0 0 0-11.31 11.31l40.62 40.62a24 24 0 1 0 43.19 0l85.89-85.89a8 8 0 0 0 0-11.31zM221.66 221.66a8.2 8.2 0 0 1-11.32 0 8 8 0 1 1 11.32 0z" transform="translate(-.1 -.11)"/></symbol><symbol viewBox="0 0 42 34" id="bicycle" xmlns="http://www.w3.org/2000/svg"><defs><style>.bcls-1{fill:#000b0a;fill-rule:evenodd}</style></defs><path id="bbicycle.svg" class="bcls-1" d="M974.013 808.969a10.145 10.145 0 0 1-17.106 7.275l1.693-1.765a7.636 7.636 0 1 0 5.286-13.114c-4.762 0-7.4 4.067-8.519 6.387h3.24a5.3 5.3 0 0 1 1.032-2.151 5.477 5.477 0 0 1 7.645-.842 5.36 5.36 0 0 1 .849 7.579 5.412 5.412 0 0 1-3.646 1.991 5.734 5.734 0 0 1-.612.034 5.424 5.424 0 0 1-3.387-1.183 5.329 5.329 0 0 1-1.874-2.993h-4.227a16.59 16.59 0 0 1-2.33 3.95 12.38 12.38 0 0 1-9.931 4.872 10.04 10.04 0 1 1 7.7-16.559l-1.868 1.583a7.641 7.641 0 1 0-5.834 12.54c5.544 0 8.386-4.068 9.558-6.386h-4.271a5.4 5.4 0 1 1-2.971-6.1l-1.047 2.2a2.956 2.956 0 1 0 1.442 3.895h-1.955v-2.435h9.8a18.043 18.043 0 0 1 2.18-3.914 11.27 11.27 0 0 1 7.8-4.833v-11.043a1.214 1.214 0 0 1 .422-.919 1.244 1.244 0 0 1 .978-.286 1.775 1.775 0 0 0 1.477-.58 2.209 2.209 0 0 0 .431-1.175l2.456.013a4.586 4.586 0 0 1-.957 2.668 4.01 4.01 0 0 1-2.351 1.419v9.915a10.079 10.079 0 0 1 8.897 9.957zm-11.991 2.309a3 3 0 0 0 4.193-.461 2.942 2.942 0 0 0-.465-4.157 3.006 3.006 0 0 0-4.193.462 2.942 2.942 0 0 0 .465 4.156z" transform="translate(-932 -785)"/></symbol><symbol viewBox="0 0 367 628.5" id="borodach" xmlns="http://www.w3.org/2000/svg"><path class="cst1" d="M45.2 593.2c.4.1.8.1 1.2.1 2.7 0 5-1.9 5.6-4.5.3-1.5.1-3-.8-4.3-.8-1.3-2.1-2.2-3.6-2.5-.4-.1-.8-.1-1.2-.1-2.7 0-5 1.9-5.6 4.5-.3 1.5-.1 3 .8 4.3.8 1.2 2.1 2.1 3.6 2.5zm-1.8-6.3c.3-1.4 1.6-2.4 3-2.4.2 0 .4 0 .7.1.8.2 1.5.7 1.9 1.3.4.7.6 1.5.4 2.3-.4 1.6-2 2.7-3.7 2.3-.8-.2-1.5-.7-1.9-1.3-.4-.7-.5-1.5-.4-2.3zM311.5 592.9c.4.1.7.1 1.1.1 2.4 0 4.5-1.7 5-4 .6-2.8-1.1-5.5-3.9-6.1-.4-.1-.7-.1-1.1-.1-2.4 0-4.5 1.7-5 4-.3 1.3-.1 2.7.7 3.9.8 1.2 1.9 2 3.2 2.2zm-1.2-5.5c.2-1.1 1.2-1.9 2.4-1.9.2 0 .4 0 .5.1 1.3.3 2.1 1.6 1.9 2.9-.3 1.3-1.6 2.1-2.9 1.8-.6-.1-1.2-.5-1.5-1.1-.5-.5-.6-1.1-.4-1.8zM291.5 224.4c-2-.1-3.8.9-5.6 2-.8.5-1.6.9-2.3 1.2-3.1 1.2-6.3 1.9-9.4 2.5-1.4.3-3 .5-4.8.7-4.2.5-8.6 1-11.4 2.9-.2.1-.3.3-.4.5l-.4.9c-.1.3-.2.5-.1.8 1.1 6.4 3.3 15.2 5.7 22.4.3.9.6 2.1.9 3.2.9 3.6 1.9 7.7 4.8 10 2 1.6 5 2.5 8.8 2.5 4.4 0 9.4-1.3 12.5-3.2 6-3.7 12.2-8.4 9.8-17.7-.7-2.6-1.4-5.2-2.2-7.7-1.9-6.5-3.9-13.3-4.5-19.8-.3-.6-.8-1.1-1.4-1.2zm5.3 29.5c1.8 6.8-1.8 10.6-8.6 14.8-2.7 1.7-7.2 2.8-11.1 2.8-3.1 0-5.5-.7-7.1-1.9-2.2-1.8-3.1-5.4-3.9-8.6-.3-1.2-.6-2.4-.9-3.4-2.3-7-4.5-15.4-5.5-21.6l.1-.2c2.4-1.4 6.4-1.9 9.9-2.3 1.8-.2 3.5-.4 5-.7 3.2-.6 6.6-1.4 9.8-2.7.9-.4 1.8-.9 2.7-1.4 1-.6 2-1.2 3-1.5.7 6.4 2.6 12.8 4.4 19 .7 2.6 1.5 5.2 2.2 7.7zM120.2 296.9c0-3.3-2.7-5.9-5.9-5.9-3.3 0-5.9 2.7-5.9 5.9 0 3.3 2.7 5.9 5.9 5.9 3.3 0 5.9-2.6 5.9-5.9zm-9.1 0c0-1.8 1.4-3.2 3.2-3.2 1.8 0 3.2 1.4 3.2 3.2 0 1.8-1.4 3.2-3.2 3.2-1.8.1-3.2-1.4-3.2-3.2zM135.3 576.5c-3.9 0-7 3.2-7 7 0 3.9 3.2 7 7 7 3.9 0 7-3.2 7-7s-3.1-7-7-7zm0 11.4c-2.4 0-4.3-1.9-4.3-4.3s1.9-4.3 4.3-4.3 4.3 1.9 4.3 4.3-1.9 4.3-4.3 4.3z"/><path class="cst1" d="M313.1 543.9c.4 0 .7-.1 1.1-.2l16.6-7.1c.7-.3 1.2-.8 1.5-1.5.2.3.3.6.5.8 5.3 9.2 10 13.5 14.6 13.5h.7c.4 0 .8-.1 1.3-.2.1 0 .3 0 .4-.1.4-.1.8-.3 1.2-.5 5.1-2.4 8.7-9.6 8.7-14.7.1-10.8-1-22-2.1-32.7v-.1c-.2-2.2-.4-4.4-.7-6.6l-.2-1.6c-1.1-12-2.3-24.3-4.8-35.5-.3-1.2-1.3-2.1-2.6-2.2-1.4-.1-2.8-.2-4.2-.4-2.1-.2-4.4-.5-6.7-.5h-.3c-3.6 0-5.6.9-7.7 1.9-.9.4-1.8.8-3 1.3-.5.2-1.9.4-5.3.4-1.4 0-2.9 0-4.4-.1h-.2c-2.2-1.5-4.8-2.6-7.1-3.7-1.7-.7-3.3-1.5-4.3-2.1l-3-1.8c-6.8-4.1-13.2-8.1-19.5-12.9-4.6-3.5-10.4-7.3-16.1-10.4-2-1.1-4.4-1.6-6.8-2.2-2.8-.6-5.7-1.3-7-2.8-.6-.7-.8-3.9-.8-5.1 0-.7-.1-1.5-.1-2.1-.9-7.6-.4-14.7 0-22.1.2-3 .4-6.1.5-9.3.1-3-.1-5.9-.3-8.8-.1-2.2-.3-4.5-.3-6.7 0-1-.1-3.2-.2-5.6-.1-3.6-.4-11-.4-16.8.4-.4.7-.9.8-1.5 1.3-.8 4.7-2.1 5.7-2.3 4.5-.7 7.4-3 9.5-7.5 1.2-2.7 1.1-5.4-.3-7.4-.5-.7-1.1-1.3-1.9-1.7-2.1-9.4-3.1-19.6-4.1-29.4-.3-2.9-.6-5.7-.9-8.5-.2-2.2-.4-4.4-.6-6.5 1.7 1.4 3.7 2.7 5.9 3.7 3.4 1.6 7.1 2.5 11 2.5 17.4 0 35-17 39.9-32.2 2.2-6.7.4-14.3-1.5-21.7 2.1-1.2 3.6-3.1 3.9-5 .3-2-.6-4.3-1.4-6.3-.2-.4-.3-.8-.4-1.1-1-2.9-2.3-5.6-3.6-8.3-1-2-2-4.1-2.8-6.2-.2-.6-.5-1.2-.7-1.8-.7-1.7-1.5-3.5-1.8-5.1-.3-1.6-.3-1.6.2-2.7.2-.5.5-1 .8-1.8 1.7-4.2.4-6.7-.6-8.7-.1-.3-.3-.5-.4-.8 2-1.3 4-2.8 5.9-4.2 1-.7 2-1.5 3-2.2.6-.5 1.1-1.2 1.2-2 .1-.8-.2-1.6-.7-2.2-3.5-3.9-6.2-8.9-8.9-13.7-2.1-3.6-4.2-7.4-6.6-10.8-2.1-3-4.9-6-8.3-9-3.6-3.2-7.9-6.4-12.8-9.5-4.1-2.6-12.4-7-21.3-7-.6 0-1.2 0-1.7.1-1.7.1-3.4.4-4.9.9-.5.2-1.1.3-1.7.6l-.5.2c-.4.2-.8.3-1.2.5-1 .4-1.9.9-3 1.5l-.8.4c-.2.1-.3.2-.5.3-2.5 1.6-4.9 3.4-7.1 5.1l-.7.5c-1.2-3.5-2.7-6.8-4.5-9.6.5-.1.9-.1 1.4-.2 1.6-.2 3.2-.4 5.1-1.3 1.3-.7 2.4-1.5 3.4-2.3.9-.7 1.7-1.3 2.5-1.7.9-.4 1.9-.6 3.2-.6 1.2 0 2.5.2 3.7.3 1.1.1 2.1.3 3.2.3l1.6.1c3.7.2 7.2.3 10.7 1.3 3.2.9 6.3 2.6 9.4 4.3l2.7 1.5c5 2.6 10.5 4 15.4 5.2 9.6 2.4 18.4 1.9 25.9-1.4 1.9-.8 3.7-1.9 5.6-3.1 3.3-2 6.7-4.1 9.7-4.1 1 0 1.9.2 2.8.6.8.4 1.7.4 2.5 0 .6-.3 1-.7 1.3-1.3h.7c1 .1 2-.3 2.6-1.1.6-.8.7-1.9.3-2.8l-.9-1.8c-.9-1.8-1.5-3-1.6-3.4.3-.4 1.5-1.1 2.1-1.5.3-.2.6-.3.9-.5.7-.4 1.1-1.1 1.3-1.8.2-.8 0-1.6-.4-2.2-1.6-2.4-2.4-5.1-2-6 0-.1.1-.3.8-.4 1.2-.3 2.1-1.3 2.2-2.5.1-.9-.3-1.8-1-2.4h.2c1.4 0 2.6-1.1 2.8-2.5.2-1.4-.7-2.8-2.1-3.1-11.2-2.8-22.3 1.3-31.6 11.5-4 4.4-7.1 6.5-13.2 6-5.9-.5-12.8-3.5-17.2-7.5-.6-.5-1.2-1.1-1.8-1.6-3-2.9-6.5-6.2-12-6.8-1.3-.1-2.6-.2-4-.2-3.9 0-7.7.6-11.5 1.2.1-.1.2-.2.3-.2 1.9-1.6 3.8-3.2 5.5-4 2.1-.9 4.5-1.8 6.7-2.6 1.5-.5 3-1.1 4.5-1.6 2.4-.9 5.1-1.1 7.6-.5 1.4.3 2.9-.5 3.4-1.9.3-.9.3-1.9.3-2.8v-.5c.6-.1 1.1-.3 1.5-.7.7-.6 1-1.6.8-2.5l-.1-.6c-.3-1.8-.3-1.8.5-2.4.6-.5 1-1.2 1-2 .1-.8-.2-1.5-.7-2.1-.5-.5-1-1-1.7-1.4 1.3-.9 2.4-1.8 3.2-2.8.6-.7.8-1.6.6-2.4-.2-.9-.7-1.6-1.5-2-1.1-.6-2.5-.8-4.4-.8-.9 0-1.8.1-2.7.1-.6 0-1.2.1-1.7.1-3.5 0-6.9.1-10.1.3-.7 0-1.3 0-2 .1-3.4.1-7.3.2-11 2.1-3.4 1.9-5.9 4.6-8.3 7.3l-.9 1c-2.6 2.8-5 5.9-7.3 8.8-3.2 4.1-6.5 8.2-10.2 11.7-2.7 2.6-5.4 4.1-9.4 5.3h-.2c-1.7.5-3.4 1-5 1.4.2-1.2 1.1-2.7 2.5-4.7 5.6-7.8 18-27.9 12.4-44.9-5-15.1-13.2-24.5-27.8-31.7l.9-.9c.9-1.2.8-2.8-.3-3.8-1.9-1.7-4.9-2.3-8.7-1.7 0-.2 0-.3-.1-.5-.2-1.4-1.2-2.5-2.8-3.4-1.1-.6-2.4-.9-3.9-.9-2.1 0-4.4.6-6.6 1.3-.1-.2-.1-.4-.2-.5-.4-.8-1.2-1.3-2.1-1.5-.6-.1-1.3-.1-2-.1-3.2 0-8.1 1-12.2 3.1-.2-.3-.5-.6-.8-.9-.8-.5-1.8-.6-2.6-.3-3.3 1.3-6.9 5.4-9.1 9.4-.5-.4-1.2-.5-1.8-.5-.8.1-1.6.5-2.1 1.2-6.9 9.6-6.7 23.7.2 33.3-.8 1.2-1.5 2.5-2.3 3.9-1.2 2-1.8 4-2.1 6.2-.9 0-1.7.4-2.3 1.1-.8.9-1.1 2.4-.8 4.3.4 3 2 4 3.2 4.3 0 1.7-.3 2.9-1 4.5-.1.3-.9 1.1-1.3 1.6-1.3 1.4-2.5 2.8-2.7 4.4-.6 4.6 2.6 7.1 4.8 8.8 2.6 2 3.4 2.7 1.9 5.5-.4.8-.4 1.8-.1 2.6.3.5.7 1 1.2 1.3-.7 1.6-1.2 3.1-1.4 4.4-1.2 2.3-1.2 4.3-1.2 6.2 0 .8 0 1.8-.1 2.9-.3 4.2-2.3 8.1-5.6 11.1-.7.7-1 1.6-.9 2.6.2 1 .8 1.8 1.7 2.1 1.5.6 3 .9 4.5.9 1.2 0 2.3-.2 3.4-.4-.1.8.1 1.5.6 2.2.7.9 2 1.3 3.1.9.6-.2 1.3-.4 1.9-.6h.1c2.8-.8 5.8-1.8 8.6-3.2.2 1 .9 1.7 1.9 2 .2.1.3.1.5.1-2.6 3-2.4 5.3-1.7 6.6.4.8 1.1 1.8 2.7 2.5-1.1 1.5-2.1 3-3 4.4-.7 1.2-1.4 2.4-2 3.6-4.4 5.2-7.8 11.3-10.3 18.5-6.8 19.8-2.7 40.3 1.4 60.1 1.2 5.7 2.5 12.2 3.4 18.4v.1c-6 8.1-13.2 14.5-19.5 19.7-.9.8-1.9 1.6-2.9 2.5-1.5 1.3-2.8 2.4-4.2 3.5-.6.2-1 .4-1.4.5-.4.1-.9.2-1.4.2-1.6 0-3.5-.5-5.6-1.1-2.3-.7-4.7-1.3-7.2-1.3h-.2c-5.2.1-7.2 2.7-9.1 5.2-.5.6-1 1.3-1.5 1.9-.5.4-1 1-1.5 1.6l-.6.6c-1.8 1.7-4.1 3.9-4.8 6.9-2 2.4-4.8 5.9-3.1 11 1.4 4.3 4.6 6.8 7.2 8.7.4.3.7.6 1.1.8l-20.8 94.5c-2.7.4-5 2.4-5.6 5.2L51.3 511.6c-3 1-5.3 3.6-6.1 6.8l-.9 5.1c-.7 3.1.3 6.2 2.5 8.4l-2.6 11.9c-1.8.5-3.3 1.7-4.3 3.3-16.5 2.7-29.9 15.3-33.4 31.6-2.3 10.7-.4 21.6 5.5 30.8s15 15.6 25.7 17.9c2.9.6 5.9 1 8.8 1 19 0 35.8-13.5 39.9-32.1 3.7-16.9-3.6-34.3-18.2-43.5-.3-1.7-1.2-3.2-2.5-4.3l1.4-6.6 51.8 45.3c1.7 7.6 8.5 13.1 16.4 13.1 2.9 0 5.8-.8 8.3-2.2h129.5c1.1 4 2.8 7.9 5.1 11.4 5.9 9.2 15 15.6 25.7 17.9 2.9.6 5.9 1 8.8 1 19 0 35.8-13.5 39.9-32.1 2.3-10.7.4-21.6-5.5-30.8s-15-15.6-25.7-17.9c-2.9-.6-5.9-1-8.8-1-18.7 0-35.2 13-39.7 31.1h-.8c0-.2.1-.4.1-.5 4.3-19.4 21.1-33.1 40.9-33.3zm-73.8 21.7c-.3-.9-.7-1.9-1-3.1-.4-1.6.1-6.5.5-9.8.3-3.1.6-5.5.6-7.2.2-.3.3-.6.3-.9 1.1-6.8-1.4-15.2-3.6-22.5-.6-1.9-1.1-3.7-1.5-5.4-2.4-9.4-3.7-17.8-4.1-28.4-.2-5.2-.9-10.7-1.7-15.7 4.8 1.8 10.2 3.2 17.3 4.4 16.1 2.7 31.9 7.7 47.2 12.6 1.6.5 3.5 1.7 5.3 2.8 2.2 1.4 4.3 2.7 6.5 3.3.1.1.3.2.5.3.6.3 1.3.8 2.3 1 .1 1.4.5 2.1 1.6 3.6.2.3.5.6.8 1 .9 1.3 2.2 2.3 3.4 3.2.9.7 1.7 1.4 2.3 2.1 2.1 2.5 3.8 5.4 5.5 8.3.9 1.6 1.9 3.2 2.9 4.8 1.8 2.8 3.3 5.8 4.8 8.9.4.8.8 1.5 1.1 2.3-1.7-.5-3.3-1-4.9-1.3-4.2-.9-8.5-1.4-12.8-1.4-27.5 0-51.7 19.5-57.7 46.4-.2.9-.4 1.9-.6 2.9H240c.2-1.3.5-2.8.6-4.3.3-3.7-.5-5.7-1.3-7.9zM93.7 401.2l20-90.7h.7c7.1 0 13-5.5 13.6-12.4 5.3-.7 10.1-4.2 14-7 1.3-.7 2.6-1.5 3.8-2.1 1.6-.9 3.3-1.9 4.9-2.7 2.5-1.3 5.3-2.7 8.1-4.2-.2 13.1-1 26.3-1.7 39l-.4 6.5c-.1 1.2-.2 2.1-.3 2.9-.4 4 0 4.9 3.5 9.9 1.4 2 3.5 5 6.1 7.4.2 3.3.1 11.2-.1 15-.3 7-.2 14.1-.2 20.9v7.4c0 9.6 1 20.5 2.5 28.6.9 4.8 2.7 9.4 4.4 13.8 1.7 4.5 3.5 9.1 4.3 13.8.3 1.9.4 3.9.5 5.8.2 3.2.3 6.4 1.3 9.7 1.4 4.6 3.1 9.4 4.7 14.1 3.9 11.6 8 23.5 9.9 35.1.2 1.1-.3 7.9-.6 12.8-.9 13.1-1.1 17.8-.6 20.1l-.6.6c-.4.2-.8.6-1 .9-.1.1-.3.2-.4.3-2.6 1.9-5.7 3.3-8.7 4.8-1.6.8-3.3 1.6-5 2.5-3 1.6-6 2.8-9.2 4.1-2.4.9-4.9 1.9-7.4 3.1-6.9 3.2-11.3 6.4-13.3 9.6-3.1-2.7-7-4.1-11-4.1-2.2 0-4.4.4-6.5 1.3l-51.7-45.2c-.2-2.9-1.7-5.6-4.2-7.2l23.6-107.4c.5-2.7-.7-5.5-3-7zm11.1-104.3c0-5.2 4.3-9.5 9.5-9.5s9.5 4.3 9.5 9.5-4.3 9.5-9.5 9.5-9.5-4.2-9.5-9.5zm70.3 27.5c.1 1.9.2 3.8.1 5.8 0 .4.1.8.4 1 .3.3.7.4 1.1.3 5.1-.6 10.3-2.3 15.3-3.8 5.4-1.7 11-3.4 16.4-3.9 8.6-.8 18.6 3.8 27.4 7.8 1.9.9 3.8 1.7 5.5 2.5 3.2 1.4 5.8 1.2 8 .3.6.8.7 1.2.7 1.2-.7.8-5.8.7-9.8.6-.9 0-1.9 0-2.9-.1-4.1-.1-8.5-.8-12.7-1.5-7.4-1.2-15-2.5-22.1-.6-4.2 1.2-8.1 3.9-11.8 6.6-5.7 4.1-11.1 7.9-17.6 6.5-3.8-.8-7.7-6.3-9.7-9.2-3.1-4.3-3.1-4.3-2.8-7 .1-.8.2-1.8.3-3.1l.4-6.5c.9-15.3 1.9-30.8 1.8-46.3 2.5-1.7 5.2-3.1 7.8-4.6 2.4-1.3 4.8-2.6 7.1-4 .3 2.6.8 5.1 1.4 7.6.7 2.9 1.4 5.8 1.5 8.7.2 4.9-.8 9.3-2 14-.2.8-.4 1.5-.5 2.3-.7 2.9-1.1 5.9-1.6 8.8-.3 2.1-.7 4.4-1.1 6.5-.9 3.7-.8 6.9-.6 10.1zm73.3 37.9c.1 1.9.1 3.5.2 4.6-.3 0-.6 0-.8.1-6.9 3.7-15.1 2.4-20.4-3.3-4.7-5.1-5.9-13.1-6.2-20.7-.1-2.2-.1-4.3-.1-6.3 1 .2 2 .3 2.9.5 4.3.7 8.8 1.4 13.1 1.5 1 0 2 0 2.9.1h.2c3.4.1 6.1.1 8.1-.1-.4 3.4-.4 10.1.1 23.6zM234 561.9c-.2 0-.4 0-.6.1-1.8 1-3.4 2.5-4.9 4-1.3 1.3-2.5 2.5-3.8 3.3-2 1.3-4.6 1.9-7 2.5l-.7.2c-8.3 2.1-17.2 3.2-25.8 3.2-12.7 0-26.3-.2-40-1.5-.2 0-.5-.1-.7-.1-.2 0-.5-.1-.8-.1 1-1.9 3.9-4.8 11.8-8.5 2.3-1.1 4.7-2 7.1-3 .1.4.4.7.8.9 1.7.6 2.2 2.9 2.7 5 .2.9.4 1.7.7 2.5.2.5.7.9 1.3.9h.5c2.2-.5 5.3-1.2 5.8-4.6.3-1.9-.5-3.7-1.2-5.2-.4-.8-.8-1.7-.9-2.4 2.2.8 3.6 5.7 4.3 8.3.1.5.3.9.4 1.3.2.5.6.9 1.1.9 1.2.1 5.1-.5 6.1-2.3.8-1.4.4-3.7-.1-5.9l-.1-.4c-.1-.5-.4-1.3-.8-2.4-.3-.7-.7-1.8-1-2.8 1.6 1.5 2.7 3.7 3.8 5.9.2.5.4.9.6 1.3.6 1.4 1.2 2.7 2.5 2.9 1.2.1 2.2-.9 2.8-1.9 3.7-5.3 1.1-9.2-1.3-12.5-.7-1-1.4-2-2-3.1l.8-.8.9-.9c5.2 1.8 9.6 2.9 15.6 2.3 2.1-.2 4.2.1 6.5.3 1.8.2 3.6.4 5.6.4 1 0 2.1-.1 3.2-.2.4-.1.8-.3 1-.7 1.1-2.2 4.2-3.1 7.1-3.2 0 1.6-.3 4.5-.5 6.8-.5 3.4-.9 7-.8 9.5zm-62.7-.9c1.4-.5 2.7-1.1 4.1-1.7.2 1.2.7 2.3 1.2 3.4.6 1.3 1.2 2.6 1 3.7-.2 1.2-1 1.7-2.7 2.1-.1-.3-.2-.7-.2-1-.6-2.4-1.3-5.1-3.4-6.5zm8.6-4.1c1.1-.5 2.2-1.1 3.2-1.6l1.8-.9c.1 1.2.7 2.9 1.5 5.1.3.8.6 1.7.7 2l.1.4c.5 2.2.7 3.5.4 3.9-.3.4-1.7.8-2.7 1 0-.1 0-.2-.1-.2-.7-3-2.1-7.9-4.9-9.7zm15.6 5.6c-.1.2-.2.3-.3.4-.1-.3-.3-.6-.4-.9-.2-.5-.4-1-.7-1.5-1.2-2.4-2.7-5.2-4.7-7-.3-.2-.6-.6-1.1-.8 1.4-.7 2.7-1.5 4-2.4.6 1 1.2 1.9 1.8 2.8 2.5 3.2 4.1 5.6 1.4 9.4zM150 576.3c.3.1.6.1.9.1 13.9 1.3 27.5 1.5 40.3 1.5h.2c8.8 0 17.9-1.1 26.3-3.3l.7-.2c2.7-.7 5.4-1.4 7.8-2.9 1.6-1 2.9-2.4 4.3-3.7 1.4-1.4 2.7-2.6 4.1-3.4.3 1 .6 1.8.9 2.6.7 1.9 1.2 3.3 1 6-.2 2.1-.5 4.1-1 6.1H151c-.9-1-1.5-2-1.7-3 .2.1.4.1.7.2zm168.3-72.8c.9-.9 2.2-2 3.5-3 1.5-1.1 3-2.3 4.1-3.5.3-.3.5-.6.7-.9.4-.5.5-.6.6-.6.4.2 1.3 1 1.4 1.3.6 1.8-4.9 6.5-6.9 8.3-.5.4-.9.8-1.3 1.1-.5-.7-1-1.3-1.5-1.9-.1-.3-.3-.6-.6-.8zm5.4 7.4h.2c1.8-.3 3.7-1.5 5.3-2.6.5-.3.9-.6 1.3-.9 2.7-1.7 4.6-2.5 7.3-2.6.3 1.6 0 1.9-1.5 2.8-2.7 1.6-5.6 3.3-8.1 5.5l-.3.3c-.5.4-1.2 1-1.6 1.8l-1.2-2.1c-.6-.7-1-1.4-1.4-2.2zm7.9 13.5c-.7-1.5-1.5-2.9-2.3-4.4 1.6-.2 3.3-1.2 4.7-2.1.6-.4 1.3-.8 1.7-1l.7-.3c1.7-.8 4.1-1.9 5.7-1.4.5.2 1.6 1.1 2 2 .1.1.2.5.1.7-.4.7-3.3 1.9-5.3 2.6-2.9 1.3-5.8 2.4-7.3 3.9zm.4-63.4c.2-.3.2-.7.1-1 .1 0 .1-.1.2-.1 1.9-.9 3.2-1.5 5.9-1.5h.2c2.1 0 4.1.2 6.3.5 1.1.1 2.2.3 3.4.3 2.3 10.6 3.4 22.5 4.5 34l.2 1.6c.2 2.2.4 4.5.7 6.7 1.1 10.6 2.2 21.6 2.1 32.2 0 2.4-1.3 5.8-3.2 8.2.2-.5.3-1.1.5-1.6.2-.7.4-1.3.6-2 1.9-6.4.4-14.5-.6-20.4-.3-1.5-.6-3-1-4.4-.6-2.3-1.2-4.6-1.3-6.8-.1-1.6-.2-3.2-.2-4.7-.1-2.6-.2-5.2-.6-7.8-1.2-8.1-3.7-13.3-8.4-18.2-.9-.9-2-1.9-3-2.8-1.6-1.3-3.2-2.7-4.2-4.2-1.7-1.6-2.9-6.8-2.2-8zm-11.2 2.9c-.2-.7-.5-1.3-.9-1.9h2.2c3.4 0 5.4-.2 6.7-.6.1 0 .2-.1.3-.1-.3 3 1.2 7.8 2.5 9.6 1.2 1.7 3 3.2 4.7 4.6 1 .9 2 1.7 2.9 2.6 4.3 4.4 6.5 9.3 7.7 16.7.4 2.4.5 5 .5 7.5.1 1.6.1 3.2.2 4.8.2 2.5.8 4.9 1.4 7.3.4 1.5.7 2.9 1 4.3 1 5.6 2.5 13.3.7 19.1-.2.6-.4 1.3-.6 2-.2.8-.4 1.5-.7 2.3l-.1.5c-.1.5-.5 1.8-.8 2.5-.1 0-.1.1-.2.1-.2.1-.5.1-.7.1h-.3c-1.6 0-5.2-1.5-11-11.4-1.2-2.1-2.3-4.2-3.3-6.3v-.4c-.3-1.2 4.4-3 6.7-3.9 3.7-1.4 6-2.4 6.7-3.9.4-.9.4-1.9 0-3-.6-1.6-2.2-3.1-3.6-3.6-2.5-.8-5.5.5-7.7 1.5l-.7.3c-.6.3-1.3.7-2 1.1-1.1.6-3.6 2.1-4 1.6-.3-.4-.4-.5 1.1-1.9l.3-.3c2.3-2 5-3.7 7.6-5.2 3.3-1.9 3.2-3.8 2.6-6.7-.1-.6-.6-1-1.3-1.1-4-.2-6.5.9-9.9 3-.4.3-.9.6-1.5 1-1.3.9-2.9 2-4.1 2.2-.4.1-.6.1-.7.1 0 0-.1-.1-.1-.2l-.1-.1c.3-.3.7-.6 1-.9 4.8-4.2 8.7-8 7.7-11.2-.3-1.1-2.4-3.1-3.7-3.2-1.8-.1-2.6 1-3.1 1.7-.2.2-.3.4-.5.7-1 1-2.4 2.1-3.7 3.2-1.5 1.1-2.9 2.2-3.9 3.3l-.1-.1c-1-.8-2-1.6-2.6-2.5-.3-.5-.6-.8-.8-1.1-.8-1-.8-1-.8-2.3 0-.5 0-1.2-.1-2.1l-.1-1.3c.8-.7 1.8-1.3 2.7-1.9 2.3-1.5 4.7-3 5.7-6 .9-2.5.4-5.4 0-8.2-.3-1.6-.5-3.1-.5-4.4 0-.7.3-1.8.6-2.9.6-1.9 1.1-3.6.7-5zm-61-35.1c2.2.5 4.2 1 5.7 1.8 5.5 3 11.1 6.6 15.6 10 6.5 5 13 9 19.8 13.2l3 1.8c1.3.8 3 1.6 4.8 2.4 3.9 1.7 8.7 3.9 9.5 6.7.2.7-.3 2.4-.6 3.6-.3 1.3-.6 2.5-.6 3.5 0 1.6.2 3.3.5 4.9.4 2.5.8 5 .2 6.9-.7 2.1-2.5 3.3-4.6 4.6-1.8 1.1-3.7 2.4-5.2 4.4-.1 0-.2-.1-.2-.1-.5-.3-.9-.6-1.5-.7-1.6-.4-3.4-1.6-5.4-2.8-2-1.3-4.1-2.6-6.2-3.3-15.4-4.9-31.4-10-47.8-12.8-12-2-21.8-4.9-30.9-12.7-5-4.3-8-15.6-10.7-25.6-1.3-5-2.6-9.6-3.9-12.9-3.2-7.6-6.8-16.2-8.6-24.9-1.2-5.5-1.9-11.4-2.5-17.2-1.1-9.5-2.2-19.4-5.7-28.3 0-.1 0-.1-.1-.2-.3-.7-1.1-1-1.7-.8-.7.3-1 1.1-.8 1.7 3.4 8.6 4.5 18.4 5.6 27.8 0 .3.1.6.1.9.6 5.5 1.3 11.2 2.5 16.5 1.9 8.9 5.5 17.6 8.8 25.3 1.3 3.1 2.5 7.7 3.8 12.6 2.8 10.4 5.9 22.2 11.5 27 3.2 2.7 6.4 4.9 9.8 6.6 1.1 6.8 2.2 13.6 2.4 19.7.4 10.9 1.7 19.6 4.2 29.3.4 1.7 1 3.5 1.6 5.5 1.9 6.5 4.1 13.8 3.6 19.5-2.6.1-7.4.7-9.6 4.1-2.6.3-5 0-7.4-.3-2.3-.3-4.6-.6-7-.3-5.9.5-10.1-.6-15.5-2.5-.4-2.3.3-12.1.7-18.7.5-7.6.8-12.3.6-13.8-1.9-11.9-6-24-10-35.7-1.6-4.6-3.2-9.4-4.6-14-.9-2.8-1-5.7-1.2-8.7-.1-2-.2-4.1-.6-6.2-.8-5.1-2.7-10-4.5-14.7-1.7-4.4-3.3-8.6-4.2-13-1.5-7.8-2.4-18.5-2.4-27.8v-7.4c0-6.8-.1-13.9.2-20.7.1-3.2.2-9.5.1-13.6v-.4c.7.4 1.5.7 2.2.8 1.1.2 2.2.4 3.3.4 6.2 0 11.4-3.7 16.5-7.3 3.7-2.7 7.2-5.2 11-6.2 4.8-1.3 10-1 15.3-.3 0 2.3 0 4.8.1 7.3.4 7.9 1.7 16.4 6.9 22 3.8 4.1 8.9 6.2 14.2 6.2 3.1 0 6.2-.7 9.1-2.2 0 1.7.1 3.5.2 5.2.2 2.7.3 5.6.2 8.4-.1 3.1-.3 6.2-.5 9.2-.5 7.6-.9 14.8 0 22.8.1.5.1 1.2.1 1.9.1 2.6.3 5.9 1.9 7.7 1.9 2.3 5.5 3.1 8.9 3.9zm4.7-99.7c.6.8.5 2-.1 3.2-1.5 3.2-3.3 4.7-6.3 5.2-.4.1-4.6 1.2-7.2 2.8.1-1 .2-1.9.3-2.4.5-.3.9-.7 1.1-1.2.6-1.2.1-2.6-.6-3.6.9-.5 1.7-1.1 2.5-1.6 2.3-1.6 4.5-3.1 7.3-3.4 1.4-.1 2.4.2 3 1zm-2.7-3.7h-.6c-3.5.3-6.2 2.2-8.5 3.8-1.1.7-2 1.4-3 1.9-2.2 1.2-4.4 1.6-7.4.3-1.7-.7-3.5-1.6-5.4-2.4-9.1-4.2-19.4-8.9-28.8-8-5.7.5-11.4 2.3-16.9 4-4.6 1.4-9 2.8-13.3 3.5 0-1.5 0-3-.1-4.4-.1-3.1-.2-6.1.4-9.3.4-2.2.8-4.5 1.1-6.6.4-2.8.9-5.8 1.6-8.6.2-.8.4-1.5.5-2.3 1.2-4.9 2.3-9.5 2-14.8-.1-3.1-.9-6.2-1.6-9.2-.7-3-1.4-5.8-1.5-8.7 1.8-1.1 3.8-2.2 5.8-3.4 7.6-4.4 15.5-9 20.4-15.8.7-1 1.7-2.4 2.7-4.1.4.1.9.2 1.4.3 3.1.5 6.3.4 9.5.3 3-.1 5.8-.2 8.5.2 1 .1 1.9.3 2.8.6 4.1 1 7.3 2.9 10.9 5 .1.1.2.1.3.2 1.1.6 2.1 1.3 3.3 1.9.6.3 1.2.7 1.8 1 1 .5 2 1.1 2.9 1.6.1.2.1.4.2.6 1.1 3.3 2.3 6.7 3.1 10.2 1.3 5.6 1.8 11.5 2.3 17.1.2 2.3.4 4.7.7 7l.9 8.4c.5 5.2 1 10.4 1.7 15.6.6 4.9 1.3 9.6 2.3 14.1zM229 146.5l.8.8c.4.4.8.8 1.2 1 .3.9.7 1.8 1.1 2.7 1.3 2.8 2.9 5.5 4.5 8.1.8 1.4 1.7 2.8 2.5 4.2l.3.6c1 1.7 1.8 3.5 2.5 5.3 2.6 6.5 3.2 13.8 3.8 20.8l.1 1c.7 8.2 1.4 17.1 1 25.7-.1 1.7-.2 3.4-.3 5-.2 3.5-.4 7-.3 10.6-1.5-1.3-3-2.4-4.6-3.1-1.7-.8-3.2-1.4-4.7-2-3.5-1.4-6.6-2.3-9.5-2.8-1-.2-2-.3-3-.4h-.6c.9-2.4 1.3-5.7.9-7.8.7-1.3.5-2.3.2-3l-.3-.6c.1-.3.2-.6.3-1 .4-1.4.8-2.9 1.1-4.3.7-3.4 1.7-6.8 2.6-10.1.1-.3.2-.6.2-.9.6-2.2 1.3-4.5 1.9-6.8 1.2-5 .8-10.5.5-15.8-.1-2-.3-3.8-.3-5.6-.1-5.3-1.8-9.6-3.3-13.7-.7-1.9-1.5-3.9-2.1-6-.2-.7-1-1.1-1.7-.9-.7.2-1.1 1-.9 1.7.6 2.2 1.4 4.2 2.1 6.2 1.6 4.1 3 8 3.2 12.8.1 1.9.2 3.8.3 5.8.4 5.1.7 10.4-.4 15-.6 2.6-1.4 5.1-2.1 7.6-1 3.3-2 6.8-2.7 10.3-.3 1.3-.6 2.7-1 4-2.9-1.4-7.6-2-12.6-2.5-1.2-.1-2.2-.2-2.7-.3-2.4-.5-4.8-1.1-7.2-1.6-5.8-1.4-11.9-2.8-18.1-3.3-.5 0-1-.1-1.4-.1-.5 0-1 0-1.5.1.1-.9.3-1.8.4-2.8.7-4.3 1.3-8.7 1.4-13.3 0-4.1-1-7.4-2.1-10.6-.6-2-1.3-4-1.7-6.2-1.2-6.6 2.6-16.9 7.7-20.8 5.3-4 12.8-4 19.4-4h1.3c.7 0 1.3-.6 1.3-1.3s-.6-1.3-1.3-1.3h-1.3c-7 0-15 0-21 4.6-5.9 4.5-10.1 15.8-8.7 23.4.4 2.4 1.1 4.5 1.8 6.5 1 3.1 2 6.1 2 9.7 0 2.3-.2 4.6-.5 6.8l-.2-.2c-1.8-2-3.5-3.9-4.8-6.1-2.7-4.8-3.1-11-3.4-16.5v-.3c-.9-14.7 9.9-33 22.7-38.2 3.4-1.4 9.7-3.7 15.9-4.1.8-.1 1.5-.1 2.3-.1h.8c2.6.1 4.9.6 6.8 1.5 4.2 2 9.2 9.4 11.5 14.7-.3.2-.4.5-.5.8 0 .3.1.8.4 1.1zm5.1 2.1c1-.3 2-.8 2.9-1.4.2-.1.5-.3.7-.4l.3-.1c3.1-1.8 6.4-3.6 9.4-3.6 2 0 3.8.9 5.5 2.6 3.5 3.8 5.4 9.2 7.2 14.6-.3 0-.7.1-1 .4-3.5 3.3-6.6 5.4-10.8 5.3-2.6-.1-3.8-1.2-5-2.4-.5-.5-1.1-1-1.7-1.5-.8-1.5-1.7-2.9-2.5-4.3-1.5-2.5-3.1-5.2-4.4-7.9-.3-.4-.4-.9-.6-1.3zm-53.7 57h1.2c6 .4 12 1.9 17.7 3.2 2.4.6 4.8 1.1 7.3 1.7.6.1 1.6.2 2.9.4 3 .3 12 1.2 13 3.2-.2.1-.4.2-.5.3-.5.5-.5 1.2-.1 1.8l.2.3c.5 1.2-.2 6-1.4 8-1 1.5-2 1.8-3.3 1.8-.8 0-1.7-.1-2.7-.3-.5-.1-1.1-.2-1.6-.2-7.1-.9-15.4-1.9-23.2-3.3-1.7-.3-3.4-.4-5-.5-5.8-.4-9.1-.9-9.9-5.8-.6-3.4-.9-7.1.7-9 .9-1 2.4-1.6 4.7-1.6zm34.5 23.2c.9.1 1.7.2 2.6.2 2.1 0 3.7-.8 5-2.4h1.8c4.7.4 9.9 2 16.3 5 6.3 3 12 12.2 14.7 20.8-2.1-1.5-4.3-2.7-6.4-3.8-.6-.3-1.2-.6-1.8-1l-3.6-2.1c-4.4-2.6-8.7-5.1-14.7-5.9-3-.4-6-.3-9-.2-3 .1-6.1.2-9-.2-.1 0-.2 0-.4-.1 2-3.1 3.6-6.7 4.5-10.3zm86.3 39.7c-.3.7-.5 1.3-.9 2-.3.7-.7 1.5-1 2.3 0 .1 0 .1-.1.2-6.5 5.6-14.4 9.5-22 9.5-3.2 0-6.3-.7-9.2-2.1-4.5-2.1-7.8-5.2-10.1-9.3-.4-2.8-.8-5.6-1.5-8.4-.6-2.6-1.4-5.2-2.3-7.8.9.7 1.8 1.4 2.6 2.3.3.3.6.4 1 .4.2 0 .4-.1.6-.2.5-.3.8-.9.7-1.5-1.4-6.9-5-15-9.9-20.7-.3-4.4-.1-8.8.2-13.3l.3-5.1c.3-8.8-.3-17.7-1-26.1l-.1-1c-.6-7.2-1.3-14.6-4-21.6-.1-.2-.1-.3-.2-.5 1 .5 2.3.9 3.9 1h.4c5.1 0 8.9-2.8 12.2-6 .8 2.5 1.7 5 2.7 7.3 1.7 3.7 4.2 7 7.3 9.8v.2c.2 5.7 4.7 10.8 8.6 15.3 1.4 1.6 2.8 3.2 3.8 4.6 3.6 5 6 11.2 8.3 17.3.9 2.4 1.8 4.9 2.8 7.2 6.6 15.2 11.8 31 6.9 44.2zm11.9-15.3c-1.6 5.1-4.8 10.3-9 15 4.5-13.8-.8-29.7-7.2-44.8-1-2.3-1.8-4.6-2.8-7.1-2.4-6.2-4.8-12.7-8.6-17.9-1.1-1.5-2.5-3.1-4-4.8-3.1-3.5-6.5-7.4-7.6-11.3 4.8 3.4 10.6 5.7 16.9 6.5.4 0 .8.1 1.2.1.7 2.6 1.9 6 4 7.5.7.5 1.5.8 2.2.8 2.4 6.9 4.8 14.4 7.4 22.8.2.5.3 1.4.6 2.5 1 4.8 1.9 8.5 3.9 9.5.3.2.7.3 1.1.3.1.2.1.4.2.6 1.8 7.1 3.6 14.4 1.7 20.3zm-2.7-39.2c1.2 2.5 2.5 5.2 3.4 7.8.1.4.3.8.5 1.3.5 1.2 1.3 3.2 1.2 4-.1.6-.9 1.5-2 2.1-.8.4-1.7.6-2.1.3-1-.5-2.1-5.7-2.5-7.6-.2-1.1-.4-2-.6-2.7-2.7-8.8-5.2-16.7-7.7-23.9-.2-.6-.9-1-1.5-.9-.5.1-.9 0-1.4-.3-1.2-.8-2.1-2.9-2.8-5.3 3.6-.2 6.9-1.3 10-2.9.3.7.6 1.3.8 1.9.8 1.7 1.4 2.8.4 5.3-.3.7-.5 1.2-.7 1.6-.8 1.7-1 2.4-.5 5.2.4 2 1.2 4.1 2 6 .2.6.5 1.1.7 1.7.8 2.1 1.8 4.3 2.8 6.4zM237 141.5c1.2-1.3 2.4-2.5 3.4-3.3 4.1-3.2 9.3-7.3 14.5-8.8 1.3-.4 2.6-.6 4-.7h1.4c7.8 0 15.3 4 19 6.4 9.1 5.7 15.8 11.6 20 17.4.6.8 1.1 1.7 1.7 2.5 1.7 2.6 3.2 5.3 4.7 8 2.6 4.5 5.2 9.2 8.5 13.2-.6.5-1.3 1-1.9 1.4-5.9 4.4-11.5 8.6-18.7 8.6-.8 0-1.6-.1-2.5-.2-11.2-1.4-20.9-8-25.1-17.2-1.2-2.6-2.1-5.4-3.1-8.4-2-6-4-12.1-8.1-16.5-2.1-2.3-4.6-3.5-7.4-3.5-3.7 0-7.5 2.1-10.7 3.9l-.3.1c-.3.1-.5.3-.8.4-1 .6-2 1.2-2.8 1.2-.2 0-.4 0-.7-.2 1.8-1 3.3-2.7 4.9-4.3zm33.1-45.3c1.2 0 2.4.1 3.5.2 4.1.5 6.6 2.9 9.6 5.7.6.6 1.2 1.2 1.8 1.7 5.1 4.6 12.8 8 19.6 8.6 7.7.7 12-2.3 16.6-7.4 6.6-7.3 13.8-11 21.5-11h.2c-.2.2-.3.5-.3.7 0 .5.2 1.1.7 1.3.1 0 .1.1.2.2s.2.1.2.2c0 .3 0 .6.1.8.1.3.3.6.5.9-.8.6-1.2 1.3-1.4 1.9-1.2 2.9.6 6.7 1.7 8.7-1.7 1-4 2.5-3.9 5 .1 1.1.8 2.7 2 4.9-1 .2-1.6.6-2 1.1-1.1-.4-2.2-.6-3.4-.6-4.2 0-8.3 2.5-11.9 4.7-1.8 1.1-3.5 2.1-5.1 2.8-6.8 2.9-14.5 3.3-23.3 1.2-4.6-1.1-9.9-2.4-14.4-4.8-.9-.5-1.8-1-2.7-1.4-3.2-1.8-6.6-3.6-10.2-4.6-4-1.1-7.8-1.3-11.7-1.5l-1.5-.1c-.9 0-1.9-.2-2.9-.3-1.4-.2-2.8-.3-4.2-.3-1.8 0-3.4.3-4.8.9-1.4.6-2.4 1.4-3.5 2.3-.9.7-1.7 1.3-2.6 1.8-1.3.6-2.4.7-3.8.9-.5.1-1 .1-1.5.2-.8.1-1.6.3-2.4.5-.6.1-1.3.3-2 .4.1-.8 0-1.5-.2-2-.3-.7-.8-1.3-1.2-1.8-.2-.3-.6-.7-.7-.9 0-.1.2-.5.3-.8.3-.6.7-1.5.6-2.5-.1-.4-.2-.8-.5-1.1.1 0 .3 0 .4-.1 3.7-1 7.3-4.5 10.1-7.2.6-.6 1.1-1.1 1.7-1.6.5-.4.9-.9 1.4-1.5.9-1 2-2.1 2.8-2.5 1.1-.5 2.8-.6 4.5-.7.8-.1 1.6-.1 2.4-.2 2.1-.3 4.3-.7 6.4-1.1 4.3-.8 8.9-1.6 13.3-1.6zm-50.1 7.2c-1-.5-1.7-1.1-2.4-1.6.1-.1.3-.1.4-.1 1.8-.4 3.7-.9 5.4-1.5h.2c4.6-1.4 8-3.2 11.1-6.3 3.9-3.7 7.3-8 10.6-12.2 2.3-2.9 4.7-5.9 7.1-8.6l.9-1c2.2-2.4 4.4-4.9 7.2-6.4s5.8-1.6 9-1.6c.7 0 1.4 0 2.1-.1 3.2-.1 6.6-.3 10-.3.6 0 1.3 0 2-.1.8-.1 1.7-.1 2.6-.1-1 .8-2.2 1.4-3.4 2.2-.5.3-.8.8-.7 1.3.1.4.3.8.7 1-.1.2-.1.5-.1.7.1.5.4.9.9 1.1.8.3 1.5.6 2.1.9-1.1 1.4-1.1 2.8-.9 4.3-.3.1-.6.2-.9.5-1.2.9-1.2 2.6-1.3 4v.4c-2.9-.4-5.9-.1-8.6 1-1.4.6-2.9 1.1-4.4 1.6-2.4.8-4.8 1.7-7 2.7-2.3 1-4.4 2.9-6.5 4.6-1.2 1-2.3 2-3.4 2.7-.7.5-1.7 1.1-2.6 1.6-1.4.8-2.6 1.6-3.5 2.3-1.5.1-3 .3-4.2.9-1.3.6-2.6 2-3.7 3.1-.5.5-.9 1-1.3 1.3-.5.5-1.1 1-1.7 1.6-2.6 2.5-5.9 5.7-9 6.6-.4.1-.8.2-1.1.2-.2 0-.3 0-.5-.1-.1-.1-.2-.2-.4-.2-.2-.1-.3-.1-.5-.1-.4-.2-.8-.6-1.4-1-1.2-1.1-2.8-2.4-5.4-2.4h-.1c-3.3 0-6.3.4-9.4 1.1-.1-.6-.2-1.1-.2-1.6l.3.3c.4.5 1 .7 1.6.5.6-.2.9-.8.8-1.4v-.1c3 1.4 6.4 1.7 9.4.9.5-.1.9-.6 1-1.1 0-.7-.3-1.2-.8-1.5zm-45.3 19.7s-.1 0-.1.1l-.3.2c-.6.3-1.3.7-2 1.1-.1-.6-.2-1.3-.3-1.9.2-.2.4-.3.6-.5.7-.6 1.5-1.2 2.2-1.9v2.7c-.2 0-.2.1-.1.2zm-2.8 4.9c.7-1 2.2-1.7 3.5-2.3l.4-.2c1.4-.7 2.9-1.3 4.5-1.8 1.8-.7 3.7-1.4 5.5-2.3 2.2-1.2 4.2-2.7 6.1-4 3-2.2 5.9-4.3 9.6-5.4 5.7-1.7 10.4-2.8 16-2.9 1.7 0 2.6.8 3.7 1.7.7.6 1.4 1.2 2.2 1.6.2.3.4.5.7.8.3.3.8.9.9 1.1 0 .2-.2.5-.3.9-.3.6-.7 1.4-.5 2.3.1 1 .8 1.7 1.4 2.3.3.3.6.6.7.8.1.2.2.7 0 1.5-.9.2-1.6.4-2.3.7-.6.2-1.2.4-1.8.5-.8.1-1.5.2-2.3.2-2.3 0-4.6-.6-6.9-1.2-2.7-.7-5.4-1.5-8.4-1.3-5.6.3-10.5 2.9-15.3 5.5-.7.4-1.4.7-2.1 1.1-1.7.9-3.2 1.9-4.8 2.8-2.5 1.6-4.8 3-7.5 4-.9.3-2.2.5-3.4.5-2 0-3-.5-3.1-.8-.1-.2 0-.9 1.1-2.2l1-1 1.2-1.2c.3-.4.4-.8.5-1.2-.4-.2-.3-.4-.3-.5zm6-6.3c.7-1.3 1.8-2.5 2.9-3.8.4-.5.8-1 1.2-1.4.7 1.3 1.6 2.1 2.7 2.4-.1.1-.2.1-.3.2-1.6.9-3.3 1.5-5.1 2.2-.5 0-.9.2-1.4.4zm10.8-37.8c-.2-.4-.3-1.3-.3-2.1 0-.5-.1-1-.2-1.5-.3-1.5-.6-4.4.4-6.5 1.3-2.9 4.6-5.2 7.7-5.3 5.1-.2 5.7 5.8 5.8 7 .2 3.4-2.9 13.8-6.9 15.7-.7.3-1.7.6-3.1-.7-.4-.3-.9-.4-1.3-.3-.7.5-.9 1.4-.9 1.4-.4 1.1-.7 2.1-.8 2.7-.1.4.1.9.4 1.2.3.3.8.5 1.2.4.2 0 .4 0 .6.1.3 0 .2.3.2.4.3 1.4.2 2.9.2 4.5 0 1.1-.1 2.2 0 3.3 0 .6.4 1 1 1.2.5.2 1.1 0 1.5-.5.3-.5.7-.9 1-1.4.4-.6.8-1.2 1.2-1.7.7 1.1 1.2 2.8 1.5 4.8.1.6.5 1 1.1 1.1h.2c.5 0 .9-.3 1.2-.7.4-.7.8-1.6 1.2-2.5l.3-.6c.9.9 1.8 1.9 2.6 2.8l.1.2c.2.2.4.3.6.4 0 .3.1.6.1.9-1.5.4-3 .8-4.6 1.3-4.1 1.2-7.3 3.6-10.4 5.8l-2.1 1.5c.2-.4.3-.9.5-1.5.8-3.7-1-7.7-2.4-11-.2-.4-.4-.8-.5-1.2-1.2-2.7-1.2-5.1-1.2-8.3V94c0-3.8.2-6.7.8-9.5.3-.1.5-.3.7-.4.1.4.2.8.4 1.2.3.7 1.1 1 1.8.6.5-.6.8-1.4.4-2zm-36.2-63.7c.3.6.5 1.3.8 1.9l.2.4c.2.6.8.9 1.5.9.6-.1 1.1-.6 1.1-1.2.2-3 3.5-8.2 6.5-10.8-.1.5-.3 1.1-.5 1.7-.4.7-.7 1.5-.9 2.2-.1.7.2 1.3.9 1.5.6.2 1.4-.1 1.6-.7.3-.6.6-1.3.8-1.9 2.2-3.2 8.6-5.7 13.4-6-.6.7-1.2 1.6-1.6 2.5-.2.5-.2 1.1.2 1.5.4.4.9.6 1.4.4.6-.2 1.5-.6 2.4-.9 2.8-1.1 6.6-2.7 9.3-2.7.8 0 1.4.1 1.9.4.4.2.5.3.6.4-.1.3-.6.8-.9 1.1-.6.7-1.4 1.6-2 2.7-.2.5-.1 1.1.3 1.5.4.4 1 .5 1.5.3 2-.9 5.4-1.9 8.1-1.9.7 0 1.2.1 1.7.2-.2.2-.5.4-.8.6-.6.5-1.3 1-1.8 1.5-.3.3-.5.8-.4 1.2.1.4.4.8.8 1 16.2 7.1 24.5 15.8 29.6 31.1 5.2 15.6-7.7 35.4-11.8 41.1-2 2.8-3.9 6-3.2 9.2.3 1.5 1.2 2.8 2.6 4.1-2-.1-4-.8-5.8-1.9-.2-.1-.5-.2-.7-.2-.2 0-.5.1-.7.2-.3.2-.5.4-.6.7-.3-.3-.6-.5-.8-.8-.4-.4-.9-.6-1.4-.4-.5.2-.9.6-.9 1.2 0 .1 0 .3-.1.5-.8-.8-1.6-1.7-2.4-2.4-.3-.3-.7-.4-1.1-.3-.4.1-.8.3-1 .7-.2.4-.4.8-.6 1.3-.5-1.3-1.2-2.6-2.1-3.5-.4-.4-1.1-.5-1.7-.2-.5.3-1 .7-1.3 1.1 0-1.9 0-3.8-.7-5.6l-.1-.1h.6c.8 0 1.6-.2 2.2-.5 5.3-2.5 8.7-14.1 8.4-18.3-.1-1.7-.5-3.3-1.2-4.8.4.2.7.4 1.1.6 1.1.6 2.3 1.2 3.6 1.2 1 0 1.7-.4 2.1-.8 1.4-1.5.3-3.8-.8-4.9-1.3-1.5-3.2-2.4-4.8-3.2-.3-.1-.6-.3-.8-.4-3.7-1.9-7.5-2.8-12.2-2.8-2.6 0-5.2.3-7.7.6.1-3 .5-5.9 1.4-8.8.1-.4.1-.8-.2-1.2-.2-.3-.6-.6-1-.6l-.9-.1c-1.5-.1-3.3-.2-4.7-.1.1-.1.2-.2.2-.3.4-.4.5-1 .3-1.5s-.7-.8-1.3-.8c-5.7.1-10 .5-14.8 2.1.3-.5.2-1.2-.2-1.6-.4-.5-1.2-.5-1.7-.2-1.2.8-3.3 1.9-4.6 2.5l-.3-.3c-7.8-6.7-9.4-20.1-4-29.4zm-.8 35.2c.7-1.3 1.5-2.7 2.4-4l.5.5.9.9c.4.4.9.5 1.4.3.5-.2 1.5-.7 2.6-1.3 0 .3.1.6.4.9.4.4 1 .5 1.5.3 5-2 8.9-2.7 14.1-2.9-.2.3-.3.6-.5.9-.3.5-.3 1.1.1 1.6.3.5 1 .6 1.5.5.9-.3 2-.4 3.5-.4.8 0 1.6 0 2.4.1-.7 2.8-1 5.6-1.1 8.4-.3 0-.6.1-.9.1-1 .2-2 .3-2.9.4-6.2.9-12.9 1.1-20 .6-2.5-.2-5.1-.4-7.7-.8.1-2 .5-3.9 1.8-6.1zm5.7 9.6c7.3.5 14.2.3 20.5-.7 1-.1 2-.3 3-.5 3.8-.6 7.3-1.1 10.9-1.1 4.2 0 7.7.8 10.9 2.5.3.1.6.3.9.4 1.5.7 3 1.5 4 2.6.3.3.6.9.7 1.3-.7 0-1.9-.6-2.3-.9-4.1-2.3-7.9-3.3-12-3.4h-.5c-2.4 0-4.8.3-7.1.5-1.4.1-2.8.3-4.1.4-4.2.3-9.8.8-15.2 1.9-.3.1-.7.1-1 .2-1.9.3-4.1.7-5.6 2.8-.9 1.3-1.2 2.8-1.4 4.2-.2 1-.3 1.9-.7 2.7-.5 1.1-1.4 1.7-2.4 1.7-.8 0-1.5-.4-2.1-1.1-1.8-2.1-2.4-5-3.1-7.9-.1-.3-.1-.6-.1-.9-.2-1.4-.5-3.3-2.2-4.2-.4-.2-.7-.3-1.2-.4 0-.1-.1-.3-.2-.8v-.4c3.5.5 7 .9 10.3 1.1zm-9 20.1c-2.2-1.7-3.5-2.8-3.2-4.9.1-.4 1.1-1.5 1.7-2.2.8-.9 1.6-1.8 2-2.6.1-.1.1-.2.2-.4.6 1.8 1.4 3.7 2.7 5.2 1.1 1.3 2.6 2 4.2 2 2 0 3.8-1.2 4.8-3.2.5-1.1.7-2.3.9-3.4.2-1.2.4-2.3 1-3.1.8-1.1 2.2-1.4 3.8-1.6.4-.1.8-.1 1.1-.2 4.8-1 9.7-1.4 13.6-1.7-.9 2-1.5 4-2.1 6.1-.5 1.8-1 3.6-1.8 5.5l-1.5 3.6c-1.4 3.3-2.8 6.8-4 10.1l-.1.2c-1.7 4.6-3.2 8.6-7.5 10.3-5 1.9-8.4.8-12-3.7l-.1-.1c.6-1.6 1.3-3.2 2.1-4.5.2-.4.2-.8.1-1.2-.2-.4-.5-.7-.9-.8-.4-.1-.8-.1-1.2-.2 1.6-4.9-1.5-7.4-3.8-9.2zm17.9 34.8c-3 3.1-7.4 4.6-11.8 5.9.3-.8.4-1.7.5-2.4 0-.4-.2-.8-.5-1.1-.3-.3-.8-.4-1.2-.2-.7.2-1.4.4-2.1.7-2.2.7-4.2 1.3-6.2 1.1 3.1-3.4 4.9-7.7 5.3-12.2.1-1.3.1-2.3.1-3.3 0-1.9 0-3 .8-4.5 4 4.3 8.3 5.3 13.9 3.2 5.5-2.1 7.4-7.1 9.1-11.9l.1-.2c1.2-3.3 2.6-6.7 4-10l1.5-3.6c.8-2 1.4-3.9 1.9-5.8.7-2.4 1.4-4.8 2.7-7.1.8-.1 1.6-.2 2.4-.2.4 0 .7-.1 1.1-.1-1.9 3.9-3.6 8.8-4.8 13.9-.8 3.4-1.2 7-1.2 11.6v.8c0 3.3 0 6.2 1.4 9.4.2.4.4.8.6 1.3 1.3 2.9 2.9 6.5 2.3 9.3-.3 1.1-.6 1.5-.6 1.6-.3-.1-1.1-.9-1.5-2.8-.1-.5-.5-.9-1.1-1-.5-.1-1.1.1-1.4.6-.7 1.1-1.6 2.1-2.5 3.2l-1.5 1.8c0-.4 0-.8-.1-1.2 0-.6-.4-1-.9-1.2-.5-.2-1.1 0-1.4.4-1.2 1.4-2.6 2.6-4.1 3.9-.8.6-1.5 1.3-2.3 2 .1-.3.1-.5.2-.8.1-.6-.2-1.2-.7-1.4-.9-.2-1.6-.1-2 .3zm1.2 24.9c1.6-2.7 3.5-5.1 5.4-7.5 1-.1 1.9-.3 2.7-.6 2.9-1.1 5.5-2.7 7.9-4.2 1.5-.9 3-1.9 4.6-2.7.7-.4 1.4-.7 2.1-1.1 4.5-2.4 9.2-4.9 14.2-5.1 2.6-.1 5 .5 7.6 1.2 2.4.7 4.9 1.3 7.6 1.3 1 0 1.9-.1 2.8-.3.8-.2 1.5-.4 2.1-.6.7-.2 1.4-.5 2.2-.6h.3c.2 0 .4-.1.6-.2.2 0 .4 0 .6-.1.2.3.4.5.7.9 2.4 3.3 4.5 7.9 6 12.8.1.4.3.9.4 1.3l-.3.3c-1.2 1.2-2.4 2.5-3.5 3.4-2.5-5.5-7.6-13.3-12.7-15.7-2.4-1.2-5.4-1.7-8.8-1.7-7.3 0-15.2 2.8-19.2 4.4-13.7 5.6-25.3 25.1-24.4 40.9v.3c.3 5.8.7 12.4 3.8 17.7 1.4 2.4 3.3 4.5 5.1 6.5.6.6 1.2 1.3 1.7 1.9-.1.9-.3 1.7-.4 2.6l-.6 3.9c-1 .4-1.8 1-2.4 1.7-2.3 2.7-2 6.9-1.3 11.1.5 3.3 2.1 5.2 4.1 6.3v.1c0 .1.1.2.1.3-.5.3-1 .7-1.5 1.1-2.7-1.5-5.1-7.3-6.3-10.3-.2-.5-.4-.9-.5-1.3-5.4-12.9-5.9-27.6-5.9-40.3v-2.9c.1-9.5.1-16.4 5.2-24.8zm5.5 81.4c-.6.6-1.3 1.1-1.9 1.7-.1-1.3-.3-2.8-.5-4.3.7 1.1 1.5 1.9 2.4 2.6zm-17.3-60.1c1.4-4.1 3.1-7.6 4.9-10.7-.8 4.5-.8 9.1-.8 14.3v2.9c0 14 .7 28.6 6.1 41.4.1.4.3.8.5 1.2V215.5c.9 3.6 1.8 10 2.1 13.8 0 .3.2.6.4.9-3.2 3.3-6 7-8.6 10.4-.9-5.5-2-11.1-3.1-16.6-3.9-19.3-8-39.1-1.5-57.9zM114 271.3c2 0 4.1.6 6.3 1.2 1.7.5 3.4 1 5.1 1.2-.5.3-1.1.5-1.6.7-2.2.8-4.9.3-7.7-.2-2.3-.4-4.6-.8-6.9-.6 1.2-1.5 2.3-2.3 4.8-2.3zM97.2 293c-1-2.9.5-4.8 2.9-7.7.6-.7 1.2-1.4 1.7-2.1.8-1 1.4-2 1.9-2.9 1.5-2.4 2.4-3.8 5.5-4.1 2-.2 4.1.2 6.4.6 3.1.6 6.2 1.1 9.1.1 4.2-1.5 8.3-5.1 12-8.3 1-.9 1.9-1.7 2.8-2.4 6.5-5.4 14-12 20.3-20.4l.2-.3c5-6.8 12.1-16.4 20.3-21.2 1.5.3 3 .4 4.4.5 1.6.1 3.2.2 4.7.5a429 429 0 0 0 22.8 3.2c-1.5 6.2-5.7 12.7-7.9 15.7-4.6 6.3-12.2 10.8-19.6 15.1-1.9 1.1-3.7 2.1-5.4 3.2-.1 0-.2-.1-.3-.1-.6 0-1.2.5-1.3 1.1-.3.2-.7.4-1 .6-2.3 1.5-4.8 2.9-7.3 4.2-3.2 1.7-6.5 3.4-9.4 5.7-4.8 3.6-9.7 6.8-15.2 10.2-1.6 1-3.2 2.2-4.8 3.3-4.7 3.4-9.2 6.6-13.9 6.7 0-1.8-.7-3.3-2-4.3-2.2-3.1-5.8-5.1-9.9-5.1-6.7 0-12.2 5.5-12.2 12.2 0 .8.1 1.6.2 2.3-2-1.7-4.1-3.4-5-6.3zm8 13.5c.8.6 1.8 1 3.2 1.1.5.3 1 .5 1.5.7l-20.5 93.1-4.8-1.1 20.6-93.8zm-26 97.9c.2-1.1 1.3-1.9 2.4-1.9.2 0 .4 0 .5.1l8.5 1.9c1.3.3 2.2 1.6 1.9 2.9L68.6 515.7l-12.8-2.8c-.2 0-.3-.1-.5-.1l23.9-108.4zM42.9 550.6c.4-1.7 1.9-2.9 3.6-2.9.3 0 .5 0 .8.1l14.1 3.1c2 .4 3.2 2.4 2.8 4.3l-12 41.1c-.4 1.9-2.4 3.2-4.4 2.8l-8.9-2c-1-.2-1.8-.8-2.3-1.6-.5-.8-.7-1.8-.5-2.8l6.8-42.1zm5.3-5.4l2.8-12.5c.2.1.4.1.7.2l12.6 2.8-2.8 12.5-13.3-3zm3.9 55.3c1.3-.9 2.2-2.2 2.5-3.7l.1-.3 6 9.3c-1.2.9-2.4 1.7-3.7 2.4l-4.9-7.7zm.1 8c-1.3.4-2.7.6-4.1.7l1.2-5.3 2.9 4.6zm7.9-11.4l5.2 1.2c-.7 1.2-1.5 2.3-2.4 3.4l-2.8-4.6zm-4-5.2l1.2-4.2 12.1 2.7c-.1.7-.2 1.4-.4 2.2l-.6 2.1-12.3-2.8zm6.7-7.3l4.5-2.9c.4 1.3.6 2.7.7 4.1l-5.2-1.2zm-3.8-2.5l1.9-6.4 3.9-2.5c.4.6.9 1.2 1.3 1.8.4.6.8 1.3 1.1 1.9l-8.2 5.2zm-13.3 19.2l-2.1 9.4c-.7-.1-1.4-.2-2.2-.4l-2.1-.6 2.1-9.4 4.3 1zM32.8 578l-5.2-1.2c.7-1.2 1.5-2.3 2.4-3.4l2.8 4.6zm-.6-8.7c1.2-.9 2.4-1.7 3.7-2.4l1.3 2.1-1.1 6.5-3.9-6.2zm2.7 13.5l-.7 4.3-10.8-2.4c.1-.7.2-1.4.4-2.2l.6-2.1 10.5 2.4zm-4.9 7.7l-4.5 2.9c-.4-1.3-.6-2.7-.7-4.1l5.2 1.2zm3.3 2.9c0 1.2.3 2.4 1 3.5.2.3.4.5.6.7l-6.7 4.3c-.9-1.2-1.7-2.4-2.4-3.7l7.5-4.8zm3.6 7.8l-1.2 5.3c-1.2-.7-2.3-1.5-3.4-2.4l4.6-2.9zm29.5-44.5c12.5 8.1 19.3 23.4 15.9 38.7-3.7 16.7-18.8 28.9-35.9 28.9-2.7 0-5.3-.3-7.9-.9-9.6-2.1-17.8-7.8-23.1-16.1-5.3-8.3-7-18.1-4.9-27.7 3.2-14.6 15.1-25.7 29.5-28.3L38.1 563c-8.4 2.9-15 10-17 19-3.1 14 5.8 27.8 19.7 30.9 1.8.4 3.7.6 5.6.6 12.1 0 22.7-8.6 25.3-20.4 1.5-6.8.3-13.7-3.5-19.5-1.4-2.2-3.1-4.2-5.1-5.8l3.3-11.1zm-14.2-26.4c-2.6-.6-4.3-3.2-3.7-5.9l.9-5.1c.5-2.2 2.5-3.9 4.8-3.9.4 0 .7 0 1.1.1l13.9 3.1c2.6.6 4.3 3.2 3.7 5.9l-.9 5.1c-.5 2.2-2.5 3.9-4.8 3.9-.4 0-.7 0-1.1-.1l-13.9-3.1zm14.7 5.9v-.1h.3c3.5 0 6.7-2.5 7.4-6l.6-3.4 51 44.6c-3.5 2.6-5.9 6.8-6.2 11.4l-53.1-46.5zm68.4 60c-7 0-12.7-5.7-12.7-12.6s5.7-12.7 12.7-12.7c7 0 12.6 5.7 12.6 12.7s-5.6 12.6-12.6 12.6zm177.3-45.4c2.7 0 5.3.3 7.9.9 9.6 2.1 17.8 7.8 23.1 16.1 5.3 8.3 7 18.1 4.9 27.7-3.7 16.7-18.8 28.9-35.9 28.9-2.7 0-5.3-.3-7.9-.9-9.6-2.1-17.8-7.8-23.1-16.1-2.1-3.3-3.7-6.9-4.6-10.7h11.4c3 7.9 9.8 14.2 18.7 16.2 1.8.4 3.7.6 5.6.6 12.1 0 22.7-8.6 25.3-20.4 1.5-6.8.3-13.7-3.5-19.5a25.875 25.875 0 0 0-21.9-12c-11.1 0-21 7.3-24.5 17.6h-11.3c3.9-16.5 18.8-28.4 35.8-28.4zm-18.3 51.1c-.9-1.2-1.7-2.4-2.4-3.7l2.3-1.5h8.1l-8 5.2zm8.8-.7l-1.2 5.3c-1.2-.7-2.3-1.5-3.4-2.4l4.6-2.9zm2.4 8.5l2.9-13h4.5l-3.1 13.9c-.7-.1-1.4-.2-2.2-.4-.7-.1-1.4-.3-2.1-.5zm25.4-36.4c.4.6.9 1.2 1.3 1.8.4.6.8 1.3 1.1 1.9l-11.3 7.2c-.6-1.4-1.5-2.6-2.7-3.5l11.6-7.4zm-14.2 6.1c-.5-.1-1.1-.2-1.6-.2h-2.8l3.2-14.7c.7.1 1.4.2 2.2.4l2.1.6-3.1 13.9zm5.5-5.5l1.2-5.3c1.2.7 2.3 1.5 3.4 2.4l-4.6 2.9zm-.2 18c.5-1.2.8-2.5.8-3.9v-.4l12.9 2.8c-.1.7-.2 1.4-.4 2.2l-.6 2.1-12.7-2.8zm9.5 6.3c-.7 1.2-1.5 2.3-2.4 3.4l-2.9-4.5 5.3 1.1zm-2.5-13.6l4.5-2.9c.4 1.3.6 2.7.7 4.1l-5.2-1.2zm-2.1 21.2c-1.2.9-2.4 1.7-3.7 2.4l-7.4-11.5c1.5-.2 2.9-.8 4-1.9l7.1 11zm-8.5 2.7c-1.3.4-2.7.6-4.1.7l1.2-5.3 2.9 4.6zm-20.1-39.2c1.2-.9 2.4-1.7 3.7-2.4l7.5 11.8-.1.5h-4.8l-6.3-9.9zm.5 8.4h-1.2l-3.9-.9c.7-1.2 1.5-2.3 2.4-3.4l2.7 4.3zm8-11.1c1.3-.4 2.7-.6 4.1-.7l-1.2 5.3-2.9-4.6zm8.3 15.3c2.8 0 5 2.7 5 6s-2.3 6-5 6H146.5c2.6-2.7 4.1-6.4 4.1-10.4 0-.6 0-1.1-.1-1.7h164.6zm-47-5.6c-.2 1-.4 1.9-.5 2.9h-9.2c.2-1.2.4-2.3.6-3.5 5.5-25 28-43.1 53.6-43.1 4 0 8 .4 11.9 1.3.4.1.9.2 1.3.3l-12.9 5.5c-21.8.4-40.1 15.4-44.8 36.6z"/></symbol><symbol viewBox="0 0 51 47.7" id="double_arrow" xmlns="http://www.w3.org/2000/svg"><path class="dst0" d="M32 8H21.9l15 17.4-15 17.3H32l15.1-17.3z"/><path class="dst0" d="M17.7 8H7.5l15.1 17.4L7.5 42.7h10.2l15-17.3z"/></symbol><symbol viewBox="0 0 330 166" id="leftbuble" xmlns="http://www.w3.org/2000/svg"><defs><style>.ecls-1{fill:#ffc12a;fill-rule:evenodd}</style></defs><path id="eleftbuble.svg" class="ecls-1" d="M916 287h-17.614L891 311l-29.725-24H646a30 30 0 0 1-30-30v-82a30 30 0 0 1 30-30h270a30 30 0 0 1 30 30v82a30 30 0 0 1-30 30z" transform="translate(-616 -145)"/></symbol><symbol viewBox="0 0 31.2 47" id="lock" xmlns="http://www.w3.org/2000/svg"><path d="M15.6 47C7 47 0 40 0 31.4c0-5.2 2.6-10 6.9-12.9 2.6-1.7 5.6-2.6 8.6-2.6 3.1 0 6.1.9 8.6 2.6 4.3 2.9 6.9 7.7 6.9 12.9C31.2 40 24.2 47 15.6 47zm0-30.1c-2.9 0-5.7.8-8.1 2.4C3.4 22 1 26.5 1 31.4 1 39.4 7.5 46 15.6 46c8 0 14.6-6.5 14.6-14.6 0-4.9-2.4-9.4-6.5-12.1-2.4-1.6-5.2-2.4-8.1-2.4z"/><path d="M15.6 38C12 38 9 35.1 9 31.4c0-2.2 1.1-4.2 2.9-5.5.8-.5 2-1.1 3.6-1.1s2.9.6 3.7 1.1c1.8 1.2 2.9 3.3 2.9 5.5.1 3.6-2.8 6.6-6.5 6.6zm0-12.1c-1.4 0-2.4.5-3.1.9-1.6 1-2.5 2.8-2.5 4.6 0 3.1 2.5 5.6 5.6 5.6s5.6-2.5 5.6-5.6c0-1.9-.9-3.6-2.5-4.6-.6-.4-1.7-.9-3.1-.9zM7.3 19.4c-.1 0-.2 0-.2-.1-.2-.1-.3-.3-.3-.4V6.5C6.8 2.9 9.7 0 13.3 0H18c3.6 0 6.5 2.9 6.5 6.5v12.4c0 .2-.1.4-.3.4-.2.1-.4.1-.5 0-2.4-1.6-5.2-2.4-8.1-2.4s-5.7.8-8.1 2.4c0 .1-.1.1-.2.1zm6-18.4c-3 0-5.5 2.5-5.5 5.5V18c2.4-1.4 5.1-2.1 7.9-2.1s5.5.7 7.9 2.1V6.5c0-3-2.5-5.5-5.5-5.5h-4.8z"/><path d="M15.7 19.9c-.3 0-.5-.2-.5-.5v-3c0-.3.2-.5.5-.5s.5.2.5.5v3c0 .2-.3.5-.5.5zM15.7 47c-.3 0-.5-.2-.5-.5v-3c0-.3.2-.5.5-.5s.5.2.5.5v3c0 .3-.3.5-.5.5zM24.2 23.4c-.1 0-.3 0-.4-.1-.2-.2-.2-.5 0-.7l2.1-2.1c.2-.2.5-.2.7 0s.2.5 0 .7l-2.1 2.1c-.1 0-.2.1-.3.1zM5 42.6c-.1 0-.3 0-.4-.1-.2-.2-.2-.5 0-.7l2.1-2.1c.2-.2.5-.2.7 0 .2.2.2.5 0 .7l-2 2c-.1.1-.3.2-.4.2zM30.7 31.9h-3c-.3 0-.5-.2-.5-.5s.2-.5.5-.5h3c.3 0 .5.2.5.5s-.2.5-.5.5zM3.6 31.9h-3c-.3 0-.5-.2-.5-.5s.2-.5.5-.5h3c.3 0 .5.2.5.5s-.2.5-.5.5zM26.3 42.6c-.1 0-.3 0-.4-.1l-2.1-2.1c-.2-.2-.2-.5 0-.7.2-.2.5-.2.7 0l2.1 2.1c.2.2.2.5 0 .7 0 0-.2.1-.3.1zM7.1 23.4c-.1 0-.3 0-.4-.1l-2.1-2.2c-.2-.2-.2-.5 0-.7s.5-.2.7 0l2.1 2.1c.2.2.2.5 0 .7 0 .1-.2.2-.3.2z"/></symbol><symbol viewBox="0 0 271.3 56.9" id="logo" xmlns="http://www.w3.org/2000/svg"><path class="gst0" d="M138.4 51.4c-.7-.3-1.7-.1-2 .6-.4.7-.1 1.6.6 2 .7.4 1.4.7 2.1 1 2.9 1.2 6.1 1.8 9.5 1.8 6.9 0 12.8-2.5 17.5-7.3 4.8-4.7 7.3-10.6 7.3-17.5s-2.4-12.8-7.2-17.5c-4.8-4.8-10.7-7.3-17.5-7.3-3.5 0-6.9.7-10.1 2.1-.7.3-1.6.6-2.1 1.3-.3.4-.4 1-.2 1.5.3.6.9.9 1.5.8.7 0 1.3-.5 1.9-.8 1.5-.7 3.2-1.2 4.9-1.5 1.3-.2 2.7-.4 4.1-.4 6 0 11.1 2.1 15.3 6.4 4.3 4.1 6.3 9.2 6.3 15.3 0 6.2-2.1 11.2-6.4 15.3-4.2 4.3-9.2 6.4-15.3 6.4-3 0-5.9-.5-8.4-1.6M23.7 32.3C21.5 30.7 18.3 30 14 30c-1.8 0-3.3-.1-4.6-.4-1.3-.3-2.3-.7-3-1.2-.5-.4-.9-.8-1.3-1.1-.4-.4-.6-.7-.8-1-.2-.4-.3-1.1-.3-2.2v-.5c0-.3.1-.6.3-.9.2-.3.4-.7.7-1.1.9-1.2 2.2-2.1 3.7-2.7 1.5-.6 3.4-.9 5.5-.9 3 0 5.6.9 7.8 2.7h-.1c.3.3.7.5 1.3.5.6-.1 1.1-.3 1.4-.6.3-.3.4-.7.4-1.3 0-.3-.1-.6-.2-.8-.1-.2-.3-.4-.5-.5-2.9-2.4-6.2-3.6-10.1-3.6-5.5 0-9.6 1.7-12.1 5.1-1 1.3-1.6 2.7-1.7 4v.9c0 .8.1 1.4.2 2 .1.6.2 1.1.4 1.5.3.6.7 1.2 1.3 1.8.6.6 1.2 1.2 2 1.8 1.1.7 2.4 1.3 4 1.7 1.6.4 3.5.6 5.6.6 3.6 0 6.1.5 7.6 1.5 1 .8 1.7 1.5 2.1 2.1.3.5.4 1.2.3 1.9v.5c0 .2 0 .4-.1.6v.2c0 .3-.1.5-.3.9-.2.3-.4.7-.7 1.1-1.9 2.4-5 3.6-9.3 3.6-1 0-2.1-.1-3.1-.4-1-.3-2-.6-2.9-1.1-1.8-1-3.2-2.4-4.1-4.1-.3-.4-.7-.7-1.1-.9l-.5-.1c-.3 0-.6.1-.9.3-.3.2-.4.3-.6.5L0 41v.4c0 .3.1.6.3.9 1.4 2.4 3.2 4.2 5.6 5.6 2.4 1.3 5 2 7.8 2 5.6 0 9.7-1.7 12.2-5 1-1.4 1.6-2.7 1.7-4v-.7-.7c0-1.6-.3-2.8-.8-3.8-.6-1.3-1.6-2.3-3.1-3.4zM48.9 14.3c-4.9 0-9.1 1.7-12.6 5.2-1.7 1.8-3 3.7-3.9 5.8-.9 2.1-1.3 4.3-1.3 6.8 0 4.9 1.7 9.1 5.2 12.6s7.7 5.2 12.6 5.2c3.3 0 6.4-.9 9.2-2.6.9-.6 1.8-1.3 2.6-2s1.6-1.5 2.2-2.4V48c0 .5.2.9.5 1.4.4.3.8.5 1.3.5.3 0 .5 0 .7-.1l.6-.3c.3-.4.5-.8.5-1.4v-16c0-4.8-1.7-9-5.2-12.5-3.3-3.5-7.5-5.3-12.4-5.3zM58.8 42c-2.8 2.8-6.1 4.1-9.9 4.1-3.9 0-7.2-1.4-10-4.1-2.8-2.8-4.1-6.1-4.1-10 0-3.8 1.4-7.1 4.1-9.9 2.8-2.8 6.1-4.1 10-4.1 3.8 0 7.1 1.4 9.9 4.1 2.8 2.8 4.1 6.1 4.1 9.9.1 3.9-1.3 7.2-4.1 10zM112.4 14.2c-1.5 0-2.9.2-4.2.6-1.3.4-2.6 1-3.9 1.9-.9.7-1.8 1.4-2.5 2.2-.7.8-1.4 1.6-1.9 2.6-1-1.9-2.5-3.5-4.4-4.8-1.3-.8-2.6-1.4-3.9-1.9-1.3-.4-2.7-.6-4.2-.6-4 0-7.3 1.4-10.1 4.1-2.8 2.7-4.2 6.1-4.3 10V48c0 .5.2.9.5 1.2.2.2.4.3.6.4.2.1.4.1.7.1.5 0 .9-.2 1.4-.5.1-.2.3-.3.3-.6.1-.2.1-.5.1-.7V28.6c0-2.9 1.1-5.5 3.2-7.6 2.1-2.1 4.6-3.1 7.5-3.1 2.9 0 5.5 1 7.6 3.1 2.1 2.1 3.1 4.6 3.1 7.6V48c0 .5.2 1 .6 1.3h-.1c.4.3.8.5 1.3.5s.9-.2 1.3-.5c.1-.2.3-.3.3-.6.1-.2.1-.5.1-.7V28.6c0-2.9 1.1-5.5 3.2-7.6 2.1-2.1 4.6-3.1 7.6-3.1 2.9 0 5.4 1 7.5 3.1 2.1 2.1 3.2 4.7 3.2 7.6V48c0 .3.1.5.2.7.1.2.2.4.4.6.4.3.8.5 1.3.5s.9-.2 1.3-.5h-.1c.4-.3.6-.8.6-1.3V28.6c0-4-1.4-7.4-4.2-10.1-2.7-2.9-6.1-4.3-10.1-4.3z"/><path class="gst0" d="M148.4 14.2c-4.9 0-9.1 1.7-12.5 5.2-3.5 3.4-5.2 7.5-5.2 12.5s1.7 9.1 5.2 12.5c1.7 1.8 3.6 3.1 5.7 3.9 2.1.9 4.3 1.3 6.8 1.3 5 0 9.1-1.7 12.5-5.2 3.5-3.4 5.2-7.5 5.2-12.5s-1.7-9.1-5.2-12.5c-3.5-3.4-7.6-5.2-12.5-5.2zm9.8 27.7c-2.7 2.8-6 4.1-9.9 4.1-3.9 0-7.2-1.4-9.9-4.1-2.8-2.7-4.1-6-4.1-9.9 0-3.8 1.4-7.1 4.1-9.9 2.7-2.8 6-4.2 9.9-4.2 3.8 0 7.1 1.4 9.9 4.2 2.8 2.8 4.2 6 4.2 9.9 0 3.8-1.4 7.1-4.2 9.9zM205.4 42.4h-.3c-.4 0-.8.1-1.1.4-2.6 2.1-5.5 3.1-8.8 3.1-3.9 0-7.2-1.4-9.9-4.1-2.8-2.7-4.2-6-4.2-9.9 0-3.9 1.4-7.2 4.2-10 2.7-2.7 6-4.1 9.9-4.1 3.2 0 6.1 1 8.7 3.1.3.2.7.3 1.1.3h.3c.3 0 .5-.1.7-.2.2-.1.4-.3.6-.5.3-.3.4-.7.4-1.2 0-.3-.1-.6-.2-.9-.1-.2-.3-.4-.5-.5-3.2-2.6-6.9-3.9-11-3.9-4.9 0-9.1 1.7-12.5 5.2-3.5 3.4-5.2 7.6-5.2 12.5 0 4.8 1.7 9 5.2 12.5 3.4 3.4 7.6 5.2 12.5 5.2 4.2 0 7.9-1.3 11.1-4 .4-.3.6-.7.7-1.3 0-.6-.2-1.1-.5-1.4-.3 0-.7-.2-1.2-.3zM229 14.3c-4.9 0-9.1 1.7-12.6 5.2-1.7 1.8-3 3.7-3.9 5.8-.9 2.1-1.3 4.3-1.3 6.8 0 4.9 1.7 9.1 5.2 12.6s7.7 5.2 12.6 5.2c3.3 0 6.4-.9 9.2-2.6.9-.6 1.8-1.3 2.6-2s1.6-1.5 2.2-2.4V48c0 .5.2.9.5 1.4.4.3.8.5 1.3.5.3 0 .5 0 .7-.1l.6-.3c.3-.4.5-.8.5-1.4v-16c0-4.8-1.7-9-5.2-12.5-3.4-3.5-7.6-5.3-12.4-5.3zm9.9 27.7c-2.8 2.8-6.1 4.1-9.9 4.1-3.9 0-7.2-1.4-10-4.1-2.8-2.8-4.1-6.1-4.1-10 0-3.8 1.4-7.1 4.1-9.9 2.8-2.8 6.1-4.1 10-4.1 3.8 0 7.1 1.4 9.9 4.1 2.8 2.8 4.1 6.1 4.1 9.9 0 3.9-1.4 7.2-4.1 10zM270.8 46.6c-.3-.3-.8-.5-1.4-.5-3.9 0-7.3-1.4-10.2-4.3-1.4-1.4-2.5-2.9-3.2-4.6-.7-1.7-1.1-3.5-1.1-5.6V17.9h11.5c.6 0 1-.2 1.4-.5.4-.3.6-.8.6-1.4 0-.5-.2-1-.6-1.3-.3-.3-.8-.5-1.4-.5h-11.5V1.9c0-.3 0-.6-.1-.8-.1-.2-.2-.4-.4-.6-.2-.2-.4-.3-.6-.4-.3-.1-.5-.1-.8-.1-.6 0-1 .2-1.4.5-.4.4-.6.8-.6 1.4v30c.1 5 2 9.2 5.5 12.6 3.6 3.5 7.8 5.2 12.8 5.2.6 0 1-.2 1.4-.5.3-.4.5-.8.5-1.4 0-.3 0-.6-.1-.8 0 0-.2-.2-.3-.4z"/></symbol><symbol viewBox="0 0 155.1 155.1" id="logo_fb" xmlns="http://www.w3.org/2000/svg"><path class="hst0" d="M89.6 155.1V84.4h23.7l3.6-27.6H89.6V39.2c0-8 2.2-13.4 13.7-13.4h14.6V1.1C115.3.8 106.7 0 96.6 0 75.5 0 61.1 12.9 61.1 36.5v20.3H37.3v27.6h23.8v70.8h28.5z"/></symbol><symbol viewBox="0 0 512 512" id="logo_ig" xmlns="http://www.w3.org/2000/svg"><path d="M256 49.5c67.3 0 75.2.3 101.8 1.5 24.6 1.1 37.9 5.2 46.8 8.7 11.8 4.6 20.2 10 29 18.8s14.3 17.2 18.8 29c3.4 8.9 7.6 22.2 8.7 46.8 1.2 26.6 1.5 34.5 1.5 101.8s-.3 75.2-1.5 101.8c-1.1 24.6-5.2 37.9-8.7 46.8-4.6 11.8-10 20.2-18.8 29s-17.2 14.3-29 18.8c-8.9 3.4-22.2 7.6-46.8 8.7-26.6 1.2-34.5 1.5-101.8 1.5s-75.2-.3-101.8-1.5c-24.6-1.1-37.9-5.2-46.8-8.7-11.8-4.6-20.2-10-29-18.8s-14.3-17.2-18.8-29c-3.4-8.9-7.6-22.2-8.7-46.8-1.2-26.6-1.5-34.5-1.5-101.8s.3-75.2 1.5-101.8c1.1-24.6 5.2-37.9 8.7-46.8 4.6-11.8 10-20.2 18.8-29s17.2-14.3 29-18.8c8.9-3.4 22.2-7.6 46.8-8.7 26.6-1.3 34.5-1.5 101.8-1.5m0-45.4c-68.4 0-77 .3-103.9 1.5C125.3 6.8 107 11.1 91 17.3c-16.6 6.4-30.6 15.1-44.6 29.1-14 14-22.6 28.1-29.1 44.6-6.2 16-10.5 34.3-11.7 61.2C4.4 179 4.1 187.6 4.1 256s.3 77 1.5 103.9c1.2 26.8 5.5 45.1 11.7 61.2 6.4 16.6 15.1 30.6 29.1 44.6 14 14 28.1 22.6 44.6 29.1 16 6.2 34.3 10.5 61.2 11.7 26.9 1.2 35.4 1.5 103.9 1.5s77-.3 103.9-1.5c26.8-1.2 45.1-5.5 61.2-11.7 16.6-6.4 30.6-15.1 44.6-29.1 14-14 22.6-28.1 29.1-44.6 6.2-16 10.5-34.3 11.7-61.2 1.2-26.9 1.5-35.4 1.5-103.9s-.3-77-1.5-103.9c-1.2-26.8-5.5-45.1-11.7-61.2-6.4-16.6-15.1-30.6-29.1-44.6-14-14-28.1-22.6-44.6-29.1-16-6.2-34.3-10.5-61.2-11.7-27-1.1-35.6-1.4-104-1.4z"/><path d="M256 126.6c-71.4 0-129.4 57.9-129.4 129.4s58 129.4 129.4 129.4 129.4-58 129.4-129.4-58-129.4-129.4-129.4zm0 213.4c-46.4 0-84-37.6-84-84s37.6-84 84-84 84 37.6 84 84-37.6 84-84 84z"/><circle cx="390.5" cy="121.5" r="30.2"/></symbol><symbol id="logo_rechi" viewBox="0 0 472.1 389.6" xmlns="http://www.w3.org/2000/svg"><style>.jst0{fill-rule:evenodd;clip-rule:evenodd}</style><path class="jst0" d="M80.1 77h77.1V0H80.1v77zM0 0h77.1v77.1L0 0zM159.7 77h77.1V0h-77.1v77zM239.1 77h77.1V0h-77.1v77zM317.9 0L395 77.1h-77.1V0zM317.9 156.2H395v-77h-77.1v77zM240.9 235H318v-77h-77.1v77zM317.9 312.5H395v-77.1h-77.1v77.1zM395 312.5h77.1v77.1H395v-77.1zM80.1 391h77.1v-77H80.1v77zM1.2 314h77.1v77L1.2 314zM157.2 313.9h77.1v-77h-77.1v77zM1.2 312h77.1v-77H1.2v77zM1.2 233.2h77.1v-77.1H1.2v77.1z"/></symbol><symbol viewBox="0 0 129 76" id="logo_vk" xmlns="http://www.w3.org/2000/svg"><path class="kst0" d="M125.2 5.1c.9-3 0-5.1-4.2-5.1h-14c-3.6 0-5.2 1.9-6.1 4 0 0-7.1 17.4-17.2 28.6-3.3 3.3-4.7 4.3-6.5 4.3-.9 0-2.2-1-2.2-4V5.1C75 1.6 74 0 71 0H49c-2.2 0-3.6 1.7-3.6 3.2 0 3.4 5 4.2 5.6 13.6v20.6c0 4.5-.8 5.3-2.6 5.3-4.7 0-16.3-17.4-23.1-37.4C23.9 1.6 22.6 0 19 0H5C1 0 .2 1.9.2 4c0 3.7 4.7 22.1 22.1 46.4C33.9 67 50.2 76 65 76c8.9 0 10-2 10-5.4V58c0-4 .8-4.8 3.7-4.8 2.1 0 5.6 1 13.9 9C102.1 71.7 103.7 76 109 76h14c4 0 6-2 4.8-5.9-1.3-3.9-5.8-9.6-11.8-16.4-3.3-3.9-8.2-8-9.6-10.1-2.1-2.7-1.5-3.9 0-6.2 0-.1 17.1-24.1 18.8-32.3z"/></symbol><symbol viewBox="0 0 91 103" id="mappoint4" xmlns="http://www.w3.org/2000/svg"><defs><style>.lcls-1{fill:#ffbb10;fill-rule:evenodd}</style></defs><path id="lmappoint4" class="lcls-1" d="M62.446 86.084a26.321 26.321 0 0 0-15.428 15.843h-.047a1.534 1.534 0 0 1-2.95-.084h-.063a26.316 26.316 0 0 0-15.749-15.888 44.625 44.625 0 1 1 34.237.129z"/></symbol><symbol viewBox="0 0 46 52" id="mappoint9" xmlns="http://www.w3.org/2000/svg"><defs><style>.mcls-1{fill:#ffbb10;fill-rule:evenodd}</style></defs><path id="mmappoint9" class="mcls-1" d="M31.74 43.46a13.424 13.424 0 0 0-7.957 8h-.025a.8.8 0 0 1-1.522-.043H22.2a13.43 13.43 0 0 0-8.123-8.021A22.581 22.581 0 0 1 0 22.581 22.8 22.8 0 0 1 23 0a22.8 22.8 0 0 1 23.007 22.581A22.58 22.58 0 0 1 31.74 43.46z"/></symbol><symbol viewBox="0 0 48 48" id="monet" xmlns="http://www.w3.org/2000/svg"><path d="M35.4 45c.2 0 .3 0 .5-.1 11.5-6.6 15.6-21.2 9-32.7s-21.2-15.6-32.7-9C4.6 7.4 0 15.4 0 24c0 .6.4 1 1 1s1-.4 1-1C2 11.8 11.9 2 24 2c12.2 0 22 9.9 22 22 0 7.9-4.3 15.2-11.1 19.1-.5.3-.6.9-.4 1.4.2.3.5.5.9.5z"/><path d="M35 38c.2 0 .5-.1.6-.2 7.6-6.4 8.6-17.8 2.2-25.4S20 3.8 12.4 10.2C8.3 13.7 6 18.7 6 24c0 .6.4 1 1 1s1-.4 1-1c0-8.8 7.2-16 16-16s16 7.2 16 16c0 4.7-2.1 9.2-5.7 12.2-.4.4-.5 1-.1 1.4.2.3.5.4.8.4z"/><path d="M14 24c0-2.6 4-4 8-4s8 1.4 8 4-4 4-8 4-8-1.4-8-4zm2 0c0 .7 2.3 2 6 2s6-1.3 6-2-2.3-2-6-2-6 1.3-6 2zM22 38c4 0 8-1.4 8-4 0-.6-.4-1-1-1s-1 .4-1 1c0 .7-2.3 2-6 2s-6-1.3-6-2c0-.6-.4-1-1-1s-1 .4-1 1c0 2.6 4 4 8 4zM22 43c4 0 8-1.4 8-4 0-.6-.4-1-1-1s-1 .4-1 1c0 .7-2.3 2-6 2s-6-1.3-6-2c0-.6-.4-1-1-1s-1 .4-1 1c0 2.6 4 4 8 4z"/><path d="M22 48c4 0 8-1.4 8-4V24c0-.6-.4-1-1-1s-1 .4-1 1v20c0 .7-2.3 2-6 2s-6-1.3-6-2V24c0-.6-.4-1-1-1s-1 .4-1 1v20c0 2.6 4 4 8 4z"/><path d="M22 33c4 0 8-1.4 8-4 0-.6-.4-1-1-1s-1 .4-1 1c0 .7-2.3 2-6 2s-6-1.3-6-2c0-.6-.4-1-1-1s-1 .4-1 1c0 2.6 4 4 8 4zM0 34c0-2.6 4-4 8-4s8 1.4 8 4-4 4-8 4-8-1.4-8-4zm2 0c0 .7 2.3 2 6 2s6-1.3 6-2-2.3-2-6-2-6 1.3-6 2z"/><path d="M8 48c4 0 8-1.4 8-4V34c0-.6-.4-1-1-1s-1 .4-1 1v10c0 .7-2.3 2-6 2s-6-1.3-6-2V34c0-.6-.4-1-1-1s-1 .4-1 1v10c0 2.6 4 4 8 4z"/><path d="M8 43c4 0 8-1.4 8-4 0-.6-.4-1-1-1s-1 .4-1 1c0 .7-2.3 2-6 2s-6-1.3-6-2c0-.6-.4-1-1-1s-1 .4-1 1c0 2.6 4 4 8 4z"/></symbol><symbol viewBox="0 0 64 80" id="money" xmlns="http://www.w3.org/2000/svg"><path d="M3 9c2.2 0 4 1.8 4 4 0 .6.4 1 1 1s1-.4 1-1c0-2.2 1.8-4 4-4 .6 0 1-.4 1-1s-.4-1-1-1c-2.2 0-4-1.8-4-4 0-.6-.4-1-1-1s-1 .4-1 1c0 2.2-1.8 4-4 4-.6 0-1 .4-1 1s.4 1 1 1zm5-2.7C8.4 7 9 7.6 9.7 8 9 8.4 8.4 9 8 9.7 7.6 9 7 8.4 6.3 8 7 7.6 7.6 7 8 6.3zM12 22c0 .6.4 1 1 1 2.2 0 4 1.8 4 4 0 .6.4 1 1 1s1-.4 1-1c0-2.2 1.8-4 4-4 .6 0 1-.4 1-1s-.4-1-1-1c-2.2 0-4-1.8-4-4 0-.6-.4-1-1-1s-1 .4-1 1c0 2.2-1.8 4-4 4-.6 0-1 .4-1 1zm6-1.7c.4.7 1 1.2 1.7 1.7-.7.4-1.2 1-1.7 1.7-.4-.7-1-1.2-1.7-1.7.7-.4 1.3-1 1.7-1.7z"/><path d="M32 12h-2v6h-4v8h4v6h2v6.3c-4.3-7.7-14-10.5-21.7-6.3S-.3 46 4 53.7 18 64.3 25.7 60c2.6-1.5 4.8-3.6 6.3-6.3V62h30V30h-2v-6h-4v-4h4v-6h2V6H32v6zM18 60c-7.7 0-14-6.3-14-14s6.3-14 14-14 14 6.3 14 14-6.3 14-14 14zm42 0H34v-4h26v4zm0-6H34v-4h26v4zm0-6H34v-4h26v4zm0-6H34v-4h26v4zm0-6H34v-4h26v4zm-2-10v4H32v-4h26zm-4-2H28v-4h26v4zm4-6H32v-4h26v4zM34 8h26v4H34V8z"/><path d="M18 34c-.6 0-1 .4-1 1s.4 1 1 1c5.5 0 10 4.5 10 10 0 .6.4 1 1 1s1-.4 1-1c0-6.6-5.4-12-12-12z"/></symbol><symbol viewBox="0 0 50 80.1" id="phone" xmlns="http://www.w3.org/2000/svg"><path d="M44.6 0H5.4C2.4 0 0 2.4 0 5.4v69.3c0 3 2.4 5.4 5.4 5.4h39.2c3 0 5.4-2.4 5.4-5.4V5.3C49.9 2.4 47.5 0 44.6 0zm3.3 74.6c0 1.9-1.5 3.4-3.4 3.4H5.4C3.5 78 2 76.5 2 74.6V5.3c0-1.9 1.5-3.4 3.4-3.4h39.2c1.9 0 3.4 1.5 3.4 3.4l-.1 69.3z"/><path d="M43.3 10.5H6.7c-.5 0-1 .4-1 1v53.6c0 .5.4 1 1 1h36.6c.5 0 1-.4 1-1V11.5c-.1-.6-.5-1-1-1zm-1 53.6H7.6V12.4h34.7v51.7zM25 69.1c-2 0-3.6 1.6-3.6 3.6s1.6 3.6 3.6 3.6 3.6-1.6 3.6-3.6-1.6-3.6-3.6-3.6zm0 5.2c-.9 0-1.6-.7-1.6-1.6s.7-1.6 1.6-1.6 1.6.7 1.6 1.6c0 .9-.7 1.6-1.6 1.6z"/></symbol><symbol viewBox="0 0 110 110.9" id="planet" xmlns="http://www.w3.org/2000/svg"><path d="M104 36c-.4-.9-.7-1.7-1.1-2.6 7.8-14 9.2-24.2 4-29.4S91.5.2 77.5 8c-.9-.4-1.7-.8-2.6-1.1-3.2-1.3-6.5-2.3-9.8-2.9a52.8 52.8 0 0 0-20.2 0c-3.4.6-6.7 1.6-9.8 2.9-3.2 1.3-6.3 2.9-9.2 4.8-3 2-5.8 4.2-8.3 6.8-2.5 2.5-4.8 5.3-6.8 8.3-1.9 2.9-3.5 6-4.8 9.2s-2.3 6.5-2.9 9.8-1 6.7-1 10.1.3 6.8 1 10.1c.7 3.4 1.6 6.7 2.9 9.8.4.9.7 1.7 1.1 2.6-7.8 14-9.2 24.2-4 29.4 2.1 2.1 4.9 3.1 8.5 3.1 5.7 0 13.3-2.7 22.5-8h.1c11.8-6.8 25.2-17.5 37.7-30 10.5-10.5 19.8-21.7 26.5-32 .7 2 1.3 4.2 1.7 6.3.6 2.9.8 5.8.8 8.8s-.3 5.9-.8 8.8c-.6 2.9-1.4 5.8-2.5 8.5a40.7 40.7 0 0 1-4.2 8c-1.7 2.6-3.7 5-5.9 7.2s-4.6 4.2-7.2 5.9a40.7 40.7 0 0 1-8 4.2c-2.7 1.1-5.6 2-8.5 2.5-3.1.6-6.3.9-9.6.8-1.9-.1-3.5 1.5-3.6 3.4 0 1.9 1.5 3.5 3.4 3.6h.9c3.4 0 6.8-.3 10.1-1 3.4-.6 6.7-1.6 9.8-2.9 3.2-1.3 6.3-2.9 9.2-4.8 3-2 5.8-4.2 8.3-6.8 2.5-2.5 4.8-5.3 6.8-8.3 1.9-2.9 3.5-6 4.8-9.2s2.3-6.5 2.9-9.8 1-6.7 1-10.1-.3-6.8-1-10.1c-.6-3.5-1.6-6.8-2.8-9.9zM8 102.8c-1.9-1.9-1.4-7.8 3.1-17.2 1.9 2.7 4 5.3 6.4 7.7 2.4 2.4 5 4.5 7.7 6.4-9.4 4.6-15.4 5-17.2 3.1zm58.9-34.9c-11.6 11.6-23.8 21.4-34.7 28-.9-.5-1.7-1-2.6-1.6-2.6-1.7-5-3.7-7.2-5.9s-4.2-4.6-5.9-7.2a40.7 40.7 0 0 1-4.2-8c-1.1-2.7-2-5.6-2.5-8.5-.6-2.9-.8-5.8-.8-8.8s.3-5.9.8-8.8c.6-2.9 1.4-5.8 2.5-8.5 1.1-2.8 2.5-5.5 4.2-8 1.7-2.6 3.7-5 5.9-7.2s4.6-4.2 7.2-5.9c2.5-1.7 5.2-3.1 8-4.2 2.7-1.1 5.6-2 8.5-2.5 5.8-1.1 11.8-1.1 17.6 0 2.9.6 5.8 1.4 8.5 2.5 2.8 1.1 5.5 2.5 8 4.2 1.9 1.3 3.8 2.7 5.5 4.3 1.4 1.3 3.6 1.2 4.9-.2 1.3-1.4 1.2-3.6-.2-4.9-1.8-1.6-3.8-3.2-5.8-4.5 9.4-4.6 15.3-5 17.2-3.1 2.2 2.2 1.2 10.1-6 22.6-6.5 11.1-16.8 24-28.9 36.2z"/></symbol><symbol viewBox="0 0 305 166" id="rightbuble" xmlns="http://www.w3.org/2000/svg"><defs><style>.rcls-1{fill:#fff;fill-rule:evenodd}</style></defs><path id="rrightbuble.svg" class="rcls-1" d="M1283 284h-195.27L1058 308l-7.39-24H1038a30 30 0 0 1-30-30v-82a30 30 0 0 1 30-30h245a30 30 0 0 1 30 30v82a30 30 0 0 1-30 30z" transform="translate(-1008 -142)"/></symbol><symbol viewBox="0 0 95.1 89.1" id="samocat_electro" xmlns="http://www.w3.org/2000/svg"><path d="M81.2 61.5c-.6 0-1.1 0-1.6.1l-9.5-45.4c1.5-.6 2.4-2.1 2.1-3.8l-.5-2.5 1.8-1.3 1.9-.4c.7 1.3 2.1 2.2 3.6 2.2.2 0 .5 0 .7-.1l11.7-2c1.1-.2 2-.8 2.7-1.7s.9-2 .7-3.1C94.4 1.3 92.3-.3 90 .1l-11.7 2c-1.1.2-2 .8-2.7 1.7-.3.4-.5.9-.6 1.4l-2.7.6-2.4 1.8c-.6-.3-1.3-.4-2.1-.3l-1.8.3c-.9.2-1.6.7-2.1 1.3l-3.2-.5-2.7.7c-.8-.9-1.9-1.5-3.1-1.5-.4 0-.8.1-1.2.2l-11.4 3.4c-1.1.3-1.9 1-2.5 2s-.6 2.1-.3 3.2c.5 1.7 2.2 3 4 3 .4 0 .8-.1 1.2-.2l11.4-3.4c1.7-.5 2.9-2.1 2.9-3.8l1.9-.5 2.5.4.4 2.1c.3 1.6 1.7 2.7 3.3 2.7h.1L73 44.6 53.2 72.3h-20C32.1 62.6 23.9 55 13.9 55 8.7 55 3.6 57.1 0 60.8l2.1 2.1C5.2 59.8 9.5 58 13.9 58c8.3 0 15.2 6.2 16.3 14.3h-2.7c-1.4-6.3-7-10.8-13.5-10.8C6.4 61.5.2 67.7.2 75.3c0 7.6 6.2 13.8 13.8 13.8 5.7 0 10.9-3.6 12.9-8.9h33c3.1 0 5.7-2.5 5.7-5.7v-2.3h-.8l11-15 1 4.9c-5.4 1.9-9.3 7-9.3 13.1 0 7.6 6.2 13.8 13.8 13.8 7.6 0 13.8-6.2 13.8-13.8 0-7.5-6.2-13.7-13.9-13.7zM78.1 5.6c.2-.3.4-.4.7-.5l11.7-2h.2c.6 0 1 .4 1.1 1 .1.3 0 .6-.2.9s-.4.4-.7.5l-11.7 2H79c-.6 0-1-.4-1.1-1 0-.4.1-.7.2-.9zM55.2 13l-11.4 3.4c-.7.2-1.3-.2-1.5-.8-.1-.3-.1-.6.1-.9.1-.3.4-.5.7-.6l11.4-3.3h.3c.5 0 1 .3 1.1.8.2.6-.1 1.2-.7 1.4zm11.5.5l-.5-2.5c0-.2.1-.4.3-.4l1.9-.4c.1 0 .3.1.4.3l.5 2.5c0 .2-.1.4-.3.4l-1 .2-.9.2c-.1 0-.3-.1-.4-.3zM13.9 86.2c-6 0-10.8-4.9-10.8-10.8 0-6 4.9-10.8 10.8-10.8 4.9 0 9.1 3.3 10.4 7.8h-2.5c-1.2-3.2-4.4-5.4-7.9-5.4-4.7 0-8.4 3.8-8.4 8.4 0 4.7 3.8 8.4 8.4 8.4 2.7 0 5.2-1.3 6.8-3.5h2.8c-1.8 3.5-5.6 5.9-9.6 5.9zm-.8-12.6c-.4.6-.6 1.4-.6 2.1 0 .3.1.5.2.7.1.3.2.5.3.7 0 .1.1.1.1.2.1.2.2.3.3.5l.2.2c.1.2.3.3.4.5l.1.1c.2.2.4.3.6.5.1 0 .1.1.2.1.2.1.3.2.5.3.1 0 .2.1.2.1.2.1.3.1.5.2.1 0 .1.1.2.1h.1c-.8.4-1.7.7-2.6.7-3 0-5.4-2.4-5.4-5.4s2.4-5.4 5.4-5.4c1.9 0 3.5 1 4.5 2.4h-2.7c-.9.1-1.9.6-2.5 1.4zm46.7 3.7H18.1c-1.1 0-2.1-.7-2.5-1.8v-.2c0-.1.1-.1.1-.1h46.7c-.3 1.2-1.4 2.1-2.6 2.1zm1.2-5h-4.1l17-23.7 1 4.8L61 72.3zm20.2 13.9c-6 0-10.8-4.9-10.8-10.8 0-4.6 2.9-8.5 6.9-10.1l.5 2.4c-2.9 1.3-5 4.3-5 7.7 0 4.7 3.8 8.4 8.4 8.4s8.4-3.8 8.4-8.4c0-4.7-3.8-8.4-8.4-8.4h-.5l-.5-2.4c.3 0 .7-.1 1-.1 6 0 10.8 4.9 10.8 10.8.1 6-4.8 10.9-10.8 10.9zm-1.3-8.6c.1.7.8 1.2 1.5 1.2h.3c.8-.2 1.3-1 1.2-1.8l-1.5-7.1c3 .1 5.3 2.5 5.3 5.4 0 3-2.4 5.4-5.4 5.4s-5.4-2.4-5.4-5.4c0-2 1.1-3.7 2.6-4.7l1.4 7z"/></symbol><symbol viewBox="0 0 48.1 40.6" id="samocat_mech" xmlns="http://www.w3.org/2000/svg"><path d="M40.2 27.9H40L36.6 5.6l.7.6c.2.1.4.2.6.2.3 0 .6-.1.8-.4.3-.4.2-1.1-.2-1.4L32.2.2c-.4-.3-1.1-.2-1.4.2-.3.4-.2 1.1.2 1.4l3.2 2.3 3.7 24.1c-3 .8-5.2 3.4-5.6 6.6H15.6c-.5-3.9-3.8-6.9-7.8-6.9-4.3 0-7.8 3.5-7.8 7.8 0 .5.4 1 1 1s1-.4 1-1c0-3.2 2.6-5.9 5.9-5.9 2.9 0 5.3 2.1 5.8 4.9h-1c-.5-2.2-2.4-3.9-4.8-3.9C5.2 30.8 3 33 3 35.7s2.2 4.9 4.9 4.9c2.4 0 4.3-1.7 4.8-3.9h20.7c.5 0 1-.4 1-1 0-2.6 1.7-4.8 4-5.6l.2 1c-1.9.7-3.2 2.5-3.2 4.6 0 2.7 2.2 4.9 4.9 4.9s4.9-2.2 4.9-4.9c0-2.6-2.1-4.7-4.7-4.9l-.2-1c3.2.1 5.8 2.7 5.8 5.9 0 .5.4 1 1 1 .5 0 1-.4 1-1-.1-4.3-3.6-7.8-7.9-7.8zM7.8 38.6c-1.6 0-2.9-1.3-2.9-2.9 0-1.6 1.3-2.9 2.9-2.9 1.3 0 2.4.8 2.8 2H7.8c-.5 0-1 .4-1 1 0 .5.4 1 1 1h2.8c-.4 1-1.5 1.8-2.8 1.8zm35.3-2.9c0 1.6-1.3 2.9-2.9 2.9-1.6 0-2.9-1.3-2.9-2.9 0-1.1.6-2.1 1.6-2.6l.4 2.7c.1.5.5.8 1 .8.5-.1.9-.6.8-1.1l-.5-2.7c1.5.3 2.5 1.5 2.5 2.9z"/></symbol><symbol viewBox="0 0 57 57" id="wheel" xmlns="http://www.w3.org/2000/svg"><path d="M30.5 2C15 2.8 2.8 15 2 30.5c0 .2.1.3.1.4.1 0 .2.1.4.1h7.1c.2 0 .4-.2.4-.4.7-11.1 9.5-19.9 20.6-20.6.2 0 .4-.2.4-.4V2.5c0-.2-.1-.3-.1-.3-.1-.1-.2-.2-.4-.2M9.6 33H2.5c-.7 0-1.3-.3-1.8-.8-.4-.4-.7-1.1-.7-1.8C.8 13.9 13.9.8 30.4 0c.7 0 1.3.2 1.8.7.5.5.8 1.1.8 1.8v7.1c0 1.3-1 2.4-2.3 2.4-10 .6-18.1 8.7-18.7 18.7C12 32 10.9 33 9.6 33"/><path d="M31 20c-6.1 0-11 4.9-11 11s4.9 11 11 11 11-4.9 11-11-4.9-11-11-11m0 24c-7.2 0-13-5.8-13-13s5.8-13 13-13 13 5.8 13 13-5.8 13-13 13"/><path d="M31 29c-1.1 0-2 .9-2 2s.9 2 2 2 2-.9 2-2-.9-2-2-2m0 6c-2.2 0-4-1.8-4-4s1.8-4 4-4 4 1.8 4 4-1.8 4-4 4M32 24c0 .6-.4 1-1 1s-1-.4-1-1 .4-1 1-1 1 .4 1 1M32 38c0 .6-.4 1-1 1s-1-.4-1-1 .4-1 1-1 1 .4 1 1M38 32c-.6 0-1-.4-1-1s.4-1 1-1 1 .4 1 1-.4 1-1 1M24 32c-.6 0-1-.4-1-1s.4-1 1-1 1 .4 1 1-.4 1-1 1"/><path d="M7.1 33c1 12.4 11.3 22 23.9 22 13.2 0 24-10.8 24-24 0-12.6-9.6-22.9-22-23.9v2.5c0 1.3-1 2.4-2.3 2.4-10 .6-18.1 8.7-18.7 18.7C12 32 10.9 33 9.6 33H7.1zM31 57C17 57 5.6 46 5 32v-1h4.6c.2 0 .4-.2.4-.4.7-11.1 9.5-19.9 20.6-20.6.2 0 .4-.2.4-.4V5h1c14 .6 25 12 25 26 0 14.3-11.7 26-26 26z"/></symbol></svg>