<svg id="Слой_1" data-name="Слой 1" xmlns="http://www.w3.org/2000/svg" viewBox="0 0 1039 365">
  <defs>
    <style>
      .cls-1 {
        fill: #eebf3e;
      }

      .cls-2 {
        fill-rule: evenodd;
      }
    </style>
  </defs>
  <title>Безымянный-1</title>
  <path class="cls-1" d="M966.92,365H76.08c-28.16,0-46.15-5.39-58.35-17.49S0,317.35,0,289.18V72.6c0-28,5.58-45.64,18.08-57C30,4.65,47.37,0,76.08,0H966.92c28.51,0,45.38,4.77,56.43,16S1039,43.62,1039,72.6V289.18c0,28.77-4.58,46.08-15.32,57.9C1012.42,359.47,994.91,365,966.92,365ZM76.08,7C49.27,7,33.33,11.12,22.8,20.74,11.88,30.71,7,46.7,7,72.6V289.18c0,26.15,4.83,42.6,15.65,53.34S49.91,358,76.08,358H966.92c25.85,0,41.76-4.82,51.58-15.63C1028,332,1032,316,1032,289.18V72.6c0-26.93-3.94-41.91-13.62-51.7S993.38,7,966.92,7Z"/>
  <path class="cls-2" d="M235.11,70H152.84A18.54,18.54,0,0,0,133.9,88.83v183.9c0,10.88,8.36,20.24,18.94,20.24h82.27c10.56,0,15.79-9.36,15.79-20.24V88.83C250.9,78,245.67,70,235.11,70ZM184.42,93H203.5a2,2,0,1,1,0,4H184.42a2,2,0,1,1,0-4Zm9.54,189a10.21,10.21,0,1,1,9.92-10.2A10.07,10.07,0,0,1,194,281.94Zm47.94-25h-99V110h99Z"/>
  <path class="cls-2" d="M928.57,230H877.85c.2,7,2.66,13.14,7.37,17.1,4.26,3.56,9.79,5.3,16.58,5.3a55.42,55.42,0,0,0,20.51-3.65L925,260.46c-7.17,3.16-15.69,4.68-25.52,4.68q-17.66,0-27.76-10.39t-10.12-27.92c0-11.5,3.15-21,9.39-28.68Q880.85,186,897.57,186q16.48,0,24.89,12.19c4.47,6.49,6.73,14.56,6.73,24.06A42,42,0,0,1,928.57,230ZM855.9,202.54a23.75,23.75,0,0,0-5.15-.43c-6,0-10.46,2.24-13.7,6.72-2.82,4-4.15,8.91-4.15,15V264h-17V211.6c0-8.71,0-16.63-.33-23.63h14.71l.62,14h.47a25.1,25.1,0,0,1,8.45-11.89,19.66,19.66,0,0,1,12-4,21.08,21.08,0,0,1,4,.35Zm-60.52,51.37q-10.51,11.55-27.85,11.56-16.78,0-26.73-11.11c-6.61-7.39-9.91-16.77-9.91-28q0-17.67,10.24-29c6.84-7.54,16-11.25,27.61-11.25,11.2,0,20.17,3.67,27,11.11,6.45,7.16,9.69,16.48,9.69,27.84C805.38,236.81,802.06,246.38,795.38,253.91ZM725.9,200h-19v37.35c0,9.38,3.55,14,10.13,14a32.11,32.11,0,0,0,7.62-.73l.54,12.8a38,38,0,0,1-13.11,1.89c-6.65,0-11.84-2-15.58-6.11s-5.6-10.89-5.6-20.49V200h-11V188h11V173.75l16-5V188h19Zm-59.46,56.1q-10.35,9.24-28.74,9.23c-11.38,0-20.47-2.2-27.34-6.57l3.92-14.08a47.26,47.26,0,0,0,24.39,6.58c6.39,0,11.34-1.46,14.89-4.31a14.07,14.07,0,0,0,5.3-11.55,14.74,14.74,0,0,0-4.37-10.76c-2.94-2.91-7.76-5.61-14.55-8.14q-27.68-10.29-27.69-30.18A26.59,26.59,0,0,1,622,165q9.78-8.28,25.91-8.29c9.59,0,17.58,1.68,24,5l-4.27,13.78a41.83,41.83,0,0,0-20.24-4.86c-6,0-10.63,1.52-14,4.37a12.68,12.68,0,0,0-4.23,9.57A13.05,13.05,0,0,0,634,194.91q4.25,3.74,15.32,8.11c9.11,3.63,15.77,7.93,20.06,12.85s6.42,11,6.42,18.29C675.8,243.14,672.66,250.46,666.44,256.07Zm-96.69-.59a30.66,30.66,0,0,1-23.3,10c-10.07,0-17.55-3.59-21.55-10.82V295h-17v-82.3c0-8.13-.43-16.7-.83-24.7H521.9l1,12h.29c5.68-9,14.2-13.7,25.68-13.7a28.1,28.1,0,0,1,22.47,10.57q9,10.6,9,28C580.31,237.79,576.8,248,569.75,255.48Zm-83.58,0a31.09,31.09,0,0,1-23.5,10c-10.09,0-16.77-3.59-21.77-10.82V295h-17v-82.3c0-8.13,0-16.7-.43-24.7h14.87l.94,12h.29c5.67-9,14.21-13.7,25.7-13.7,9,0,16.44,3.45,22.48,10.57s9,16.41,9,28C496.74,237.79,493.23,248,486.17,255.48ZM395.78,264l-9.85-31H351.64l-9.4,31H324.72l33.94-106h21l34.14,106Zm500.54-66.29c-5.52,0-10,2.48-13.46,7a25.85,25.85,0,0,0-5,13.24h35.21a23.39,23.39,0,0,0-3.27-13.1C906.86,200.19,902.36,197.68,896.32,197.68ZM368.69,172h-.29c-1.06,5-2.71,11.38-5,20.16L354.61,220h28.32L374,192.13C373.08,189.3,371.29,183,368.69,172Zm174.68,27.59A17.51,17.51,0,0,0,532,203.69a19.32,19.32,0,0,0-6.52,10.92,20.85,20.85,0,0,0-.61,5.18v12.65c0,5.55,1.52,10.23,4.92,14A16.82,16.82,0,0,0,543,252.17c6.4,0,11.31-2.44,14.86-7.36s5.32-11.37,5.32-19.43c0-7.39-1.69-13.5-5-18.28A17.46,17.46,0,0,0,543.37,199.56Zm224.75-1.05c-6.77,0-11.94,3-15.46,9-3.06,5-4.56,11-4.56,18.23,0,7,1.5,13,4.56,18q5.42,9,15.33,9c6.43,0,11.51-3,15.14-9.22a33.44,33.44,0,0,0,4.73-18.06c0-7-1.51-13-4.52-17.94C779.74,201.51,774.7,198.51,768.12,198.51Zm-308.35,1.05a17.52,17.52,0,0,0-11.33,4.13,19.54,19.54,0,0,0-6.71,10.92,22.83,22.83,0,0,0-.83,5.18v12.65a20.3,20.3,0,0,0,5.13,14,17,17,0,0,0,13.25,5.69c6.35,0,11.36-2.44,14.9-7.36s5.31-11.37,5.31-19.43c0-7.39-1.65-13.5-5-18.28A17.4,17.4,0,0,0,459.77,199.56Z"/>
  <path d="M377.9,79v45.48l4.94.47-.69,21h-7.47l-.55-14H341.64l-.55,14h-7.47l-.48-21,4.29-.35a56.58,56.58,0,0,0,5.16-11.9c1.67-5.72,2.31-12.29,2.31-20V79Zm-24,16.17a65.71,65.71,0,0,1-2.52,19.42c-1,3.49-2.51,7.41-3.94,9.41H367.9V87h-14Z"/>
  <path d="M426.39,112.53c0,14.22-10,20.57-19.86,20.57-11,0-19.38-7.54-19.38-19.93,0-12.71,8.34-20.49,20-20.49C418.68,92.68,426.39,100.77,426.39,112.53Zm-29.15.4c0,7.47,3.65,13.1,9.61,13.1,5.56,0,9.45-5.48,9.45-13.26,0-6-2.7-13-9.37-13C400,99.82,397.24,106.5,397.24,112.93Z"/>
  <path d="M462.84,131a28.31,28.31,0,0,1-11,2c-12.07,0-19.93-7.7-19.93-19.69,0-11.6,7.94-20.65,21.52-20.65a24.38,24.38,0,0,1,9.45,1.82l-1.74,7.31a17.17,17.17,0,0,0-7.39-1.51c-7.47,0-11.91,5.48-11.84,12.55,0,7.94,5.17,12.47,11.84,12.47a19.15,19.15,0,0,0,7.7-1.51Z"/>
  <path d="M499.9,94v7h-12v31h-9V101h-12V94Z"/>
  <path d="M513.28,94l7,20.6c.79,2.38,1.59,5.4,2.14,7.4h.24c.63-2,1.35-4.94,2.07-7.49l6-20.51h10.49l-9.69,26.16c-5.33,14.46-8.9,20.79-13.51,24.76a19.52,19.52,0,0,1-10.24,5l-2.23-8.29a16.76,16.76,0,0,0,5.72-2.71,17.14,17.14,0,0,0,5.32-6.13,3.88,3.88,0,0,0,.64-1.75,3.53,3.53,0,0,0-.56-1.69L502.55,94Z"/>
  <path d="M580.9,94v38h-10V101h-14v31h-10V94Z"/>
  <path d="M600.9,94v14h15V94h10v38h-10V116h-15v16h-10V94Z"/>
  <path d="M672.92,112.53c0,14.22-10,20.57-19.85,20.57-11,0-19.38-7.54-19.38-19.93,0-12.71,8.34-20.49,20-20.49C665.22,92.68,672.92,100.77,672.92,112.53Zm-29.15.4c0,7.47,3.66,13.1,9.61,13.1,5.56,0,9.46-5.48,9.46-13.26,0-6-2.7-13-9.38-13C646.55,99.82,643.77,106.5,643.77,112.93Z"/>
  <path d="M696.9,94a107.8,107.8,0,0,1,14.26-1c6.51,0,18.47.88,18.47,9.77,0,4.93-3.73,7.71-7.73,8.58v.16c6,.87,9.58,4,9.58,9.45,0,10.65-14.23,11.68-22,11.68-4.85,0-9.57-.32-12.57-.56Zm10,32.33a34.23,34.23,0,0,0,4.69.24c4.45,0,9.82-1.24,9.82-5.77,0-4.37-4.33-5.85-10.44-5.85H706.9Zm0-17.38h4c5,0,9.13-1.31,9.13-5,0-3.1-2.67-4.71-8.47-4.71a29.34,29.34,0,0,0-4.65.38Z"/>
</svg>
