<svg id="white" xmlns="http://www.w3.org/2000/svg" viewBox="0 0 1037.58 364">
  <defs>
    <style>
      .cls-1 {
        fill: none;
        stroke: #000;
        stroke-miterlimit: 10;
        stroke-width: 7px;
      }

      .cls-2 {
        fill-rule: evenodd;
      }
    </style>
  </defs>
  <title>Векторный смарт-объект11</title>
  <g>
    <path class="cls-1" d="M965.76,360.39h-890c-27.14,0-44.36-5.07-55.83-16.43S3.27,315.36,3.27,288.27v-216c0-26.9,5.22-43.65,16.92-54.31C31.42,7.75,48,3.39,75.78,3.39h890c27.45,0,43.57,4.45,53.89,14.88s14.62,26.15,14.62,54v216c0,27.75-4.31,44.31-14.39,55.39C1009.35,355.23,992.66,360.39,965.76,360.39Z"/>
    <path class="cls-2" d="M234.48,69.39H152.21a18.54,18.54,0,0,0-18.94,18.86v183.9c0,10.88,8.36,20.24,18.94,20.24h82.27c10.57,0,15.79-9.36,15.79-20.24V88.25C250.27,77.38,245.05,69.39,234.48,69.39Zm-50.68,23h19.07a2,2,0,1,1,0,4H183.8a2,2,0,1,1,0-4Zm9.53,189a10.21,10.21,0,1,1,9.92-10.2A10.07,10.07,0,0,1,193.33,281.36Zm47.94-25h-99v-147h99Z"/>
    <path class="cls-2" d="M927.94,229.39H877.22c.2,7,2.66,13.14,7.37,17.1,4.26,3.56,9.79,5.3,16.58,5.3a55.42,55.42,0,0,0,20.51-3.65l2.66,11.74c-7.17,3.16-15.7,4.68-25.53,4.68q-17.65,0-27.76-10.39t-10.12-27.93c0-11.5,3.15-21,9.39-28.67q9.91-12.19,26.62-12.19,16.48,0,24.89,12.19c4.47,6.49,6.73,14.56,6.73,24.06A42,42,0,0,1,927.94,229.39ZM855.27,202a23.13,23.13,0,0,0-5.15-.43c-6,0-10.46,2.24-13.7,6.72-2.82,4-4.15,8.91-4.15,15v40.13h-17V211c0-8.71,0-16.63-.33-23.63h14.71l.63,14h.46a25.17,25.17,0,0,1,8.45-11.89,19.68,19.68,0,0,1,12-4,21,21,0,0,1,4,.36Zm-60.52,51.37q-10.51,11.55-27.85,11.56-16.77,0-26.73-11.11c-6.61-7.39-9.91-16.77-9.91-28q0-17.67,10.24-28.95c6.84-7.54,16-11.25,27.61-11.25,11.21,0,20.17,3.67,26.95,11.11,6.45,7.16,9.69,16.48,9.69,27.84C804.75,236.23,801.43,245.79,794.75,253.33Zm-69.48-53.94h-19v37.35c0,9.38,3.55,14,10.13,14A32.26,32.26,0,0,0,724,250l.54,12.8a38,38,0,0,1-13.12,1.89c-6.65,0-11.84-2-15.58-6.11s-5.6-10.89-5.6-20.49V199.39h-11v-12h11V173.17l16-5v19.23h19Zm-59.46,56.1q-10.35,9.24-28.74,9.23c-11.38,0-20.47-2.21-27.34-6.57l3.93-14.08A47.19,47.19,0,0,0,638,250.64c6.39,0,11.34-1.45,14.89-4.3a14.07,14.07,0,0,0,5.3-11.55A14.77,14.77,0,0,0,653.87,224c-3-2.92-7.77-5.61-14.56-8.14q-27.67-10.29-27.69-30.18a26.59,26.59,0,0,1,9.76-21.3q9.78-8.28,25.91-8.3c9.6,0,17.59,1.69,24,5L667,174.89A41.9,41.9,0,0,0,646.74,170c-6,0-10.63,1.52-14,4.37a12.67,12.67,0,0,0-4.22,9.57,13,13,0,0,0,4.84,10.36q4.25,3.73,15.33,8.11c9.1,3.62,15.76,7.93,20,12.85s6.42,11,6.42,18.28C675.17,242.56,672,249.88,665.81,255.49Zm-96.69-.59a30.66,30.66,0,0,1-23.3,10c-10.07,0-17.55-3.59-21.55-10.82v40.32h-17v-82.3c0-8.13-.43-16.7-.83-24.7h14.83l1,12h.29c5.67-9,14.2-13.7,25.67-13.7a28.12,28.12,0,0,1,22.47,10.56q9,10.62,9,28C579.69,237.21,576.17,247.37,569.12,254.9Zm-83.57,0a31.12,31.12,0,0,1-23.5,10c-10.1,0-16.78-3.59-21.78-10.82v40.32h-17v-82.3c0-8.13,0-16.7-.42-24.7h14.87l.93,12h.29c5.67-9,14.21-13.7,25.71-13.7,9,0,16.44,3.45,22.47,10.56s9,16.41,9,28C496.11,237.21,492.6,247.37,485.55,254.9Zm-90.4,8.49-9.85-31H351l-9.4,31H324.09l33.94-106h21l34.13,106ZM895.69,197.1c-5.51,0-10,2.48-13.46,7a25.92,25.92,0,0,0-5,13.25h35.22a23.55,23.55,0,0,0-3.27-13.1C906.23,199.61,901.73,197.1,895.69,197.1ZM368.07,171.39h-.3c-1.06,5-2.71,11.38-5,20.16L354,219.39H382.3l-8.89-27.84C372.45,188.72,370.66,182.39,368.07,171.39ZM542.74,199a17.51,17.51,0,0,0-11.34,4.13A19.29,19.29,0,0,0,524.88,214a20.83,20.83,0,0,0-.61,5.17v12.66c0,5.54,1.52,10.23,4.93,14a16.79,16.79,0,0,0,13.12,5.69c6.4,0,11.31-2.44,14.86-7.36s5.32-11.37,5.32-19.43c0-7.39-1.69-13.5-5-18.28A17.47,17.47,0,0,0,542.74,199Zm224.75-1c-6.76,0-11.93,3-15.46,9-3.06,5-4.56,11.05-4.56,18.23,0,7,1.5,13,4.56,18q5.41,9,15.33,9c6.43,0,11.51-3,15.15-9.22a33.53,33.53,0,0,0,4.72-18.06c0-7-1.51-13-4.52-17.94C779.12,200.93,774.07,197.93,767.49,197.93Zm-308.35,1a17.52,17.52,0,0,0-11.33,4.13A19.51,19.51,0,0,0,441.1,214a22.83,22.83,0,0,0-.83,5.17v12.66a20.32,20.32,0,0,0,5.13,14,17,17,0,0,0,13.25,5.69c6.35,0,11.36-2.44,14.9-7.36s5.31-11.37,5.31-19.43c0-7.39-1.64-13.5-5-18.28A17.4,17.4,0,0,0,459.14,199Z"/>
    <path d="M377.27,78.39v45.48l5,.47-.7,21h-7.46l-.56-14H341l-.55,14H333l-.48-21,4.29-.35a57.14,57.14,0,0,0,5.17-11.9c1.66-5.72,2.3-12.29,2.3-20V78.39Zm-24,16.17A66.11,66.11,0,0,1,350.76,114c-1,3.49-2.52,7.41-3.95,9.41h20.46v-37h-14Z"/>
    <path d="M425.76,112c0,14.22-10,20.57-19.86,20.57-11,0-19.38-7.54-19.38-19.93,0-12.71,8.34-20.5,20-20.5C418.06,92.09,425.76,100.19,425.76,112Zm-29.15.4c0,7.46,3.65,13.1,9.61,13.1,5.56,0,9.45-5.48,9.45-13.26,0-6-2.7-13-9.37-13C399.39,99.24,396.61,105.92,396.61,112.35Z"/>
    <path d="M462.22,130.46a28.39,28.39,0,0,1-11,2c-12.08,0-19.94-7.7-19.94-19.7,0-11.59,7.94-20.65,21.52-20.65a24.47,24.47,0,0,1,9.46,1.83l-1.75,7.31a17.14,17.14,0,0,0-7.39-1.51c-7.47,0-11.91,5.48-11.83,12.55,0,7.94,5.16,12.47,11.83,12.47a19.21,19.21,0,0,0,7.71-1.51Z"/>
    <path d="M499.27,93.39v7h-12v31h-9v-31h-12v-7Z"/>
    <path d="M512.65,93.39l7,20.59c.79,2.39,1.59,5.41,2.14,7.41H522c.64-2,1.35-5,2.07-7.49l6-20.51h10.49l-9.69,26.16c-5.33,14.45-8.9,20.78-13.51,24.75a19.37,19.37,0,0,1-10.24,4.95L504.94,141a16.81,16.81,0,0,0,5.72-2.72,17,17,0,0,0,5.32-6.12,3.88,3.88,0,0,0,.64-1.75,3.56,3.56,0,0,0-.56-1.7L501.93,93.39Z"/>
    <path d="M580.27,93.39v38h-10v-31h-14v31h-10v-38Z"/>
    <path d="M600.27,93.39v14h15v-14h10v38h-10v-16h-15v16h-10v-38Z"/>
    <path d="M672.3,112c0,14.22-10,20.57-19.86,20.57-11,0-19.38-7.54-19.38-19.93,0-12.71,8.34-20.5,20-20.5C664.59,92.09,672.3,100.19,672.3,112Zm-29.15.4c0,7.46,3.65,13.1,9.61,13.1,5.56,0,9.45-5.48,9.45-13.26,0-6-2.7-13-9.37-13C645.92,99.24,643.15,105.92,643.15,112.35Z"/>
    <path d="M696.27,93.44a107.8,107.8,0,0,1,14.26-1c6.52,0,18.48.88,18.48,9.77,0,4.93-3.74,7.7-7.74,8.58V111c6,.87,9.59,4,9.59,9.45,0,10.64-14.24,11.68-22,11.68-4.85,0-9.57-.32-12.57-.56Zm10,32.33a34.29,34.29,0,0,0,4.7.24c4.44,0,9.81-1.24,9.81-5.77,0-4.37-4.32-5.85-10.44-5.85h-4.07Zm0-17.38h4c5,0,9.13-1.32,9.13-5,0-3.1-2.67-4.71-8.46-4.71a30.86,30.86,0,0,0-4.66.37Z"/>
  </g>
</svg>
