<svg id="white" xmlns="http://www.w3.org/2000/svg" viewBox="0 0 1037.58 364">
  <defs>
    <style>
      .cls-1 {
        fill: none;
        stroke: #000;
        stroke-miterlimit: 10;
        stroke-width: 7px;
      }

      .cls-2 {
        fill-rule: evenodd;
      }
    </style>
  </defs>
  <title>Векторный смарт-объект11</title>
  <g>
    <path class="cls-1" d="M966.07,360.5h-890c-27.14,0-44.35-5.07-55.83-16.43S3.58,315.47,3.58,288.38V72.4c0-26.9,5.22-43.65,16.92-54.31C31.73,7.86,48.35,3.5,76.09,3.5h890c27.46,0,43.57,4.45,53.89,14.88s14.62,26.15,14.62,54v216c0,27.75-4.3,44.31-14.39,55.39C1009.66,355.34,993,360.5,966.07,360.5Z"/>
    <polygon class="cls-2" points="217.12 150.01 99.95 82.6 192.5 174.68 217.12 150.01"/>
    <path class="cls-2" d="M89.3,83.29a5.69,5.69,0,0,0-.72,2.78V276.84a5.86,5.86,0,0,0,.26,1.69l98-98.19Z"/>
    <path class="cls-2" d="M192.52,186,96.43,282.25a6.94,6.94,0,0,0,.83-.39L218.68,212Z"/>
    <path class="cls-2" d="M263.05,176.43,224.3,154.14l-26.12,26.18,27.69,27.54,37.18-21.39A5.79,5.79,0,0,0,263.05,176.43Z"/>
    <path class="cls-2" d="M395.87,212.91c0,13.44-4,24.23-12,32.2q-13.59,14.26-35.37,14.3-20.85,0-35.43-14.44t-14.58-35.83q0-21.36,14.58-35.82t35.43-14.45a49.52,49.52,0,0,1,19.77,4,39.82,39.82,0,0,1,15.06,10.75l-8.47,8.48q-9.56-11.43-26.36-11.43a36.56,36.56,0,0,0-26.28,10.69q-11.1,10.7-11.1,27.76t11.1,27.77a36.56,36.56,0,0,0,26.28,10.69c10.76,0,19.72-3.51,26.89-10.69,4.66-4.66,7.35-11.42,8.07-19.42H348.58v-12H395.2a47.41,47.41,0,0,1,.67,7.41"/>
    <path class="cls-2" d="M419.74,241.62a20.78,20.78,0,0,0,30.25,0q6.39-6.51,6.39-17.27T450,207.07a20.8,20.8,0,0,0-30.25,0q-6.39,6.52-6.39,17.28T419.74,241.62Zm-9.21-42.35q9.54-10,24.33-10t24.34,10q9.56,10,9.55,25.08t-9.55,25.07q-9.56,10-24.34,10t-24.33-10q-9.55-10-9.55-25.07t9.55-25.08"/>
    <path class="cls-2" d="M491.67,241.62a20.79,20.79,0,0,0,30.26,0q6.39-6.51,6.38-17.27t-6.38-17.28a20.81,20.81,0,0,0-30.26,0q-6.39,6.52-6.38,17.28T491.67,241.62Zm-9.21-42.35q9.54-10,24.34-10t24.34,10q9.54,10,9.54,25.08t-9.54,25.07q-9.55,10-24.34,10t-24.34-10q-9.54-10-9.55-25.07t9.55-25.08"/>
    <path class="cls-2" d="M578.2,248.15a19.67,19.67,0,0,0,14.85-6.46q6.12-6.45,6.12-17.34T593.05,207a20.18,20.18,0,0,0-29.64.07q-6.2,6.52-6.19,17.28t6.19,17.27A19.65,19.65,0,0,0,578.2,248.15Zm-.94,40.33q-11.71,0-19.1-5.85a34.34,34.34,0,0,1-10.62-13.38l11.3-4.7a18.51,18.51,0,0,0,6.92,9,19.17,19.17,0,0,0,11.5,3.63c6.81,0,12.37-2,16.27-6.12s6.05-9.61,6.05-16.61v-6h-1a27.06,27.06,0,0,1-22.45,11c-8.52,0-15.87-3.41-22-10.13s-9.28-15.08-9.28-25,3.09-18.3,9.28-25,13.53-10.09,22-10.09a26.83,26.83,0,0,1,22.45,11.24h1v-9h11v62.43c0,11.29-3.06,19.87-9.6,25.75s-14.31,8.8-23.72,8.8"/>
    <rect x="622.58" y="161.5" width="12" height="96"/>
    <path class="cls-2" d="M693.69,216.5c-.27-4-2-7.39-5.18-10.8s-7.91-5.13-14.19-5.13a17.74,17.74,0,0,0-11.89,4.33,21.53,21.53,0,0,0-6.93,11.6Zm-17.75,42.94q-14.93,0-24.27-9.95t-9.35-25.14a36.3,36.3,0,0,1,9.08-24.75,29.5,29.5,0,0,1,23.19-10.34q14.67,0,23.46,9.54c5.88,6.37,8.81,14.82,8.81,25.48l-.12,2.22h-52c.35,7,2.57,11.94,6.65,15.79a20.21,20.21,0,0,0,14.32,5.83q13.32,0,18-11.28l11,4.57a29.53,29.53,0,0,1-10.62,12.85q-7.4,5.17-18.15,5.18"/>
    <path class="cls-2" d="M755.58,206.5h20.66a16,16,0,0,0,12.51-5.26,17,17,0,0,0,4.71-11.58,17.36,17.36,0,0,0-4.71-11.74,16.15,16.15,0,0,0-12.51-5.42H755.58Zm0,51h-12v-96H776c8.16,0,15.22,2.47,21.18,7.89a26.32,26.32,0,0,1,8.94,20.39,26.62,26.62,0,0,1-8.94,20.54A30.43,30.43,0,0,1,776,218.5H755.58v39"/>
    <rect x="814.58" y="161.5" width="12" height="96"/>
    <path class="cls-2" d="M860.41,248.15a20.16,20.16,0,0,0,13.92-5.72,17.72,17.72,0,0,0,6.25-13.51q-5.24-4.3-15.73-4.3-9,0-13.58,3.89c-3,2.61-4.57,5.65-4.57,9.15a8.77,8.77,0,0,0,4.17,7.66A16.61,16.61,0,0,0,860.41,248.15Zm-2,11.47a26.07,26.07,0,0,1-17.54-6.14c-4.71-4-7.06-9.41-7.06-16q0-10.77,8.34-16.9t20.57-6.13c7.26,0,12.88,1.33,17.88,4v-1.88a14.69,14.69,0,0,0-5-11.63,17.91,17.91,0,0,0-12.24-4.37,18.93,18.93,0,0,0-9.74,2.55,13.21,13.21,0,0,0-6,7l-11.3-4.85q2.28-5.91,9-11t17.75-5c8.43,0,15.5,2.46,21.06,7.39s8.42,11.88,8.42,20.84v40h-12v-9h-.53a25.32,25.32,0,0,1-21.66,11.12"/>
    <polyline class="cls-2" points="919.58 286.5 906.53 286.5 921.86 253.25 894.71 191.5 908.15 191.5 927.78 238.5 928.05 238.5 947.14 191.5 960.58 191.5 919.31 286.5"/>
    <path d="M309.61,141.82h-6.39V124.39h5.08q6.76-5.81,6.61-19.9V78.77h32.61v45.62h5.81v17.43h-6.39v-11H309.61Zm12-37.33q.13,12.35-4.94,19.9h24.18V85.16H321.6Z"/>
    <path d="M363.43,99.47a18.64,18.64,0,0,1,26.29,0A18.86,18.86,0,0,1,394.88,113a18.83,18.83,0,0,1-5.16,13.54,18.67,18.67,0,0,1-26.29,0A18.83,18.83,0,0,1,358.27,113,18.75,18.75,0,0,1,363.43,99.47Zm4.94,22.89a11.23,11.23,0,0,0,8.2,3.48,11.06,11.06,0,0,0,8.18-3.52A12.77,12.77,0,0,0,388.2,113a12.77,12.77,0,0,0-3.45-9.34,11.25,11.25,0,0,0-16.35,0A12.77,12.77,0,0,0,365,113,13,13,0,0,0,368.37,122.36Z"/>
    <path d="M417.25,131.94a17.34,17.34,0,0,1-13.14-5.41A18.83,18.83,0,0,1,399,113a18.86,18.86,0,0,1,5.16-13.55A17.34,17.34,0,0,1,417.25,94a16.12,16.12,0,0,1,9.88,2.9,17,17,0,0,1,5.74,7.34l-6.1,2.54a10,10,0,0,0-9.95-6.68,10.37,10.37,0,0,0-7.81,3.63,14.28,14.28,0,0,0,0,18.45,10.37,10.37,0,0,0,7.81,3.63q7.49,0,10.31-6.68l6,2.54a17,17,0,0,1-5.85,7.3A16.51,16.51,0,0,1,417.25,131.94Z"/>
    <path d="M436.58,101.29v-6.1h27.6v6.1H453.72v29.49H447V101.29Z"/>
    <path d="M479.51,146.47h-6.9l8.28-17.94L466.21,95.19h7.27l10.6,25.57h.15l10.31-25.57h7.27Z"/>
    <path d="M506.17,130.78V95.19h31.52v35.59H531V101.29H512.85v29.49Z"/>
    <path d="M577.35,130.78h-6.68V116.11H552.51v14.67h-6.68V95.19h6.68v14.67h18.16V95.19h6.68Z"/>
    <path d="M588.61,99.47a18.65,18.65,0,0,1,26.3,0A18.85,18.85,0,0,1,620.06,113a18.83,18.83,0,0,1-5.15,13.54,18.69,18.69,0,0,1-26.3,0A18.83,18.83,0,0,1,583.45,113,18.75,18.75,0,0,1,588.61,99.47Zm4.94,22.89a11.25,11.25,0,0,0,8.21,3.48,11,11,0,0,0,8.17-3.52,12.77,12.77,0,0,0,3.45-9.33,12.77,12.77,0,0,0-3.45-9.34,11.24,11.24,0,0,0-16.34,0,12.77,12.77,0,0,0-3.45,9.34A13,13,0,0,0,593.55,122.36Z"/>
    <path d="M666.12,112.7q6,2.46,6,7.69a9.5,9.5,0,0,1-3.34,7.41,11.29,11.29,0,0,1-7.77,3H642.15V95.19h17.79a11.07,11.07,0,0,1,7.56,2.9,9.26,9.26,0,0,1,3.27,7.2q0,4.78-4.65,7.19Zm-6.61-11.41H648.83V110h10.68a4.59,4.59,0,0,0,3.19-1.27,4.15,4.15,0,0,0,0-6.18A4.55,4.55,0,0,0,659.51,101.29Zm.8,14.09H648.83v9.3h11.48a5,5,0,0,0,3.45-1.34,4.38,4.38,0,0,0,0-6.58A5,5,0,0,0,660.31,115.38Z"/>
  </g>
</svg>
