<?xml version="1.0" encoding="utf-8"?>
<!-- Generator: Adobe Illustrator 22.1.0, SVG Export Plug-In . SVG Version: 6.00 Build 0)  -->
<svg version="1.1" id="Слой_1" xmlns="http://www.w3.org/2000/svg" xmlns:xlink="http://www.w3.org/1999/xlink" x="0px" y="0px"
	 viewBox="0 0 404.6 451" style="enable-background:new 0 0 404.6 451;" xml:space="preserve">
<style type="text/css">
	.st0{fill:#FEDE16;}
	.st1{fill:#403E3F;}
	.st2{fill:#E6B874;}
	.st3{fill:#42210B;}
	.st4{fill:#403D38;}
	.st5{fill:#C48156;}
	.st6{fill:#DBBE0F;}
	.st7{fill:#DBBF12;}
	.st8{fill:#FDCC85;}
	.st9{fill:#5C5C5E;}
	.st10{fill:#FFDD14;}
	.st11{fill:#FDE961;}
	.st12{fill:#A3A3A3;}
</style>
<path class="st0" d="M1.8,278L0,339.3c0,0,2.5,2.6,5,2.7s5.2-2.4,5.2-2.4l13.7-30.3l0.9-30.6C24.8,278.7,12.2,273.2,1.8,278z"/>
<path class="st1" d="M199.9,219.4c0,0-34.7-15.6-45.7-3.5s-51.1,69-51.1,69l-83.3-7.2L17.5,316l106,9.8L190,267L199.9,219.4z"/>
<path class="st2" d="M279.4,26.8v35.8c0,0-2.6,30.7-30.7,30.7S213,72.8,213,65.2s-7.7-8.8-7.7-8.8V31.4L279.4,26.8z"/>
<g>
	<path class="st3" d="M220.7,83c-2.6,0-7.7-15.3-7.7-15.3V57.5c-5.1,0-7.7-2.6-7.7-7.7v12.4c0,6.5,2.7,12.9,7.6,17.2
		C215.3,81.5,218,83,220.7,83z"/>
	<path class="st3" d="M289.7,6.4h-25.6V0c0,0-2.6,0-29.4,0s-29.4,29.4-29.4,29.4v20.4c0-5.1,5.1-7.7,5.1-7.7h8.9v19.2
		c6.4,0,8.9-8.9,8.9-8.9V39.6c0,0,33.2,0,46,0c1.9,0,3.6-0.4,5.1-1c0,6.7,0,16.6,0,21.4c5.1,0,5.1-5.1,5.1-5.1V35
		c4.1-4.5,5.1-10.7,5.1-10.7V6.4z"/>
</g>
<circle class="st4" cx="244.9" cy="53.7" r="3.8"/>
<circle class="st4" cx="273" cy="53.7" r="3.8"/>
<path class="st5" d="M266.7,72.8h-15.3c0,0,0,7.7,7.7,7.7C266.7,80.5,266.7,72.8,266.7,72.8z"/>
<rect x="217.6" y="86.3" transform="matrix(0.9365 0.3507 -0.3507 0.9365 46.3076 -75.8185)" class="st2" width="29.8" height="7.3"/>
<path class="st6" d="M213.8,92.9l34.2,12.8l1.7-4.6c0.5-1.3-0.2-2.7-1.4-3.2l-29.6-11.1c-1.3-0.5-2.7,0.2-3.2,1.4L213.8,92.9z"/>
<polygon class="st7" points="123.6,210.8 144,223.6 187.4,154.6 "/>
<path class="st8" d="M315.2,162.3c0,0,33.2-5.1,33.2,23c-17.9,0-40.9,0-40.9,0L315.2,162.3z"/>
<path class="st9" d="M146.6,228.7c0,0-10.2,15.3,2.6,25.6c12.8,10.2,66.4,58.8,66.4,58.8v92h38.3V295.1L218.1,244L146.6,228.7z"/>
<polygon class="st10" points="210.4,88.2 251.3,103.5 233.4,256.8 133.8,228.7 "/>
<rect x="189.3" y="192.2" transform="matrix(0.2747 -0.9615 0.9615 0.2747 -51.9194 352.7836)" class="st11" width="37.2" height="37.2"/>
<path class="st11" d="M264.1,159.7h56.2l-5.1,25.6l-69,2.6l-41.9-59.4c-2.5-3.4-4.1-7.6-4.1-12.2c0-11.3,9.2-20.4,20.4-20.4
	c10.4,0,17.9,7.7,23,17.9L264.1,159.7z"/>
<path class="st0" d="M218.1,428h61.3c0,0,2.6-2.6,2.6-5.1c0-2.6-2.6-5.1-2.6-5.1L248.8,405h-30.7C218.1,405,213,417.8,218.1,428z"/>
<rect x="329.9" y="178.1" transform="matrix(0.986 -0.1665 0.1665 0.986 -31.8081 58.6605)" class="st9" width="7.9" height="81.9"/>
<rect x="334.6" y="256.8" transform="matrix(0.986 -0.1665 0.1665 0.986 -39.259 60.9764)" class="st1" width="18.8" height="15.5"/>
<circle class="st1" cx="98" cy="417.8" r="33.2"/>
<circle class="st9" cx="98" cy="417.8" r="24.6"/>
<polygon class="st1" points="141.5,440.8 145.5,428.8 105.1,414.6 101.5,424.9 "/>
<g>
	<circle class="st1" cx="371.4" cy="417.8" r="33.2"/>
	<circle class="st9" cx="371.4" cy="417.8" r="24.6"/>
	<circle class="st10" cx="371.4" cy="417.8" r="9.6"/>
</g>
<polygon class="st9" points="352.5,269.3 337.4,271.9 353.4,366.7 292.1,428 141.5,428 141.5,440.8 297.3,440.8 356,382.2 
	360.1,406.5 375.2,403.9 "/>
<circle class="st10" cx="98" cy="417.8" r="9.6"/>
<circle class="st12" cx="327.9" cy="183.5" r="9.5"/>
</svg>
