<svg id="Capa_1" data-name="Capa 1" xmlns="http://www.w3.org/2000/svg" viewBox="0 0 479.9 479.89">
  <defs>
    <style>
      .cls-1 {
        fill: #f3b828;
      }
    </style>
  </defs>
  <title>24h</title>
  <path class="cls-1" d="M472,432H448V280a8,8,0,0,0-14.55-4.58l-112,160A8,8,0,0,0,328,448H432v24a8,8,0,0,0,16,0V448h24a8,8,0,0,0,0-16ZM432,305.38V432H343.36Z" transform="translate(-0.1 -0.11)"/>
  <g>
    <path class="cls-1" d="M328,464H233.29l88-103.69a8,8,0,0,0,.56-.74A55.64,55.64,0,0,0,309.34,284,64,64,0,0,0,208,336a8,8,0,0,0,16,0,48,48,0,0,1,76-39,39.49,39.49,0,0,1,8.8,53.32L209.9,466.82A8,8,0,0,0,216,480H328a8,8,0,0,0,0-16Z" transform="translate(-0.1 -0.11)"/>
    <path class="cls-1" d="M215.43.11C96.58.28.28,96.58.11,215.43c0,.2,0,.39,0,.59s0,.35,0,.55c.2,115.91,91.94,211,207.78,215.28h.29a8,8,0,0,0,8-7.7h0a8,8,0,0,0-7.7-8.29h0A199.77,199.77,0,0,1,16.28,224H48a8,8,0,0,0,0-16H16.28A199.52,199.52,0,0,1,208,16.29V40a8,8,0,0,0,16,0V16.29a199.67,199.67,0,0,1,191.62,188l-31.2-31.2A8,8,0,0,0,373.1,184.4l44.66,44.66a8,8,0,0,0,3.15,2.29,1553.29,1553.29,0,0,0,2.65.64H424a7.28,7.28,0,0,0,1.79-.35,7.89,7.89,0,0,0,1-.18,8,8,0,0,0,2.89-1.81l45.27-45.25a8,8,0,0,0-11.32-11.31l-32,31.95A215.67,215.67,0,0,0,216.57.11Z" transform="translate(-0.1 -0.11)"/>
    <path class="cls-1" d="M323.48,108.52a8,8,0,0,0-11.31,0l-86,86a25,25,0,0,0-20.41,0l-40.7-40.7a8,8,0,0,0-11.31,11.31l40.62,40.62a24,24,0,1,0,43.19,0l85.89-85.89a8,8,0,0,0,0-11.31ZM221.66,221.66a8.2,8.2,0,0,1-11.32,0,8,8,0,1,1,11.32,0Z" transform="translate(-0.1 -0.11)"/>
  </g>
</svg>
