<svg xmlns="http://www.w3.org/2000/svg" width="42" height="34" viewBox="0 0 42 34">
  <defs>
    <style>
      .cls-1 {
        fill: #000b0a;
        fill-rule: evenodd;
      }
    </style>
  </defs>
  <path id="bicycle.svg" class="cls-1" d="M974.013,808.969a10.145,10.145,0,0,1-17.106,7.275l1.693-1.765a7.636,7.636,0,1,0,5.286-13.114c-4.762,0-7.4,4.067-8.519,6.387h3.24a5.3,5.3,0,0,1,1.032-2.151,5.477,5.477,0,0,1,7.645-.842h0a5.36,5.36,0,0,1,.849,7.579,5.412,5.412,0,0,1-3.646,1.991,5.734,5.734,0,0,1-.612.034,5.424,5.424,0,0,1-3.387-1.183,5.329,5.329,0,0,1-1.874-2.993h-4.227a16.59,16.59,0,0,1-2.33,3.95,12.38,12.38,0,0,1-9.931,4.872,10.04,10.04,0,1,1,7.7-16.559l-1.868,1.583a7.641,7.641,0,1,0-5.834,12.54c5.544,0,8.386-4.068,9.558-6.386h-4.271a5.4,5.4,0,1,1-2.971-6.1l-1.047,2.2a2.956,2.956,0,1,0,1.442,3.895H942.88v-2.435h9.8a18.043,18.043,0,0,1,2.18-3.914,11.27,11.27,0,0,1,7.8-4.833V787.957a1.214,1.214,0,0,1,.422-0.919,1.244,1.244,0,0,1,.978-0.286,1.775,1.775,0,0,0,1.477-.58,2.209,2.209,0,0,0,.431-1.175l2.456,0.013a4.586,4.586,0,0,1-.957,2.668,4.01,4.01,0,0,1-2.351,1.419v9.915A10.079,10.079,0,0,1,974.013,808.969Zm-11.991,2.309a3,3,0,0,0,4.193-.461,2.942,2.942,0,0,0-.465-4.157,3.006,3.006,0,0,0-4.193.462A2.942,2.942,0,0,0,962.022,811.278Z" transform="translate(-932 -785)"/>
</svg>
