<?xml version="1.0" encoding="utf-8"?>
<!-- Generator: Adobe Illustrator 22.1.0, SVG Export Plug-In . SVG Version: 6.00 Build 0)  -->
<svg version="1.1" id="Layer_1" xmlns="http://www.w3.org/2000/svg" xmlns:xlink="http://www.w3.org/1999/xlink" x="0px" y="0px"
	 viewBox="0 0 367 628.5" style="enable-background:new 0 0 367 628.5;" xml:space="preserve">
<g>
	<path class="st1" d="M45.2,593.2c0.4,0.1,0.8,0.1,1.2,0.1c2.7,0,5-1.9,5.6-4.5c0.3-1.5,0.1-3-0.8-4.3c-0.8-1.3-2.1-2.2-3.6-2.5
		c-0.4-0.1-0.8-0.1-1.2-0.1c-2.7,0-5,1.9-5.6,4.5c-0.3,1.5-0.1,3,0.8,4.3C42.4,591.9,43.7,592.8,45.2,593.2z M43.4,586.9
		c0.3-1.4,1.6-2.4,3-2.4c0.2,0,0.4,0,0.7,0.1c0.8,0.2,1.5,0.7,1.9,1.3c0.4,0.7,0.6,1.5,0.4,2.3c-0.4,1.6-2,2.7-3.7,2.3
		c-0.8-0.2-1.5-0.7-1.9-1.3C43.4,588.5,43.3,587.7,43.4,586.9z"/>
	<path class="st1" d="M311.5,592.9c0.4,0.1,0.7,0.1,1.1,0.1c2.4,0,4.5-1.7,5-4c0.6-2.8-1.1-5.5-3.9-6.1c-0.4-0.1-0.7-0.1-1.1-0.1
		c-2.4,0-4.5,1.7-5,4c-0.3,1.3-0.1,2.7,0.7,3.9C309.1,591.9,310.2,592.7,311.5,592.9z M310.3,587.4c0.2-1.1,1.2-1.9,2.4-1.9
		c0.2,0,0.4,0,0.5,0.1c1.3,0.3,2.1,1.6,1.9,2.9c-0.3,1.3-1.6,2.1-2.9,1.8c-0.6-0.1-1.2-0.5-1.5-1.1
		C310.2,588.7,310.1,588.1,310.3,587.4z"/>
	<path class="st1" d="M291.5,224.4c-2-0.1-3.8,0.9-5.6,2c-0.8,0.5-1.6,0.9-2.3,1.2c-3.1,1.2-6.3,1.9-9.4,2.5c-1.4,0.3-3,0.5-4.8,0.7
		c-4.2,0.5-8.6,1-11.4,2.9c-0.2,0.1-0.3,0.3-0.4,0.5l-0.4,0.9c-0.1,0.3-0.2,0.5-0.1,0.8c1.1,6.4,3.3,15.2,5.7,22.4
		c0.3,0.9,0.6,2.1,0.9,3.2c0.9,3.6,1.9,7.7,4.8,10c2,1.6,5,2.5,8.8,2.5c4.4,0,9.4-1.3,12.5-3.2c6-3.7,12.2-8.4,9.8-17.7
		c-0.7-2.6-1.4-5.2-2.2-7.7c-1.9-6.5-3.9-13.3-4.5-19.8C292.6,225,292.1,224.5,291.5,224.4z M296.8,253.9c1.8,6.8-1.8,10.6-8.6,14.8
		c-2.7,1.7-7.2,2.8-11.1,2.8c-3.1,0-5.5-0.7-7.1-1.9c-2.2-1.8-3.1-5.4-3.9-8.6c-0.3-1.2-0.6-2.4-0.9-3.4c-2.3-7-4.5-15.4-5.5-21.6
		l0.1-0.2c2.4-1.4,6.4-1.9,9.9-2.3c1.8-0.2,3.5-0.4,5-0.7c3.2-0.6,6.6-1.4,9.8-2.7c0.9-0.4,1.8-0.9,2.7-1.4c1-0.6,2-1.2,3-1.5
		c0.7,6.4,2.6,12.8,4.4,19C295.3,248.8,296.1,251.4,296.8,253.9z"/>
	<path class="st1" d="M120.2,296.9c0-3.3-2.7-5.9-5.9-5.9c-3.3,0-5.9,2.7-5.9,5.9c0,3.3,2.7,5.9,5.9,5.9
		C117.6,302.8,120.2,300.2,120.2,296.9z M111.1,296.9c0-1.8,1.4-3.2,3.2-3.2c1.8,0,3.2,1.4,3.2,3.2c0,1.8-1.4,3.2-3.2,3.2
		C112.5,300.2,111.1,298.7,111.1,296.9z"/>
	<path class="st1" d="M135.3,576.5c-3.9,0-7,3.2-7,7c0,3.9,3.2,7,7,7c3.9,0,7-3.2,7-7C142.3,579.7,139.2,576.5,135.3,576.5z
		 M135.3,587.9c-2.4,0-4.3-1.9-4.3-4.3c0-2.4,1.9-4.3,4.3-4.3c2.4,0,4.3,1.9,4.3,4.3C139.6,586,137.7,587.9,135.3,587.9z"/>
	<path class="st1" d="M313.1,543.9c0.4,0,0.7-0.1,1.1-0.2l16.6-7.1c0.7-0.3,1.2-0.8,1.5-1.5c0.2,0.3,0.3,0.6,0.5,0.8
		c5.3,9.2,10,13.5,14.6,13.5c0.2,0,0.4,0,0.7,0c0.4,0,0.8-0.1,1.3-0.2c0.1,0,0.3,0,0.4-0.1c0.4-0.1,0.8-0.3,1.2-0.5
		c5.1-2.4,8.7-9.6,8.7-14.7c0.1-10.8-1-22-2.1-32.7l0-0.1c-0.2-2.2-0.4-4.4-0.7-6.6l-0.2-1.6c-1.1-12-2.3-24.3-4.8-35.5
		c-0.3-1.2-1.3-2.1-2.6-2.2c-1.4-0.1-2.8-0.2-4.2-0.4c-2.1-0.2-4.4-0.5-6.7-0.5l-0.3,0c-3.6,0-5.6,0.9-7.7,1.9
		c-0.9,0.4-1.8,0.8-3,1.3c-0.5,0.2-1.9,0.4-5.3,0.4c-1.4,0-2.9,0-4.4-0.1l-0.2,0c-2.2-1.5-4.8-2.6-7.1-3.7c-1.7-0.7-3.3-1.5-4.3-2.1
		l-3-1.8c-6.8-4.1-13.2-8.1-19.5-12.9c-4.6-3.5-10.4-7.3-16.1-10.4c-2-1.1-4.4-1.6-6.8-2.2c-2.8-0.6-5.7-1.3-7-2.8
		c-0.6-0.7-0.8-3.9-0.8-5.1c0-0.7-0.1-1.5-0.1-2.1c-0.9-7.6-0.4-14.7,0-22.1c0.2-3,0.4-6.1,0.5-9.3c0.1-3-0.1-5.9-0.3-8.8
		c-0.1-2.2-0.3-4.5-0.3-6.7c0-1-0.1-3.2-0.2-5.6c-0.1-3.6-0.4-11-0.4-16.8c0.4-0.4,0.7-0.9,0.8-1.5c1.3-0.8,4.7-2.1,5.7-2.3
		c4.5-0.7,7.4-3,9.5-7.5c1.2-2.7,1.1-5.4-0.3-7.4c-0.5-0.7-1.1-1.3-1.9-1.7c-2.1-9.4-3.1-19.6-4.1-29.4c-0.3-2.9-0.6-5.7-0.9-8.5
		c-0.2-2.2-0.4-4.4-0.6-6.5c1.7,1.4,3.7,2.7,5.9,3.7c3.4,1.6,7.1,2.5,11,2.5c17.4,0,35-17,39.9-32.2c2.2-6.7,0.4-14.3-1.5-21.7
		c2.1-1.2,3.6-3.1,3.9-5c0.3-2-0.6-4.3-1.4-6.3c-0.2-0.4-0.3-0.8-0.4-1.1c-1-2.9-2.3-5.6-3.6-8.3c-1-2-2-4.1-2.8-6.2
		c-0.2-0.6-0.5-1.2-0.7-1.8c-0.7-1.7-1.5-3.5-1.8-5.1c-0.3-1.6-0.3-1.6,0.2-2.7c0.2-0.5,0.5-1,0.8-1.8c1.7-4.2,0.4-6.7-0.6-8.7
		c-0.1-0.3-0.3-0.5-0.4-0.8c2-1.3,4-2.8,5.9-4.2c1-0.7,2-1.5,3-2.2c0.6-0.5,1.1-1.2,1.2-2c0.1-0.8-0.2-1.6-0.7-2.2
		c-3.5-3.9-6.2-8.9-8.9-13.7c-2.1-3.6-4.2-7.4-6.6-10.8c-2.1-3-4.9-6-8.3-9c-3.6-3.2-7.9-6.4-12.8-9.5c-4.1-2.6-12.4-7-21.3-7
		c-0.6,0-1.2,0-1.7,0.1c-1.7,0.1-3.4,0.4-4.9,0.9c-0.5,0.2-1.1,0.3-1.7,0.6l-0.5,0.2c-0.4,0.2-0.8,0.3-1.2,0.5c-1,0.4-1.9,0.9-3,1.5
		l-0.8,0.4c-0.2,0.1-0.3,0.2-0.5,0.3c-2.5,1.6-4.9,3.4-7.1,5.1l-0.7,0.5c-1.2-3.5-2.7-6.8-4.5-9.6c0,0,0,0,0,0
		c0.5-0.1,0.9-0.1,1.4-0.2c1.6-0.2,3.2-0.4,5.1-1.3c1.3-0.7,2.4-1.5,3.4-2.3c0.9-0.7,1.7-1.3,2.5-1.7c0.9-0.4,1.9-0.6,3.2-0.6
		c1.2,0,2.5,0.2,3.7,0.3c1.1,0.1,2.1,0.3,3.2,0.3l1.6,0.1c3.7,0.2,7.2,0.3,10.7,1.3c3.2,0.9,6.3,2.6,9.4,4.3c0.9,0.5,1.8,1,2.7,1.5
		c5,2.6,10.5,4,15.4,5.2c9.6,2.4,18.4,1.9,25.9-1.4c1.9-0.8,3.7-1.9,5.6-3.1c3.3-2,6.7-4.1,9.7-4.1c1,0,1.9,0.2,2.8,0.6
		c0.8,0.4,1.7,0.4,2.5,0c0.6-0.3,1-0.7,1.3-1.3c0.2,0,0.5,0,0.7,0c1,0.1,2-0.3,2.6-1.1c0.6-0.8,0.7-1.9,0.3-2.8
		c-0.2-0.4-0.5-1-0.9-1.8c-0.9-1.8-1.5-3-1.6-3.4c0.3-0.4,1.5-1.1,2.1-1.5c0.3-0.2,0.6-0.3,0.9-0.5c0.7-0.4,1.1-1.1,1.3-1.8
		c0.2-0.8,0-1.6-0.4-2.2c-1.6-2.4-2.4-5.1-2-6c0-0.1,0.1-0.3,0.8-0.4c1.2-0.3,2.1-1.3,2.2-2.5c0.1-0.9-0.3-1.8-1-2.4
		c0.1,0,0.1,0,0.2,0c1.4,0,2.6-1.1,2.8-2.5c0.2-1.4-0.7-2.8-2.1-3.1c-11.2-2.8-22.3,1.3-31.6,11.5c-4,4.4-7.1,6.5-13.2,6
		c-5.9-0.5-12.8-3.5-17.2-7.5c-0.6-0.5-1.2-1.1-1.8-1.6c-3-2.9-6.5-6.2-12-6.8c-1.3-0.1-2.6-0.2-4-0.2c-3.9,0-7.7,0.6-11.5,1.2
		c0.1-0.1,0.2-0.2,0.3-0.2c1.9-1.6,3.8-3.2,5.5-4c2.1-0.9,4.5-1.8,6.7-2.6c1.5-0.5,3-1.1,4.5-1.6c2.4-0.9,5.1-1.1,7.6-0.5
		c1.4,0.3,2.9-0.5,3.4-1.9c0.3-0.9,0.3-1.9,0.3-2.8c0-0.1,0-0.3,0-0.5c0.6-0.1,1.1-0.3,1.5-0.7c0.7-0.6,1-1.6,0.8-2.5l-0.1-0.6
		c-0.3-1.8-0.3-1.8,0.5-2.4c0.6-0.5,1-1.2,1-2c0.1-0.8-0.2-1.5-0.7-2.1c-0.5-0.5-1-1-1.7-1.4c1.3-0.9,2.4-1.8,3.2-2.8
		c0.6-0.7,0.8-1.6,0.6-2.4c-0.2-0.9-0.7-1.6-1.5-2c-1.1-0.6-2.5-0.8-4.4-0.8c-0.9,0-1.8,0.1-2.7,0.1c-0.6,0-1.2,0.1-1.7,0.1
		c-3.5,0-6.9,0.1-10.1,0.3c-0.7,0-1.3,0-2,0.1c-3.4,0.1-7.3,0.2-11,2.1c-3.4,1.9-5.9,4.6-8.3,7.3l-0.9,1c-2.6,2.8-5,5.9-7.3,8.8
		c-3.2,4.1-6.5,8.2-10.2,11.7c-2.7,2.6-5.4,4.1-9.4,5.3l-0.2,0c-1.7,0.5-3.4,1-5,1.4c0.2-1.2,1.1-2.7,2.5-4.7
		c5.6-7.8,18-27.9,12.4-44.9c-5-15.1-13.2-24.5-27.8-31.7c0.3-0.3,0.6-0.6,0.9-0.9c0.9-1.2,0.8-2.8-0.3-3.8
		c-1.9-1.7-4.9-2.3-8.7-1.7c0-0.2,0-0.3-0.1-0.5c-0.2-1.4-1.2-2.5-2.8-3.4c-1.1-0.6-2.4-0.9-3.9-0.9c-2.1,0-4.4,0.6-6.6,1.3
		c-0.1-0.2-0.1-0.4-0.2-0.5c-0.4-0.8-1.2-1.3-2.1-1.5c-0.6-0.1-1.3-0.1-2-0.1c-3.2,0-8.1,1-12.2,3.1c-0.2-0.3-0.5-0.6-0.8-0.9
		c-0.8-0.5-1.8-0.6-2.6-0.3c-3.3,1.3-6.9,5.4-9.1,9.4c-0.5-0.4-1.2-0.5-1.8-0.5c-0.8,0.1-1.6,0.5-2.1,1.2
		c-6.9,9.6-6.7,23.7,0.2,33.3c-0.8,1.2-1.5,2.5-2.3,3.9c-1.2,2-1.8,4-2.1,6.2c-0.9,0-1.7,0.4-2.3,1.1c-0.8,0.9-1.1,2.4-0.8,4.3
		c0.4,3,2,4,3.2,4.3c0,1.7-0.3,2.9-1,4.5c-0.1,0.3-0.9,1.1-1.3,1.6c-1.3,1.4-2.5,2.8-2.7,4.4c-0.6,4.6,2.6,7.1,4.8,8.8
		c2.6,2,3.4,2.7,1.9,5.5c-0.4,0.8-0.4,1.8-0.1,2.6c0.3,0.5,0.7,1,1.2,1.3c-0.7,1.6-1.2,3.1-1.4,4.4c-1.2,2.3-1.2,4.3-1.2,6.2
		c0,0.8,0,1.8-0.1,2.9c-0.3,4.2-2.3,8.1-5.6,11.1c-0.7,0.7-1,1.6-0.9,2.6c0.2,1,0.8,1.8,1.7,2.1c1.5,0.6,3,0.9,4.5,0.9
		c1.2,0,2.3-0.2,3.4-0.4c-0.1,0.8,0.1,1.5,0.6,2.2c0.7,0.9,2,1.3,3.1,0.9c0.6-0.2,1.3-0.4,1.9-0.6l0.1,0c2.8-0.8,5.8-1.8,8.6-3.2
		c0.2,1,0.9,1.7,1.9,2c0.2,0.1,0.3,0.1,0.5,0.1c-2.6,3-2.4,5.3-1.7,6.6c0.4,0.8,1.1,1.8,2.7,2.5c-1.1,1.5-2.1,3-3,4.4
		c-0.7,1.2-1.4,2.4-2,3.6c-4.4,5.2-7.8,11.3-10.3,18.5c-6.8,19.8-2.7,40.3,1.4,60.1c1.2,5.7,2.5,12.2,3.4,18.4l0,0.1
		c-6,8.1-13.2,14.5-19.5,19.7c-0.9,0.8-1.9,1.6-2.9,2.5c-1.5,1.3-2.8,2.4-4.2,3.5c-0.6,0.2-1,0.4-1.4,0.5c-0.4,0.1-0.9,0.2-1.4,0.2
		c-1.6,0-3.5-0.5-5.6-1.1c-2.3-0.7-4.7-1.3-7.2-1.3l-0.2,0c-5.2,0.1-7.2,2.7-9.1,5.2c-0.5,0.6-1,1.3-1.5,1.9c-0.5,0.4-1,1-1.5,1.6
		l-0.6,0.6c-1.8,1.7-4.1,3.9-4.8,6.9c-2,2.4-4.8,5.9-3.1,11c1.4,4.3,4.6,6.8,7.2,8.7c0.4,0.3,0.7,0.6,1.1,0.8l-20.8,94.5
		c-2.7,0.4-5,2.4-5.6,5.2L51.3,511.6c-3,1-5.3,3.6-6.1,6.8l-0.9,5.1c-0.7,3.1,0.3,6.2,2.5,8.4l-2.6,11.9c-1.8,0.5-3.3,1.7-4.3,3.3
		c-16.5,2.7-29.9,15.3-33.4,31.6c-2.3,10.7-0.4,21.6,5.5,30.8c5.9,9.2,15,15.6,25.7,17.9c2.9,0.6,5.9,1,8.8,1
		c19,0,35.8-13.5,39.9-32.1c3.7-16.9-3.6-34.3-18.2-43.5c-0.3-1.7-1.2-3.2-2.5-4.3l1.4-6.6l51.8,45.3c1.7,7.6,8.5,13.1,16.4,13.1
		c2.9,0,5.8-0.8,8.3-2.2h129.5c1.1,4,2.8,7.9,5.1,11.4c5.9,9.2,15,15.6,25.7,17.9c2.9,0.6,5.9,1,8.8,1c19,0,35.8-13.5,39.9-32.1
		c2.3-10.7,0.4-21.6-5.5-30.8c-5.9-9.2-15-15.6-25.7-17.9c-2.9-0.6-5.9-1-8.8-1c-18.7,0-35.2,13-39.7,31.1h-0.8
		c0-0.2,0.1-0.4,0.1-0.5C276.5,557.8,293.3,544.1,313.1,543.9z M239.3,565.6c-0.3-0.9-0.7-1.9-1-3.1c-0.4-1.6,0.1-6.5,0.5-9.8
		c0.3-3.1,0.6-5.5,0.6-7.2c0.2-0.3,0.3-0.6,0.3-0.9c1.1-6.8-1.4-15.2-3.6-22.5c-0.6-1.9-1.1-3.7-1.5-5.4c-2.4-9.4-3.7-17.8-4.1-28.4
		c-0.2-5.2-0.9-10.7-1.7-15.7c4.8,1.8,10.2,3.2,17.3,4.4c16.1,2.7,31.9,7.7,47.2,12.6c1.6,0.5,3.5,1.7,5.3,2.8
		c2.2,1.4,4.3,2.7,6.5,3.3c0.1,0.1,0.3,0.2,0.5,0.3c0.6,0.3,1.3,0.8,2.3,1c0.1,1.4,0.5,2.1,1.6,3.6c0.2,0.3,0.5,0.6,0.8,1
		c0.9,1.3,2.2,2.3,3.4,3.2c0.9,0.7,1.7,1.4,2.3,2.1c2.1,2.5,3.8,5.4,5.5,8.3c0.9,1.6,1.9,3.2,2.9,4.8c1.8,2.8,3.3,5.8,4.8,8.9
		c0.4,0.8,0.8,1.5,1.1,2.3c-1.7-0.5-3.3-1-4.9-1.3c-4.2-0.9-8.5-1.4-12.8-1.4c-27.5,0-51.7,19.5-57.7,46.4c-0.2,0.9-0.4,1.9-0.6,2.9
		H240c0.2-1.3,0.5-2.8,0.6-4.3C240.9,569.8,240.1,567.8,239.3,565.6z M93.7,401.2l20-90.7c0.2,0,0.5,0,0.7,0c7.1,0,13-5.5,13.6-12.4
		c5.3-0.7,10.1-4.2,14-7c1.3-0.7,2.6-1.5,3.8-2.1c1.6-0.9,3.3-1.9,4.9-2.7c2.5-1.3,5.3-2.7,8.1-4.2c-0.2,13.1-1,26.3-1.7,39
		l-0.4,6.5c-0.1,1.2-0.2,2.1-0.3,2.9c-0.4,4,0,4.9,3.5,9.9c1.4,2,3.5,5,6.1,7.4c0.2,3.3,0.1,11.2-0.1,15c-0.3,7-0.2,14.1-0.2,20.9
		c0,2.5,0,4.9,0,7.4c0,9.6,1,20.5,2.5,28.6c0.9,4.8,2.7,9.4,4.4,13.8c1.7,4.5,3.5,9.1,4.3,13.8c0.3,1.9,0.4,3.9,0.5,5.8
		c0.2,3.2,0.3,6.4,1.3,9.7c1.4,4.6,3.1,9.4,4.7,14.1c3.9,11.6,8,23.5,9.9,35.1c0.2,1.1-0.3,7.9-0.6,12.8
		c-0.9,13.1-1.1,17.8-0.6,20.1c-0.2,0.2-0.4,0.4-0.6,0.6c-0.4,0.2-0.8,0.6-1,0.9c-0.1,0.1-0.3,0.2-0.4,0.3c-2.6,1.9-5.7,3.3-8.7,4.8
		c-1.6,0.8-3.3,1.6-5,2.5c-3,1.6-6,2.8-9.2,4.1c-2.4,0.9-4.9,1.9-7.4,3.1c-6.9,3.2-11.3,6.4-13.3,9.6c-3.1-2.7-7-4.1-11-4.1
		c-2.2,0-4.4,0.4-6.5,1.3l-51.7-45.2c-0.2-2.9-1.7-5.6-4.2-7.2l23.6-107.4C97.2,405.5,96,402.7,93.7,401.2z M104.8,296.9
		c0-5.2,4.3-9.5,9.5-9.5c5.2,0,9.5,4.3,9.5,9.5c0,5.2-4.3,9.5-9.5,9.5C109.1,306.4,104.8,302.2,104.8,296.9z M175.1,324.4
		c0.1,1.9,0.2,3.8,0.1,5.8c0,0.4,0.1,0.8,0.4,1c0.3,0.3,0.7,0.4,1.1,0.3c5.1-0.6,10.3-2.3,15.3-3.8c5.4-1.7,11-3.4,16.4-3.9
		c8.6-0.8,18.6,3.8,27.4,7.8c1.9,0.9,3.8,1.7,5.5,2.5c3.2,1.4,5.8,1.2,8,0.3c0.6,0.8,0.7,1.2,0.7,1.2c-0.7,0.8-5.8,0.7-9.8,0.6
		c-0.9,0-1.9,0-2.9-0.1c-4.1-0.1-8.5-0.8-12.7-1.5c-7.4-1.2-15-2.5-22.1-0.6c-4.2,1.2-8.1,3.9-11.8,6.6c-5.7,4.1-11.1,7.9-17.6,6.5
		c-3.8-0.8-7.7-6.3-9.7-9.2c-3.1-4.3-3.1-4.3-2.8-7c0.1-0.8,0.2-1.8,0.3-3.1l0.4-6.5c0.9-15.3,1.9-30.8,1.8-46.3
		c2.5-1.7,5.2-3.1,7.8-4.6c2.4-1.3,4.8-2.6,7.1-4c0.3,2.6,0.8,5.1,1.4,7.6c0.7,2.9,1.4,5.8,1.5,8.7c0.2,4.9-0.8,9.3-2,14
		c-0.2,0.8-0.4,1.5-0.5,2.3c-0.7,2.9-1.1,5.9-1.6,8.8c-0.3,2.1-0.7,4.4-1.1,6.5C174.8,318,174.9,321.2,175.1,324.4z M248.4,362.3
		c0.1,1.9,0.1,3.5,0.2,4.6c-0.3,0-0.6,0-0.8,0.1c-6.9,3.7-15.1,2.4-20.4-3.3c-4.7-5.1-5.9-13.1-6.2-20.7c-0.1-2.2-0.1-4.3-0.1-6.3
		c1,0.2,2,0.3,2.9,0.5c4.3,0.7,8.8,1.4,13.1,1.5c1,0,2,0,2.9,0.1c0.1,0,0.1,0,0.2,0c3.4,0.1,6.1,0.1,8.1-0.1
		C247.9,342.1,247.9,348.8,248.4,362.3z M234,561.9c-0.2,0-0.4,0-0.6,0.1c-1.8,1-3.4,2.5-4.9,4c-1.3,1.3-2.5,2.5-3.8,3.3
		c-2,1.3-4.6,1.9-7,2.5l-0.7,0.2c-8.3,2.1-17.2,3.2-25.8,3.2c-12.7,0-26.3-0.2-40-1.5c-0.2,0-0.5-0.1-0.7-0.1
		c-0.2,0-0.5-0.1-0.8-0.1c1-1.9,3.9-4.8,11.8-8.5c2.3-1.1,4.7-2,7.1-3c0.1,0.4,0.4,0.7,0.8,0.9c1.7,0.6,2.2,2.9,2.7,5
		c0.2,0.9,0.4,1.7,0.7,2.5c0.2,0.5,0.7,0.9,1.3,0.9c0.1,0,0.2,0,0.3,0l0.2,0c2.2-0.5,5.3-1.2,5.8-4.6c0.3-1.9-0.5-3.7-1.2-5.2
		c-0.4-0.8-0.8-1.7-0.9-2.4c2.2,0.8,3.6,5.7,4.3,8.3c0.1,0.5,0.3,0.9,0.4,1.3c0.2,0.5,0.6,0.9,1.1,0.9c1.2,0.1,5.1-0.5,6.1-2.3
		c0.8-1.4,0.4-3.7-0.1-5.9l-0.1-0.4c-0.1-0.5-0.4-1.3-0.8-2.4c-0.3-0.7-0.7-1.8-1-2.8c1.6,1.5,2.7,3.7,3.8,5.9
		c0.2,0.5,0.4,0.9,0.6,1.3c0.6,1.4,1.2,2.7,2.5,2.9c1.2,0.1,2.2-0.9,2.8-1.9c3.7-5.3,1.1-9.2-1.3-12.5c-0.7-1-1.4-2-2-3.1
		c0.3-0.3,0.5-0.5,0.8-0.8c0.3-0.3,0.6-0.6,0.9-0.9c5.2,1.8,9.6,2.9,15.6,2.3c2.1-0.2,4.2,0.1,6.5,0.3c1.8,0.2,3.6,0.4,5.6,0.4
		c1,0,2.1-0.1,3.2-0.2c0.4-0.1,0.8-0.3,1-0.7c1.1-2.2,4.2-3.1,7.1-3.2c0,1.6-0.3,4.5-0.5,6.8C234.3,555.8,233.9,559.4,234,561.9z
		 M171.3,561c1.4-0.5,2.7-1.1,4.1-1.7c0.2,1.2,0.7,2.3,1.2,3.4c0.6,1.3,1.2,2.6,1,3.7c-0.2,1.2-1,1.7-2.7,2.1
		c-0.1-0.3-0.2-0.7-0.2-1C174.1,565.1,173.4,562.4,171.3,561z M179.9,556.9c1.1-0.5,2.2-1.1,3.2-1.6c0.6-0.3,1.2-0.6,1.8-0.9
		c0.1,1.2,0.7,2.9,1.5,5.1c0.3,0.8,0.6,1.7,0.7,2l0.1,0.4c0.5,2.2,0.7,3.5,0.4,3.9c-0.3,0.4-1.7,0.8-2.7,1c0-0.1,0-0.2-0.1-0.2
		C184.1,563.6,182.7,558.7,179.9,556.9z M195.5,562.5c-0.1,0.2-0.2,0.3-0.3,0.4c-0.1-0.3-0.3-0.6-0.4-0.9c-0.2-0.5-0.4-1-0.7-1.5
		c-1.2-2.4-2.7-5.2-4.7-7c-0.3-0.2-0.6-0.6-1.1-0.8c1.4-0.7,2.7-1.5,4-2.4c0,0,0,0,0,0c0.6,1,1.2,1.9,1.8,2.8
		C196.6,556.3,198.2,558.7,195.5,562.5z M150,576.3c0.3,0.1,0.6,0.1,0.9,0.1c13.9,1.3,27.5,1.5,40.3,1.5c0.1,0,0.1,0,0.2,0
		c8.8,0,17.9-1.1,26.3-3.3l0.7-0.2c2.7-0.7,5.4-1.4,7.8-2.9c1.6-1,2.9-2.4,4.3-3.7c1.4-1.4,2.7-2.6,4.1-3.4c0.3,1,0.6,1.8,0.9,2.6
		c0.7,1.9,1.2,3.3,1,6c-0.2,2.1-0.5,4.1-1,6.1H151c-0.9-1-1.5-2-1.7-3C149.5,576.2,149.7,576.2,150,576.3z M318.3,503.5
		c0.9-0.9,2.2-2,3.5-3c1.5-1.1,3-2.3,4.1-3.5c0.3-0.3,0.5-0.6,0.7-0.9c0.4-0.5,0.5-0.6,0.6-0.6c0.4,0.2,1.3,1,1.4,1.3
		c0.6,1.8-4.9,6.5-6.9,8.3c-0.5,0.4-0.9,0.8-1.3,1.1c-0.5-0.7-1-1.3-1.5-1.9C318.8,504,318.6,503.7,318.3,503.5z M323.7,510.9
		c0.1,0,0.1,0,0.2,0c1.8-0.3,3.7-1.5,5.3-2.6c0.5-0.3,0.9-0.6,1.3-0.9c2.7-1.7,4.6-2.5,7.3-2.6c0.3,1.6,0,1.9-1.5,2.8
		c-2.7,1.6-5.6,3.3-8.1,5.5l-0.3,0.3c-0.5,0.4-1.2,1-1.6,1.8c-0.4-0.7-0.8-1.4-1.2-2.1C324.5,512.4,324.1,511.7,323.7,510.9z
		 M331.6,524.4c-0.7-1.5-1.5-2.9-2.3-4.4c1.6-0.2,3.3-1.2,4.7-2.1c0.6-0.4,1.3-0.8,1.7-1l0.7-0.3c1.7-0.8,4.1-1.9,5.7-1.4
		c0.5,0.2,1.6,1.1,2,2c0.1,0.1,0.2,0.5,0.1,0.7c-0.4,0.7-3.3,1.9-5.3,2.6C336,521.8,333.1,522.9,331.6,524.4z M332,461
		c0.2-0.3,0.2-0.7,0.1-1c0.1,0,0.1-0.1,0.2-0.1c1.9-0.9,3.2-1.5,5.9-1.5l0.2,0c2.1,0,4.1,0.2,6.3,0.5c1.1,0.1,2.2,0.3,3.4,0.3
		c2.3,10.6,3.4,22.5,4.5,34l0.2,1.6c0.2,2.2,0.4,4.5,0.7,6.7c1.1,10.6,2.2,21.6,2.1,32.2c0,2.4-1.3,5.8-3.2,8.2
		c0.2-0.5,0.3-1.1,0.5-1.6c0.2-0.7,0.4-1.3,0.6-2c1.9-6.4,0.4-14.5-0.6-20.4c-0.3-1.5-0.6-3-1-4.4c-0.6-2.3-1.2-4.6-1.3-6.8
		c-0.1-1.6-0.2-3.2-0.2-4.7c-0.1-2.6-0.2-5.2-0.6-7.8c-1.2-8.1-3.7-13.3-8.4-18.2c-0.9-0.9-2-1.9-3-2.8c-1.6-1.3-3.2-2.7-4.2-4.2
		C332.5,467.4,331.3,462.2,332,461z M320.8,463.9c-0.2-0.7-0.5-1.3-0.9-1.9c0.8,0,1.5,0,2.2,0c3.4,0,5.4-0.2,6.7-0.6
		c0.1,0,0.2-0.1,0.3-0.1c-0.3,3,1.2,7.8,2.5,9.6c1.2,1.7,3,3.2,4.7,4.6c1,0.9,2,1.7,2.9,2.6c4.3,4.4,6.5,9.3,7.7,16.7
		c0.4,2.4,0.5,5,0.5,7.5c0.1,1.6,0.1,3.2,0.2,4.8c0.2,2.5,0.8,4.9,1.4,7.3c0.4,1.5,0.7,2.9,1,4.3c1,5.6,2.5,13.3,0.7,19.1
		c-0.2,0.6-0.4,1.3-0.6,2c-0.2,0.8-0.4,1.5-0.7,2.3l-0.1,0.5c-0.1,0.5-0.5,1.8-0.8,2.5c-0.1,0-0.1,0.1-0.2,0.1
		c-0.2,0.1-0.5,0.1-0.7,0.1c-0.1,0-0.2,0-0.3,0c-1.6,0-5.2-1.5-11-11.4c-1.2-2.1-2.3-4.2-3.3-6.3c0-0.1,0-0.3,0-0.4
		c-0.3-1.2,4.4-3,6.7-3.9c3.7-1.4,6-2.4,6.7-3.9c0.4-0.9,0.4-1.9,0-3c-0.6-1.6-2.2-3.1-3.6-3.6c-2.5-0.8-5.5,0.5-7.7,1.5l-0.7,0.3
		c-0.6,0.3-1.3,0.7-2,1.1c-1.1,0.6-3.6,2.1-4,1.6c-0.3-0.4-0.4-0.5,1.1-1.9l0.3-0.3c2.3-2,5-3.7,7.6-5.2c3.3-1.9,3.2-3.8,2.6-6.7
		c-0.1-0.6-0.6-1-1.3-1.1c-4-0.2-6.5,0.9-9.9,3c-0.4,0.3-0.9,0.6-1.5,1c-1.3,0.9-2.9,2-4.1,2.2c-0.4,0.1-0.6,0.1-0.7,0.1
		c0,0-0.1-0.1-0.1-0.2c0,0-0.1-0.1-0.1-0.1c0.3-0.3,0.7-0.6,1-0.9c4.8-4.2,8.7-8,7.7-11.2c-0.3-1.1-2.4-3.1-3.7-3.2
		c-1.8-0.1-2.6,1-3.1,1.7c-0.2,0.2-0.3,0.4-0.5,0.7c-1,1-2.4,2.1-3.7,3.2c-1.5,1.1-2.9,2.2-3.9,3.3c0,0-0.1-0.1-0.1-0.1
		c-1-0.8-2-1.6-2.6-2.5c-0.3-0.5-0.6-0.8-0.8-1.1c-0.8-1-0.8-1-0.8-2.3c0-0.5,0-1.2-0.1-2.1l-0.1-1.3c0.8-0.7,1.8-1.3,2.7-1.9
		c2.3-1.5,4.7-3,5.7-6c0.9-2.5,0.4-5.4,0-8.2c-0.3-1.6-0.5-3.1-0.5-4.4c0-0.7,0.3-1.8,0.6-2.9C320.7,467,321.2,465.3,320.8,463.9z
		 M259.8,428.8c2.2,0.5,4.2,1,5.7,1.8c5.5,3,11.1,6.6,15.6,10c6.5,5,13,9,19.8,13.2l3,1.8c1.3,0.8,3,1.6,4.8,2.4
		c3.9,1.7,8.7,3.9,9.5,6.7c0.2,0.7-0.3,2.4-0.6,3.6c-0.3,1.3-0.6,2.5-0.6,3.5c0,1.6,0.2,3.3,0.5,4.9c0.4,2.5,0.8,5,0.2,6.9
		c-0.7,2.1-2.5,3.3-4.6,4.6c-1.8,1.1-3.7,2.4-5.2,4.4c-0.1,0-0.2-0.1-0.2-0.1c-0.5-0.3-0.9-0.6-1.5-0.7c-1.6-0.4-3.4-1.6-5.4-2.8
		c-2-1.3-4.1-2.6-6.2-3.3c-15.4-4.9-31.4-10-47.8-12.8c-12-2-21.8-4.9-30.9-12.7c-5-4.3-8-15.6-10.7-25.6c-1.3-5-2.6-9.6-3.9-12.9
		c-3.2-7.6-6.8-16.2-8.6-24.9c-1.2-5.5-1.9-11.4-2.5-17.2c-1.1-9.5-2.2-19.4-5.7-28.3c0-0.1,0-0.1-0.1-0.2c-0.3-0.7-1.1-1-1.7-0.8
		c-0.7,0.3-1,1.1-0.8,1.7c3.4,8.6,4.5,18.4,5.6,27.8c0,0.3,0.1,0.6,0.1,0.9c0.6,5.5,1.3,11.2,2.5,16.5c1.9,8.9,5.5,17.6,8.8,25.3
		c1.3,3.1,2.5,7.7,3.8,12.6c2.8,10.4,5.9,22.2,11.5,27c3.2,2.7,6.4,4.9,9.8,6.6c1.1,6.8,2.2,13.6,2.4,19.7
		c0.4,10.9,1.7,19.6,4.2,29.3c0.4,1.7,1,3.5,1.6,5.5c1.9,6.5,4.1,13.8,3.6,19.5c-2.6,0.1-7.4,0.7-9.6,4.1c-2.6,0.3-5,0-7.4-0.3
		c-2.3-0.3-4.6-0.6-7-0.3c-5.9,0.5-10.1-0.6-15.5-2.5c-0.4-2.3,0.3-12.1,0.7-18.7c0.5-7.6,0.8-12.3,0.6-13.8c-1.9-11.9-6-24-10-35.7
		c-1.6-4.6-3.2-9.4-4.6-14c-0.9-2.8-1-5.7-1.2-8.7c-0.1-2-0.2-4.1-0.6-6.2c-0.8-5.1-2.7-10-4.5-14.7c-1.7-4.4-3.3-8.6-4.2-13
		c-1.5-7.8-2.4-18.5-2.4-27.8c0-2.5,0-5,0-7.4c0-6.8-0.1-13.9,0.2-20.7c0.1-3.2,0.2-9.5,0.1-13.6c0-0.1,0-0.3,0-0.4
		c0.7,0.4,1.5,0.7,2.2,0.8c1.1,0.2,2.2,0.4,3.3,0.4c6.2,0,11.4-3.7,16.5-7.3c3.7-2.7,7.2-5.2,11-6.2c4.8-1.3,10-1,15.3-0.3
		c0,2.3,0,4.8,0.1,7.3c0.4,7.9,1.7,16.4,6.9,22c3.8,4.1,8.9,6.2,14.2,6.2c3.1,0,6.2-0.7,9.1-2.2c0,1.7,0.1,3.5,0.2,5.2
		c0.2,2.7,0.3,5.6,0.2,8.4c-0.1,3.1-0.3,6.2-0.5,9.2c-0.5,7.6-0.9,14.8,0,22.8c0.1,0.5,0.1,1.2,0.1,1.9c0.1,2.6,0.3,5.9,1.9,7.7
		C252.8,427.2,256.4,428,259.8,428.8z M264.5,329.1c0.6,0.8,0.5,2-0.1,3.2c-1.5,3.2-3.3,4.7-6.3,5.2c-0.4,0.1-4.6,1.2-7.2,2.8
		c0.1-1,0.2-1.9,0.3-2.4c0.5-0.3,0.9-0.7,1.1-1.2c0.6-1.2,0.1-2.6-0.6-3.6c0.9-0.5,1.7-1.1,2.5-1.6c2.3-1.6,4.5-3.1,7.3-3.4
		C262.9,328,263.9,328.3,264.5,329.1z M261.8,325.4c-0.2,0-0.4,0-0.6,0c-3.5,0.3-6.2,2.2-8.5,3.8c-1.1,0.7-2,1.4-3,1.9
		c-2.2,1.2-4.4,1.6-7.4,0.3c-1.7-0.7-3.5-1.6-5.4-2.4c-9.1-4.2-19.4-8.9-28.8-8c-5.7,0.5-11.4,2.3-16.9,4c-4.6,1.4-9,2.8-13.3,3.5
		c0-1.5,0-3-0.1-4.4c-0.1-3.1-0.2-6.1,0.4-9.3c0.4-2.2,0.8-4.5,1.1-6.6c0.4-2.8,0.9-5.8,1.6-8.6c0.2-0.8,0.4-1.5,0.5-2.3
		c1.2-4.9,2.3-9.5,2-14.8c-0.1-3.1-0.9-6.2-1.6-9.2c-0.7-3-1.4-5.8-1.5-8.7c1.8-1.1,3.8-2.2,5.8-3.4c7.6-4.4,15.5-9,20.4-15.8
		c0.7-1,1.7-2.4,2.7-4.1c0.4,0.1,0.9,0.2,1.4,0.3c3.1,0.5,6.3,0.4,9.5,0.3c3-0.1,5.8-0.2,8.5,0.2c1,0.1,1.9,0.3,2.8,0.6
		c4.1,1,7.3,2.9,10.9,5c0.1,0.1,0.2,0.1,0.3,0.2c1.1,0.6,2.1,1.3,3.3,1.9c0.6,0.3,1.2,0.7,1.8,1c1,0.5,2,1.1,2.9,1.6
		c0.1,0.2,0.1,0.4,0.2,0.6c1.1,3.3,2.3,6.7,3.1,10.2c1.3,5.6,1.8,11.5,2.3,17.1c0.2,2.3,0.4,4.7,0.7,7c0.3,2.8,0.6,5.6,0.9,8.4
		c0.5,5.2,1,10.4,1.7,15.6C260.1,316.2,260.8,320.9,261.8,325.4z M229,146.5l0.8,0.8c0.4,0.4,0.8,0.8,1.2,1c0.3,0.9,0.7,1.8,1.1,2.7
		c1.3,2.8,2.9,5.5,4.5,8.1c0.8,1.4,1.7,2.8,2.5,4.2c0.1,0.2,0.2,0.4,0.3,0.6c1,1.7,1.8,3.5,2.5,5.3c2.6,6.5,3.2,13.8,3.8,20.8l0.1,1
		c0.7,8.2,1.4,17.1,1,25.7c-0.1,1.7-0.2,3.4-0.3,5c-0.2,3.5-0.4,7-0.3,10.6c-1.5-1.3-3-2.4-4.6-3.1c-1.7-0.8-3.2-1.4-4.7-2
		c-3.5-1.4-6.6-2.3-9.5-2.8c-1-0.2-2-0.3-3-0.4c-0.2,0-0.4,0-0.6,0c0.9-2.4,1.3-5.7,0.9-7.8c0.7-1.3,0.5-2.3,0.2-3
		c-0.1-0.2-0.2-0.4-0.3-0.6c0.1-0.3,0.2-0.6,0.3-1c0.4-1.4,0.8-2.9,1.1-4.3c0.7-3.4,1.7-6.8,2.6-10.1c0.1-0.3,0.2-0.6,0.2-0.9
		c0.6-2.2,1.3-4.5,1.9-6.8c1.2-5,0.8-10.5,0.5-15.8c-0.1-2-0.3-3.8-0.3-5.6c-0.1-5.3-1.8-9.6-3.3-13.7c-0.7-1.9-1.5-3.9-2.1-6
		c-0.2-0.7-1-1.1-1.7-0.9c-0.7,0.2-1.1,1-0.9,1.7c0.6,2.2,1.4,4.2,2.1,6.2c1.6,4.1,3,8,3.2,12.8c0.1,1.9,0.2,3.8,0.3,5.8
		c0.4,5.1,0.7,10.4-0.4,15c-0.6,2.6-1.4,5.1-2.1,7.6c-1,3.3-2,6.8-2.7,10.3c-0.3,1.3-0.6,2.7-1,4c-2.9-1.4-7.6-2-12.6-2.5
		c-1.2-0.1-2.2-0.2-2.7-0.3c-2.4-0.5-4.8-1.1-7.2-1.6c-5.8-1.4-11.9-2.8-18.1-3.3c-0.5,0-1-0.1-1.4-0.1c-0.5,0-1,0-1.5,0.1
		c0.1-0.9,0.3-1.8,0.4-2.8c0.7-4.3,1.3-8.7,1.4-13.3c0-4.1-1-7.4-2.1-10.6c-0.6-2-1.3-4-1.7-6.2c-1.2-6.6,2.6-16.9,7.7-20.8
		c5.3-4,12.8-4,19.4-4l1.3,0c0.7,0,1.3-0.6,1.3-1.3s-0.6-1.3-1.3-1.3l-1.3,0c-7,0-15,0-21,4.6c-5.9,4.5-10.1,15.8-8.7,23.4
		c0.4,2.4,1.1,4.5,1.8,6.5c1,3.1,2,6.1,2,9.7c0,2.3-0.2,4.6-0.5,6.8c-0.1-0.1-0.1-0.1-0.2-0.2c-1.8-2-3.5-3.9-4.8-6.1
		c-2.7-4.8-3.1-11-3.4-16.5l0-0.3c-0.9-14.7,9.9-33,22.7-38.2c3.4-1.4,9.7-3.7,15.9-4.1c0.8-0.1,1.5-0.1,2.3-0.1c0.3,0,0.6,0,0.8,0
		c2.6,0.1,4.9,0.6,6.8,1.5c4.2,2,9.2,9.4,11.5,14.7c-0.3,0.2-0.4,0.5-0.5,0.8C228.6,145.7,228.7,146.2,229,146.5z M234.1,148.6
		c1-0.3,2-0.8,2.9-1.4c0.2-0.1,0.5-0.3,0.7-0.4l0.3-0.1c3.1-1.8,6.4-3.6,9.4-3.6c2,0,3.8,0.9,5.5,2.6c3.5,3.8,5.4,9.2,7.2,14.6
		c-0.3,0-0.7,0.1-1,0.4c-3.5,3.3-6.6,5.4-10.8,5.3c-2.6-0.1-3.8-1.2-5-2.4c-0.5-0.5-1.1-1-1.7-1.5c-0.8-1.5-1.7-2.9-2.5-4.3
		c-1.5-2.5-3.1-5.2-4.4-7.9C234.4,149.5,234.3,149,234.1,148.6z M180.4,205.6c0.4,0,0.8,0,1.2,0c6,0.4,12,1.9,17.7,3.2
		c2.4,0.6,4.8,1.1,7.3,1.7c0.6,0.1,1.6,0.2,2.9,0.4c3,0.3,12,1.2,13,3.2c-0.2,0.1-0.4,0.2-0.5,0.3c-0.5,0.5-0.5,1.2-0.1,1.8l0.2,0.3
		c0.5,1.2-0.2,6-1.4,8c-1,1.5-2,1.8-3.3,1.8c-0.8,0-1.7-0.1-2.7-0.3c-0.5-0.1-1.1-0.2-1.6-0.2c-7.1-0.9-15.4-1.9-23.2-3.3
		c-1.7-0.3-3.4-0.4-5-0.5c-5.8-0.4-9.1-0.9-9.9-5.8c-0.6-3.4-0.9-7.1,0.7-9C176.6,206.2,178.1,205.6,180.4,205.6z M214.9,228.8
		c0.9,0.1,1.7,0.2,2.6,0.2c2.1,0,3.7-0.8,5-2.4c0.7,0,1.3,0,1.8,0c4.7,0.4,9.9,2,16.3,5c6.3,3,12,12.2,14.7,20.8
		c-2.1-1.5-4.3-2.7-6.4-3.8c-0.6-0.3-1.2-0.6-1.8-1c-1.2-0.7-2.4-1.4-3.6-2.1c-4.4-2.6-8.7-5.1-14.7-5.9c-3-0.4-6-0.3-9-0.2
		c-3,0.1-6.1,0.2-9-0.2c-0.1,0-0.2,0-0.4-0.1C212.4,236,214,232.4,214.9,228.8z M301.2,268.5c-0.3,0.7-0.5,1.3-0.9,2
		c-0.3,0.7-0.7,1.5-1,2.3c0,0.1,0,0.1-0.1,0.2c-6.5,5.6-14.4,9.5-22,9.5c-3.2,0-6.3-0.7-9.2-2.1c-4.5-2.1-7.8-5.2-10.1-9.3
		c-0.4-2.8-0.8-5.6-1.5-8.4c-0.6-2.6-1.4-5.2-2.3-7.8c0.9,0.7,1.8,1.4,2.6,2.3c0.3,0.3,0.6,0.4,1,0.4c0.2,0,0.4-0.1,0.6-0.2
		c0.5-0.3,0.8-0.9,0.7-1.5c-1.4-6.9-5-15-9.9-20.7c-0.3-4.4-0.1-8.8,0.2-13.3c0.1-1.7,0.2-3.4,0.3-5.1c0.3-8.8-0.3-17.7-1-26.1
		l-0.1-1c-0.6-7.2-1.3-14.6-4-21.6c-0.1-0.2-0.1-0.3-0.2-0.5c1,0.5,2.3,0.9,3.9,1c0.1,0,0.3,0,0.4,0c5.1,0,8.9-2.8,12.2-6
		c0.8,2.5,1.7,5,2.7,7.3c1.7,3.7,4.2,7,7.3,9.8c0,0.1,0,0.1,0,0.2c0.2,5.7,4.7,10.8,8.6,15.3c1.4,1.6,2.8,3.2,3.8,4.6
		c3.6,5,6,11.2,8.3,17.3c0.9,2.4,1.8,4.9,2.8,7.2C300.9,239.5,306.1,255.3,301.2,268.5z M313.1,253.2c-1.6,5.1-4.8,10.3-9,15
		c4.5-13.8-0.8-29.7-7.2-44.8c-1-2.3-1.8-4.6-2.8-7.1c-2.4-6.2-4.8-12.7-8.6-17.9c-1.1-1.5-2.5-3.1-4-4.8c-3.1-3.5-6.5-7.4-7.6-11.3
		c4.8,3.4,10.6,5.7,16.9,6.5c0.4,0,0.8,0.1,1.2,0.1c0.7,2.6,1.9,6,4,7.5c0.7,0.5,1.5,0.8,2.2,0.8c2.4,6.9,4.8,14.4,7.4,22.8
		c0.2,0.5,0.3,1.4,0.6,2.5c1,4.8,1.9,8.5,3.9,9.5c0.3,0.2,0.7,0.3,1.1,0.3c0.1,0.2,0.1,0.4,0.2,0.6C313.2,240,315,247.3,313.1,253.2
		z M310.4,214c1.2,2.5,2.5,5.2,3.4,7.8c0.1,0.4,0.3,0.8,0.5,1.3c0.5,1.2,1.3,3.2,1.2,4c-0.1,0.6-0.9,1.5-2,2.1
		c-0.8,0.4-1.7,0.6-2.1,0.3c-1-0.5-2.1-5.7-2.5-7.6c-0.2-1.1-0.4-2-0.6-2.7c-2.7-8.8-5.2-16.7-7.7-23.9c-0.2-0.6-0.9-1-1.5-0.9
		c-0.5,0.1-0.9,0-1.4-0.3c-1.2-0.8-2.1-2.9-2.8-5.3c3.6-0.2,6.9-1.3,10-2.9c0.3,0.7,0.6,1.3,0.8,1.9c0.8,1.7,1.4,2.8,0.4,5.3
		c-0.3,0.7-0.5,1.2-0.7,1.6c-0.8,1.7-1,2.4-0.5,5.2c0.4,2,1.2,4.1,2,6c0.2,0.6,0.5,1.1,0.7,1.7C308.4,209.7,309.4,211.9,310.4,214z
		 M237,141.5c1.2-1.3,2.4-2.5,3.4-3.3c4.1-3.2,9.3-7.3,14.5-8.8c1.3-0.4,2.6-0.6,4-0.7c0.5,0,0.9,0,1.4,0c7.8,0,15.3,4,19,6.4
		c9.1,5.7,15.8,11.6,20,17.4c0.6,0.8,1.1,1.7,1.7,2.5c1.7,2.6,3.2,5.3,4.7,8c2.6,4.5,5.2,9.2,8.5,13.2c-0.6,0.5-1.3,1-1.9,1.4
		c-5.9,4.4-11.5,8.6-18.7,8.6c-0.8,0-1.6-0.1-2.5-0.2c-11.2-1.4-20.9-8-25.1-17.2c-1.2-2.6-2.1-5.4-3.1-8.4c-2-6-4-12.1-8.1-16.5
		c-2.1-2.3-4.6-3.5-7.4-3.5c-3.7,0-7.5,2.1-10.7,3.9l-0.3,0.1c-0.3,0.1-0.5,0.3-0.8,0.4c-1,0.6-2,1.2-2.8,1.2c-0.2,0-0.4,0-0.7-0.2
		C233.9,144.8,235.4,143.1,237,141.5z M270.1,96.2c1.2,0,2.4,0.1,3.5,0.2c4.1,0.5,6.6,2.9,9.6,5.7c0.6,0.6,1.2,1.2,1.8,1.7
		c5.1,4.6,12.8,8,19.6,8.6c7.7,0.7,12-2.3,16.6-7.4c6.6-7.3,13.8-11,21.5-11c0.1,0,0.1,0,0.2,0c-0.2,0.2-0.3,0.5-0.3,0.7
		c0,0.5,0.2,1.1,0.7,1.3c0.1,0,0.1,0.1,0.2,0.2c0.1,0.1,0.2,0.1,0.2,0.2c0,0.3,0,0.6,0.1,0.8c0.1,0.3,0.3,0.6,0.5,0.9
		c-0.8,0.6-1.2,1.3-1.4,1.9c-1.2,2.9,0.6,6.7,1.7,8.7c-1.7,1-4,2.5-3.9,5c0.1,1.1,0.8,2.7,2,4.9c-1,0.2-1.6,0.6-2,1.1
		c-1.1-0.4-2.2-0.6-3.4-0.6c-4.2,0-8.3,2.5-11.9,4.7c-1.8,1.1-3.5,2.1-5.1,2.8c-6.8,2.9-14.5,3.3-23.3,1.2
		c-4.6-1.1-9.9-2.4-14.4-4.8c-0.9-0.5-1.8-1-2.7-1.4c-3.2-1.8-6.6-3.6-10.2-4.6c-4-1.1-7.8-1.3-11.7-1.5l-1.5-0.1
		c-0.9,0-1.9-0.2-2.9-0.3c-1.4-0.2-2.8-0.3-4.2-0.3c-1.8,0-3.4,0.3-4.8,0.9c-1.4,0.6-2.4,1.4-3.5,2.3c-0.9,0.7-1.7,1.3-2.6,1.8
		c-1.3,0.6-2.4,0.7-3.8,0.9c-0.5,0.1-1,0.1-1.5,0.2c-0.8,0.1-1.6,0.3-2.4,0.5c-0.6,0.1-1.3,0.3-2,0.4c0.1-0.8,0-1.5-0.2-2
		c-0.3-0.7-0.8-1.3-1.2-1.8c-0.2-0.3-0.6-0.7-0.7-0.9c0-0.1,0.2-0.5,0.3-0.8c0.3-0.6,0.7-1.5,0.6-2.5c-0.1-0.4-0.2-0.8-0.5-1.1
		c0.1,0,0.3,0,0.4-0.1c3.7-1,7.3-4.5,10.1-7.2c0.6-0.6,1.1-1.1,1.7-1.6c0.5-0.4,0.9-0.9,1.4-1.5c0.9-1,2-2.1,2.8-2.5
		c1.1-0.5,2.8-0.6,4.5-0.7c0.8-0.1,1.6-0.1,2.4-0.2c2.1-0.3,4.3-0.7,6.4-1.1C261.1,97,265.7,96.2,270.1,96.2z M220,103.4
		c-1-0.5-1.7-1.1-2.4-1.6c0.1-0.1,0.3-0.1,0.4-0.1c1.8-0.4,3.7-0.9,5.4-1.5l0.2,0c4.6-1.4,8-3.2,11.1-6.3c3.9-3.7,7.3-8,10.6-12.2
		c2.3-2.9,4.7-5.9,7.1-8.6l0.9-1c2.2-2.4,4.4-4.9,7.2-6.4c2.8-1.5,5.8-1.6,9-1.6c0.7,0,1.4,0,2.1-0.1c3.2-0.1,6.6-0.3,10-0.3
		c0.6,0,1.3,0,2-0.1c0.8-0.1,1.7-0.1,2.6-0.1c-1,0.8-2.2,1.4-3.4,2.2c-0.5,0.3-0.8,0.8-0.7,1.3c0.1,0.4,0.3,0.8,0.7,1
		c-0.1,0.2-0.1,0.5-0.1,0.7c0.1,0.5,0.4,0.9,0.9,1.1c0.8,0.3,1.5,0.6,2.1,0.9c-1.1,1.4-1.1,2.8-0.9,4.3c-0.3,0.1-0.6,0.2-0.9,0.5
		c-1.2,0.9-1.2,2.6-1.3,4c0,0.1,0,0.3,0,0.4c-2.9-0.4-5.9-0.1-8.6,1c-1.4,0.6-2.9,1.1-4.4,1.6c-2.4,0.8-4.8,1.7-7,2.7
		c-2.3,1-4.4,2.9-6.5,4.6c-1.2,1-2.3,2-3.4,2.7c-0.7,0.5-1.7,1.1-2.6,1.6c-1.4,0.8-2.6,1.6-3.5,2.3c-1.5,0.1-3,0.3-4.2,0.9
		c-1.3,0.6-2.6,2-3.7,3.1c-0.5,0.5-0.9,1-1.3,1.3c-0.5,0.5-1.1,1-1.7,1.6c-2.6,2.5-5.9,5.7-9,6.6c-0.4,0.1-0.8,0.2-1.1,0.2
		c-0.2,0-0.3,0-0.5-0.1c-0.1-0.1-0.2-0.2-0.4-0.2c-0.2-0.1-0.3-0.1-0.5-0.1c-0.4-0.2-0.8-0.6-1.4-1c-1.2-1.1-2.8-2.4-5.4-2.4
		c0,0-0.1,0-0.1,0c-3.3,0-6.3,0.4-9.4,1.1c-0.1-0.6-0.2-1.1-0.2-1.6c0.1,0.1,0.2,0.2,0.3,0.3c0.4,0.5,1,0.7,1.6,0.5
		c0.6-0.2,0.9-0.8,0.8-1.4c0,0,0-0.1,0-0.1c3,1.4,6.4,1.7,9.4,0.9c0.5-0.1,0.9-0.6,1-1.1C220.8,104.2,220.5,103.7,220,103.4z
		 M174.7,123.1c0,0-0.1,0-0.1,0.1l-0.3,0.2c-0.6,0.3-1.3,0.7-2,1.1c-0.1-0.6-0.2-1.3-0.3-1.9c0.2-0.2,0.4-0.3,0.6-0.5
		c0.7-0.6,1.5-1.2,2.2-1.9c0,0.6,0,1.2,0,1.7l0,1C174.6,122.9,174.6,123,174.7,123.1z M171.9,128c0.7-1,2.2-1.7,3.5-2.3l0.4-0.2
		c1.4-0.7,2.9-1.3,4.5-1.8c1.8-0.7,3.7-1.4,5.5-2.3c2.2-1.2,4.2-2.7,6.1-4c3-2.2,5.9-4.3,9.6-5.4c5.7-1.7,10.4-2.8,16-2.9
		c1.7,0,2.6,0.8,3.7,1.7c0.7,0.6,1.4,1.2,2.2,1.6c0.2,0.3,0.4,0.5,0.7,0.8c0.3,0.3,0.8,0.9,0.9,1.1c0,0.2-0.2,0.5-0.3,0.9
		c-0.3,0.6-0.7,1.4-0.5,2.3c0.1,1,0.8,1.7,1.4,2.3c0.3,0.3,0.6,0.6,0.7,0.8c0.1,0.2,0.2,0.7,0,1.5c-0.9,0.2-1.6,0.4-2.3,0.7
		c-0.6,0.2-1.2,0.4-1.8,0.5c-0.8,0.1-1.5,0.2-2.3,0.2c-2.3,0-4.6-0.6-6.9-1.2c-2.7-0.7-5.4-1.5-8.4-1.3c-5.6,0.3-10.5,2.9-15.3,5.5
		c-0.7,0.4-1.4,0.7-2.1,1.1c-1.7,0.9-3.2,1.9-4.8,2.8c-2.5,1.6-4.8,3-7.5,4c-0.9,0.3-2.2,0.5-3.4,0.5c-2,0-3-0.5-3.1-0.8
		c-0.1-0.2,0-0.9,1.1-2.2c0.3-0.3,0.6-0.6,1-1c0.4-0.4,0.8-0.8,1.2-1.2c0.3-0.4,0.4-0.8,0.5-1.2C171.8,128.3,171.9,128.1,171.9,128z
		 M177.9,121.7c0.7-1.3,1.8-2.5,2.9-3.8c0.4-0.5,0.8-1,1.2-1.4c0.7,1.3,1.6,2.1,2.7,2.4c-0.1,0.1-0.2,0.1-0.3,0.2
		c-1.6,0.9-3.3,1.5-5.1,2.2C178.8,121.3,178.4,121.5,177.9,121.7z M188.7,83.9c-0.2-0.4-0.3-1.3-0.3-2.1c0-0.5-0.1-1-0.2-1.5
		c-0.3-1.5-0.6-4.4,0.4-6.5c1.3-2.9,4.6-5.2,7.7-5.3c5.1-0.2,5.7,5.8,5.8,7c0.2,3.4-2.9,13.8-6.9,15.7c-0.7,0.3-1.7,0.6-3.1-0.7
		c-0.4-0.3-0.9-0.4-1.3-0.3c-0.7,0.5-0.9,1.4-0.9,1.4c-0.4,1.1-0.7,2.1-0.8,2.7c-0.1,0.4,0.1,0.9,0.4,1.2c0.3,0.3,0.8,0.5,1.2,0.4
		c0.2,0,0.4,0,0.6,0.1c0,0,0,0,0,0c0,0,0,0,0,0c0.3,0,0.2,0.3,0.2,0.4c0.3,1.4,0.2,2.9,0.2,4.5c0,1.1-0.1,2.2,0,3.3
		c0,0.6,0.4,1,1,1.2c0.5,0.2,1.1,0,1.5-0.5c0.3-0.5,0.7-0.9,1-1.4c0.4-0.6,0.8-1.2,1.2-1.7c0.7,1.1,1.2,2.8,1.5,4.8
		c0.1,0.6,0.5,1,1.1,1.1c0.1,0,0.2,0,0.2,0c0.5,0,0.9-0.3,1.2-0.7c0.4-0.7,0.8-1.6,1.2-2.5c0.1-0.2,0.2-0.4,0.3-0.6
		c0.9,0.9,1.8,1.9,2.6,2.8l0.1,0.2c0.2,0.2,0.4,0.3,0.6,0.4c0,0.3,0.1,0.6,0.1,0.9c-1.5,0.4-3,0.8-4.6,1.3
		c-4.1,1.2-7.3,3.6-10.4,5.8c-0.7,0.5-1.4,1-2.1,1.5c0.2-0.4,0.3-0.9,0.5-1.5c0.8-3.7-1-7.7-2.4-11c-0.2-0.4-0.4-0.8-0.5-1.2
		c-1.2-2.7-1.2-5.1-1.2-8.3l0-0.8c0-3.8,0.2-6.7,0.8-9.5c0.3-0.1,0.5-0.3,0.7-0.4c0.1,0.4,0.2,0.8,0.4,1.2c0.3,0.7,1.1,1,1.8,0.6
		C188.8,85.3,189.1,84.5,188.7,83.9z M152.5,20.2c0.3,0.6,0.5,1.3,0.8,1.9l0.2,0.4c0.2,0.6,0.8,0.9,1.5,0.9c0.6-0.1,1.1-0.6,1.1-1.2
		c0.2-3,3.5-8.2,6.5-10.8c-0.1,0.5-0.3,1.1-0.5,1.7c-0.4,0.7-0.7,1.5-0.9,2.2c-0.1,0.7,0.2,1.3,0.9,1.5c0.6,0.2,1.4-0.1,1.6-0.7
		c0.3-0.6,0.6-1.3,0.8-1.9c2.2-3.2,8.6-5.7,13.4-6c-0.6,0.7-1.2,1.6-1.6,2.5c-0.2,0.5-0.2,1.1,0.2,1.5c0.4,0.4,0.9,0.6,1.4,0.4
		c0.6-0.2,1.5-0.6,2.4-0.9c2.8-1.1,6.6-2.7,9.3-2.7c0.8,0,1.4,0.1,1.9,0.4c0.4,0.2,0.5,0.3,0.6,0.4c-0.1,0.3-0.6,0.8-0.9,1.1
		c-0.6,0.7-1.4,1.6-2,2.7c-0.2,0.5-0.1,1.1,0.3,1.5c0.4,0.4,1,0.5,1.5,0.3c2-0.9,5.4-1.9,8.1-1.9c0.7,0,1.2,0.1,1.7,0.2
		c-0.2,0.2-0.5,0.4-0.8,0.6c-0.6,0.5-1.3,1-1.8,1.5c-0.3,0.3-0.5,0.8-0.4,1.2c0.1,0.4,0.4,0.8,0.8,1c16.2,7.1,24.5,15.8,29.6,31.1
		c5.2,15.6-7.7,35.4-11.8,41.1c-2,2.8-3.9,6-3.2,9.2c0.3,1.5,1.2,2.8,2.6,4.1c-2-0.1-4-0.8-5.8-1.9c-0.2-0.1-0.5-0.2-0.7-0.2
		c-0.2,0-0.5,0.1-0.7,0.2c-0.3,0.2-0.5,0.4-0.6,0.7c-0.3-0.3-0.6-0.5-0.8-0.8c-0.4-0.4-0.9-0.6-1.4-0.4c-0.5,0.2-0.9,0.6-0.9,1.2
		c0,0.1,0,0.3-0.1,0.5c-0.8-0.8-1.6-1.7-2.4-2.4c-0.3-0.3-0.7-0.4-1.1-0.3c-0.4,0.1-0.8,0.3-1,0.7c-0.2,0.4-0.4,0.8-0.6,1.3
		c-0.5-1.3-1.2-2.6-2.1-3.5c-0.4-0.4-1.1-0.5-1.7-0.2c-0.5,0.3-1,0.7-1.3,1.1c0-1.9,0-3.8-0.7-5.6c0,0-0.1-0.1-0.1-0.1
		c0.2,0,0.4,0,0.6,0c0.8,0,1.6-0.2,2.2-0.5c5.3-2.5,8.7-14.1,8.4-18.3c-0.1-1.7-0.5-3.3-1.2-4.8c0.4,0.2,0.7,0.4,1.1,0.6
		c1.1,0.6,2.3,1.2,3.6,1.2c1,0,1.7-0.4,2.1-0.8c1.4-1.5,0.3-3.8-0.8-4.9c-1.3-1.5-3.2-2.4-4.8-3.2c-0.3-0.1-0.6-0.3-0.8-0.4
		c-3.7-1.9-7.5-2.8-12.2-2.8c-2.6,0-5.2,0.3-7.7,0.6c0.1-3,0.5-5.9,1.4-8.8c0.1-0.4,0.1-0.8-0.2-1.2c-0.2-0.3-0.6-0.6-1-0.6
		l-0.9-0.1c-1.5-0.1-3.3-0.2-4.7-0.1c0.1-0.1,0.2-0.2,0.2-0.3c0.4-0.4,0.5-1,0.3-1.5c-0.2-0.5-0.7-0.8-1.3-0.8
		c-5.7,0.1-10,0.5-14.8,2.1c0.3-0.5,0.2-1.2-0.2-1.6c-0.4-0.5-1.2-0.5-1.7-0.2c-1.2,0.8-3.3,1.9-4.6,2.5l-0.3-0.3
		C148.7,42.9,147.1,29.5,152.5,20.2z M151.7,55.4c0.7-1.3,1.5-2.7,2.4-4c0.2,0.2,0.3,0.3,0.5,0.5l0.9,0.9c0.4,0.4,0.9,0.5,1.4,0.3
		c0.5-0.2,1.5-0.7,2.6-1.3c0,0.3,0.1,0.6,0.4,0.9c0.4,0.4,1,0.5,1.5,0.3c5-2,8.9-2.7,14.1-2.9c-0.2,0.3-0.3,0.6-0.5,0.9
		c-0.3,0.5-0.3,1.1,0.1,1.6c0.3,0.5,1,0.6,1.5,0.5c0.9-0.3,2-0.4,3.5-0.4c0.8,0,1.6,0,2.4,0.1c-0.7,2.8-1,5.6-1.1,8.4
		c-0.3,0-0.6,0.1-0.9,0.1c-1,0.2-2,0.3-2.9,0.4c-6.2,0.9-12.9,1.1-20,0.6c-2.5-0.2-5.1-0.4-7.7-0.8C150,59.5,150.4,57.6,151.7,55.4z
		 M157.4,65c7.3,0.5,14.2,0.3,20.5-0.7c1-0.1,2-0.3,3-0.5c3.8-0.6,7.3-1.1,10.9-1.1c4.2,0,7.7,0.8,10.9,2.5c0.3,0.1,0.6,0.3,0.9,0.4
		c1.5,0.7,3,1.5,4,2.6c0.3,0.3,0.6,0.9,0.7,1.3c-0.7,0-1.9-0.6-2.3-0.9c-4.1-2.3-7.9-3.3-12-3.4l-0.5,0c-2.4,0-4.8,0.3-7.1,0.5
		c-1.4,0.1-2.8,0.3-4.1,0.4c-4.2,0.3-9.8,0.8-15.2,1.9c-0.3,0.1-0.7,0.1-1,0.2c-1.9,0.3-4.1,0.7-5.6,2.8c-0.9,1.3-1.2,2.8-1.4,4.2
		c-0.2,1-0.3,1.9-0.7,2.7c-0.5,1.1-1.4,1.7-2.4,1.7c-0.8,0-1.5-0.4-2.1-1.1c-1.8-2.1-2.4-5-3.1-7.9c-0.1-0.3-0.1-0.6-0.1-0.9
		c-0.2-1.4-0.5-3.3-2.2-4.2c-0.4-0.2-0.7-0.3-1.2-0.4c0-0.1-0.1-0.3-0.2-0.8c0-0.1,0-0.3,0-0.4C150.6,64.4,154.1,64.8,157.4,65z
		 M148.4,85.1c-2.2-1.7-3.5-2.8-3.2-4.9c0.1-0.4,1.1-1.5,1.7-2.2c0.8-0.9,1.6-1.8,2-2.6c0.1-0.1,0.1-0.2,0.2-0.4
		c0.6,1.8,1.4,3.7,2.7,5.2c1.1,1.3,2.6,2,4.2,2c2,0,3.8-1.2,4.8-3.2c0.5-1.1,0.7-2.3,0.9-3.4c0.2-1.2,0.4-2.3,1-3.1
		c0.8-1.1,2.2-1.4,3.8-1.6c0.4-0.1,0.8-0.1,1.1-0.2c4.8-1,9.7-1.4,13.6-1.7c-0.9,2-1.5,4-2.1,6.1c-0.5,1.8-1,3.6-1.8,5.5
		c-0.5,1.2-1,2.4-1.5,3.6c-1.4,3.3-2.8,6.8-4,10.1l-0.1,0.2c-1.7,4.6-3.2,8.6-7.5,10.3c-5,1.9-8.4,0.8-12-3.7c0,0,0,0-0.1-0.1
		c0.6-1.6,1.3-3.2,2.1-4.5c0.2-0.4,0.2-0.8,0.1-1.2c-0.2-0.4-0.5-0.7-0.9-0.8c-0.4-0.1-0.8-0.1-1.2-0.2
		C153.8,89.4,150.7,86.9,148.4,85.1z M166.3,119.9c-3,3.1-7.4,4.6-11.8,5.9c0.3-0.8,0.4-1.7,0.5-2.4c0-0.4-0.2-0.8-0.5-1.1
		c-0.3-0.3-0.8-0.4-1.2-0.2c-0.7,0.2-1.4,0.4-2.1,0.7c-2.2,0.7-4.2,1.3-6.2,1.1c3.1-3.4,4.9-7.7,5.3-12.2c0.1-1.3,0.1-2.3,0.1-3.3
		c0-1.9,0-3,0.8-4.5c4,4.3,8.3,5.3,13.9,3.2c5.5-2.1,7.4-7.1,9.1-11.9l0.1-0.2c1.2-3.3,2.6-6.7,4-10c0.5-1.2,1-2.4,1.5-3.6
		c0.8-2,1.4-3.9,1.9-5.8c0.7-2.4,1.4-4.8,2.7-7.1c0.8-0.1,1.6-0.2,2.4-0.2c0.4,0,0.7-0.1,1.1-0.1c-1.9,3.9-3.6,8.8-4.8,13.9
		c-0.8,3.4-1.2,7-1.2,11.6l0,0.8c0,3.3,0,6.2,1.4,9.4c0.2,0.4,0.4,0.8,0.6,1.3c1.3,2.9,2.9,6.5,2.3,9.3c-0.3,1.1-0.6,1.5-0.6,1.6
		c-0.3-0.1-1.1-0.9-1.5-2.8c-0.1-0.5-0.5-0.9-1.1-1c-0.5-0.1-1.1,0.1-1.4,0.6c-0.7,1.1-1.6,2.1-2.5,3.2c-0.5,0.6-1,1.2-1.5,1.8
		c0-0.4,0-0.8-0.1-1.2c0-0.6-0.4-1-0.9-1.2c-0.5-0.2-1.1,0-1.4,0.4c-1.2,1.4-2.6,2.6-4.1,3.9c-0.8,0.6-1.5,1.3-2.3,2
		c0.1-0.3,0.1-0.5,0.2-0.8c0.1-0.6-0.2-1.2-0.7-1.4C167.4,119.4,166.7,119.5,166.3,119.9z M167.5,144.8c1.6-2.7,3.5-5.1,5.4-7.5
		c1-0.1,1.9-0.3,2.7-0.6c2.9-1.1,5.5-2.7,7.9-4.2c1.5-0.9,3-1.9,4.6-2.7c0.7-0.4,1.4-0.7,2.1-1.1c4.5-2.4,9.2-4.9,14.2-5.1
		c2.6-0.1,5,0.5,7.6,1.2c2.4,0.7,4.9,1.3,7.6,1.3c1,0,1.9-0.1,2.8-0.3c0.8-0.2,1.5-0.4,2.1-0.6c0.7-0.2,1.4-0.5,2.2-0.6
		c0.1,0,0.2,0,0.3,0c0.2,0,0.4-0.1,0.6-0.2c0.2,0,0.4,0,0.6-0.1c0.2,0.3,0.4,0.5,0.7,0.9c2.4,3.3,4.5,7.9,6,12.8
		c0.1,0.4,0.3,0.9,0.4,1.3c-0.1,0.1-0.2,0.2-0.3,0.3c-1.2,1.2-2.4,2.5-3.5,3.4c-2.5-5.5-7.6-13.3-12.7-15.7
		c-2.4-1.2-5.4-1.7-8.8-1.7c-7.3,0-15.2,2.8-19.2,4.4c-13.7,5.6-25.3,25.1-24.4,40.9l0,0.3c0.3,5.8,0.7,12.4,3.8,17.7
		c1.4,2.4,3.3,4.5,5.1,6.5c0.6,0.6,1.2,1.3,1.7,1.9c-0.1,0.9-0.3,1.7-0.4,2.6c-0.2,1.3-0.4,2.6-0.6,3.9c-1,0.4-1.8,1-2.4,1.7
		c-2.3,2.7-2,6.9-1.3,11.1c0.5,3.3,2.1,5.2,4.1,6.3c0,0,0,0.1,0,0.1c0,0.1,0.1,0.2,0.1,0.3c-0.5,0.3-1,0.7-1.5,1.1
		c-2.7-1.5-5.1-7.3-6.3-10.3c-0.2-0.5-0.4-0.9-0.5-1.3c-5.4-12.9-5.9-27.6-5.9-40.3c0-1,0-2,0-2.9
		C162.4,160.1,162.4,153.2,167.5,144.8z M173,226.2c-0.6,0.6-1.3,1.1-1.9,1.7c-0.1-1.3-0.3-2.8-0.5-4.3
		C171.3,224.7,172.1,225.5,173,226.2z M155.7,166.1c1.4-4.1,3.1-7.6,4.9-10.7c-0.8,4.5-0.8,9.1-0.8,14.3c0,0.9,0,1.9,0,2.9
		c0,14,0.7,28.6,6.1,41.4c0.1,0.4,0.3,0.8,0.5,1.2c0,0,0,0.1,0,0.1c0,0.1,0,0.1,0,0.2c0.9,3.6,1.8,10,2.1,13.8
		c0,0.3,0.2,0.6,0.4,0.9c-3.2,3.3-6,7-8.6,10.4c-0.9-5.5-2-11.1-3.1-16.6C153.3,204.7,149.2,184.9,155.7,166.1z M114,271.3
		c2,0,4.1,0.6,6.3,1.2c1.7,0.5,3.4,1,5.1,1.2c-0.5,0.3-1.1,0.5-1.6,0.7c-2.2,0.8-4.9,0.3-7.7-0.2c-2.3-0.4-4.6-0.8-6.9-0.6
		C110.4,272.1,111.5,271.3,114,271.3z M97.2,293c-1-2.9,0.5-4.8,2.9-7.7c0.6-0.7,1.2-1.4,1.7-2.1c0.8-1,1.4-2,1.9-2.9
		c1.5-2.4,2.4-3.8,5.5-4.1c2-0.2,4.1,0.2,6.4,0.6c3.1,0.6,6.2,1.1,9.1,0.1c4.2-1.5,8.3-5.1,12-8.3c1-0.9,1.9-1.7,2.8-2.4
		c6.5-5.4,14-12,20.3-20.4l0.2-0.3c5-6.8,12.1-16.4,20.3-21.2c1.5,0.3,3,0.4,4.4,0.5c1.6,0.1,3.2,0.2,4.7,0.5
		c7.7,1.3,15.7,2.4,22.8,3.2c-1.5,6.2-5.7,12.7-7.9,15.7c-4.6,6.3-12.2,10.8-19.6,15.1c-1.9,1.1-3.7,2.1-5.4,3.2
		c-0.1,0-0.2-0.1-0.3-0.1c-0.6,0-1.2,0.5-1.3,1.1c-0.3,0.2-0.7,0.4-1,0.6c-2.3,1.5-4.8,2.9-7.3,4.2c-3.2,1.7-6.5,3.4-9.4,5.7
		c-4.8,3.6-9.7,6.8-15.2,10.2c-1.6,1-3.2,2.2-4.8,3.3c-4.7,3.4-9.2,6.6-13.9,6.7c0-1.8-0.7-3.3-2-4.3c-2.2-3.1-5.8-5.1-9.9-5.1
		c-6.7,0-12.2,5.5-12.2,12.2c0,0.8,0.1,1.6,0.2,2.3C100.2,297.6,98.1,295.9,97.2,293z M105.2,306.5c0.8,0.6,1.8,1,3.2,1.1
		c0.5,0.3,1,0.5,1.5,0.7l-20.5,93.1l-4.8-1.1L105.2,306.5z M79.2,404.4c0.2-1.1,1.3-1.9,2.4-1.9c0.2,0,0.4,0,0.5,0.1l8.5,1.9
		c1.3,0.3,2.2,1.6,1.9,2.9L68.6,515.7l-12.8-2.8c-0.2,0-0.3-0.1-0.5-0.1L79.2,404.4z M42.9,550.6c0.4-1.7,1.9-2.9,3.6-2.9
		c0.3,0,0.5,0,0.8,0.1l14.1,3.1c2,0.4,3.2,2.4,2.8,4.3l-12,41.1c-0.4,1.9-2.4,3.2-4.4,2.8l-8.9-2c-1-0.2-1.8-0.8-2.3-1.6
		c-0.5-0.8-0.7-1.8-0.5-2.8L42.9,550.6z M48.2,545.2l2.8-12.5c0.2,0.1,0.4,0.1,0.7,0.2l12.6,2.8l-2.8,12.5L48.2,545.2z M52.1,600.5
		c1.3-0.9,2.2-2.2,2.5-3.7l0.1-0.3l6,9.3c-1.2,0.9-2.4,1.7-3.7,2.4L52.1,600.5z M52.2,608.5c-1.3,0.4-2.7,0.6-4.1,0.7l1.2-5.3
		L52.2,608.5z M60.1,597.1l5.2,1.2c-0.7,1.2-1.5,2.3-2.4,3.4L60.1,597.1z M56.1,591.9l1.2-4.2l12.1,2.7c-0.1,0.7-0.2,1.4-0.4,2.2
		c-0.2,0.7-0.4,1.4-0.6,2.1L56.1,591.9z M62.8,584.6l4.5-2.9c0.4,1.3,0.6,2.7,0.7,4.1L62.8,584.6z M59,582.1l1.9-6.4l3.9-2.5
		c0.4,0.6,0.9,1.2,1.3,1.8c0.4,0.6,0.8,1.3,1.1,1.9L59,582.1z M45.7,601.3l-2.1,9.4c-0.7-0.1-1.4-0.2-2.2-0.4
		c-0.7-0.2-1.4-0.4-2.1-0.6l2.1-9.4L45.7,601.3z M32.8,578l-5.2-1.2c0.7-1.2,1.5-2.3,2.4-3.4L32.8,578z M32.2,569.3
		c1.2-0.9,2.4-1.7,3.7-2.4l1.3,2.1l-1.1,6.5L32.2,569.3z M34.9,582.8l-0.7,4.3l-10.8-2.4c0.1-0.7,0.2-1.4,0.4-2.2
		c0.2-0.7,0.4-1.4,0.6-2.1L34.9,582.8z M30,590.5l-4.5,2.9c-0.4-1.3-0.6-2.7-0.7-4.1L30,590.5z M33.3,593.4c0,1.2,0.3,2.4,1,3.5
		c0.2,0.3,0.4,0.5,0.6,0.7l-6.7,4.3c-0.9-1.2-1.7-2.4-2.4-3.7L33.3,593.4z M36.9,601.2l-1.2,5.3c-1.2-0.7-2.3-1.5-3.4-2.4
		L36.9,601.2z M66.4,556.7c12.5,8.1,19.3,23.4,15.9,38.7c-3.7,16.7-18.8,28.9-35.9,28.9c-2.7,0-5.3-0.3-7.9-0.9
		c-9.6-2.1-17.8-7.8-23.1-16.1c-5.3-8.3-7-18.1-4.9-27.7c3.2-14.6,15.1-25.7,29.5-28.3L38.1,563c-8.4,2.9-15,10-17,19
		c-3.1,14,5.8,27.8,19.7,30.9c1.8,0.4,3.7,0.6,5.6,0.6c12.1,0,22.7-8.6,25.3-20.4c1.5-6.8,0.3-13.7-3.5-19.5
		c-1.4-2.2-3.1-4.2-5.1-5.8L66.4,556.7z M52.2,530.3c-2.6-0.6-4.3-3.2-3.7-5.9l0.9-5.1c0.5-2.2,2.5-3.9,4.8-3.9c0.4,0,0.7,0,1.1,0.1
		l13.9,3.1c2.6,0.6,4.3,3.2,3.7,5.9l-0.9,5.1c-0.5,2.2-2.5,3.9-4.8,3.9c-0.4,0-0.7,0-1.1-0.1L52.2,530.3z M66.9,536.2l0-0.1
		c0.1,0,0.2,0,0.3,0c3.5,0,6.7-2.5,7.4-6l0.6-3.4l51,44.6c-3.5,2.6-5.9,6.8-6.2,11.4L66.9,536.2z M135.3,596.2
		c-7,0-12.7-5.7-12.7-12.6s5.7-12.7,12.7-12.7c7,0,12.6,5.7,12.6,12.7S142.3,596.2,135.3,596.2z M312.6,550.8c2.7,0,5.3,0.3,7.9,0.9
		c9.6,2.1,17.8,7.8,23.1,16.1c5.3,8.3,7,18.1,4.9,27.7c-3.7,16.7-18.8,28.9-35.9,28.9c-2.7,0-5.3-0.3-7.9-0.9
		c-9.6-2.1-17.8-7.8-23.1-16.1c-2.1-3.3-3.7-6.9-4.6-10.7h11.4c3,7.9,9.8,14.2,18.7,16.2c1.8,0.4,3.7,0.6,5.6,0.6
		c12.1,0,22.7-8.6,25.3-20.4c1.5-6.8,0.3-13.7-3.5-19.5c-3.7-5.8-9.5-9.9-16.3-11.4c-1.8-0.4-3.7-0.6-5.6-0.6
		c-11.1,0-21,7.3-24.5,17.6h-11.3C280.7,562.7,295.6,550.8,312.6,550.8z M294.3,601.9c-0.9-1.2-1.7-2.4-2.4-3.7l2.3-1.5h8.1
		L294.3,601.9z M303.1,601.2l-1.2,5.3c-1.2-0.7-2.3-1.5-3.4-2.4L303.1,601.2z M305.5,609.7l2.9-13h4.5l-3.1,13.9
		c-0.7-0.1-1.4-0.2-2.2-0.4C306.9,610.1,306.2,609.9,305.5,609.7z M330.9,573.3c0.4,0.6,0.9,1.2,1.3,1.8c0.4,0.6,0.8,1.3,1.1,1.9
		l-11.3,7.2c-0.6-1.4-1.5-2.6-2.7-3.5L330.9,573.3z M316.7,579.4c-0.5-0.1-1.1-0.2-1.6-0.2h-2.8l3.2-14.7c0.7,0.1,1.4,0.2,2.2,0.4
		c0.7,0.2,1.4,0.4,2.1,0.6L316.7,579.4z M322.2,573.9l1.2-5.3c1.2,0.7,2.3,1.5,3.4,2.4L322.2,573.9z M322,591.9
		c0.5-1.2,0.8-2.5,0.8-3.9c0-0.1,0-0.3,0-0.4l12.9,2.8c-0.1,0.7-0.2,1.4-0.4,2.2c-0.2,0.7-0.4,1.4-0.6,2.1L322,591.9z M331.5,598.2
		c-0.7,1.2-1.5,2.3-2.4,3.4l-2.9-4.5L331.5,598.2z M329,584.6l4.5-2.9c0.4,1.3,0.6,2.7,0.7,4.1L329,584.6z M326.9,605.8
		c-1.2,0.9-2.4,1.7-3.7,2.4l-7.4-11.5c1.5-0.2,2.9-0.8,4-1.9L326.9,605.8z M318.4,608.5c-1.3,0.4-2.7,0.6-4.1,0.7l1.2-5.3
		L318.4,608.5z M298.3,569.3c1.2-0.9,2.4-1.7,3.7-2.4l7.5,11.8l-0.1,0.5h-4.8L298.3,569.3z M298.8,577.7h-1.2l-3.9-0.9
		c0.7-1.2,1.5-2.3,2.4-3.4L298.8,577.7z M306.8,566.6c1.3-0.4,2.7-0.6,4.1-0.7l-1.2,5.3L306.8,566.6z M315.1,581.9c2.8,0,5,2.7,5,6
		s-2.3,6-5,6H146.5c2.6-2.7,4.1-6.4,4.1-10.4c0-0.6,0-1.1-0.1-1.7H315.1z M268.1,576.3c-0.2,1-0.4,1.9-0.5,2.9h-9.2
		c0.2-1.2,0.4-2.3,0.6-3.5c5.5-25,28-43.1,53.6-43.1c4,0,8,0.4,11.9,1.3c0.4,0.1,0.9,0.2,1.3,0.3l-12.9,5.5
		C291.1,540.1,272.8,555.1,268.1,576.3z"/>
</g>
</svg>
