<?xml version="1.0" encoding="utf-8"?>
<!-- Generator: Adobe Illustrator 22.1.0, SVG Export Plug-In . SVG Version: 6.00 Build 0)  -->
<svg version="1.1" id="Слой_1" xmlns="http://www.w3.org/2000/svg" xmlns:xlink="http://www.w3.org/1999/xlink" x="0px" y="0px"
	 viewBox="0 0 31.2 47" style="enable-background:new 0 0 31.2 47;" xml:space="preserve">
<g>
	<g>
		<path d="M15.6,47C7,47,0,40,0,31.4c0-5.2,2.6-10,6.9-12.9c2.6-1.7,5.6-2.6,8.6-2.6c3.1,0,6.1,0.9,8.6,2.6
			c4.3,2.9,6.9,7.7,6.9,12.9C31.2,40,24.2,47,15.6,47z M15.6,16.9c-2.9,0-5.7,0.8-8.1,2.4C3.4,22,1,26.5,1,31.4
			C1,39.4,7.5,46,15.6,46c8,0,14.6-6.5,14.6-14.6c0-4.9-2.4-9.4-6.5-12.1C21.3,17.7,18.5,16.9,15.6,16.9z"/>
	</g>
	<g>
		<path d="M15.6,38C12,38,9,35.1,9,31.4c0-2.2,1.1-4.2,2.9-5.5c0.8-0.5,2-1.1,3.6-1.1s2.9,0.6,3.7,1.1c1.8,1.2,2.9,3.3,2.9,5.5
			C22.2,35,19.3,38,15.6,38z M15.6,25.9c-1.4,0-2.4,0.5-3.1,0.9c-1.6,1-2.5,2.8-2.5,4.6c0,3.1,2.5,5.6,5.6,5.6s5.6-2.5,5.6-5.6
			c0-1.9-0.9-3.6-2.5-4.6C18.1,26.4,17,25.9,15.6,25.9z"/>
	</g>
	<g>
		<path d="M7.3,19.4c-0.1,0-0.2,0-0.2-0.1c-0.2-0.1-0.3-0.3-0.3-0.4V6.5C6.8,2.9,9.7,0,13.3,0H18c3.6,0,6.5,2.9,6.5,6.5v12.4
			c0,0.2-0.1,0.4-0.3,0.4c-0.2,0.1-0.4,0.1-0.5,0c-2.4-1.6-5.2-2.4-8.1-2.4s-5.7,0.8-8.1,2.4C7.5,19.4,7.4,19.4,7.3,19.4z M13.3,1
			c-3,0-5.5,2.5-5.5,5.5V18c2.4-1.4,5.1-2.1,7.9-2.1s5.5,0.7,7.9,2.1V6.5c0-3-2.5-5.5-5.5-5.5C18.1,1,13.3,1,13.3,1z"/>
	</g>
	<g>
		<path d="M15.7,19.9c-0.3,0-0.5-0.2-0.5-0.5v-3c0-0.3,0.2-0.5,0.5-0.5s0.5,0.2,0.5,0.5v3C16.2,19.6,15.9,19.9,15.7,19.9z"/>
	</g>
	<g>
		<path d="M15.7,47c-0.3,0-0.5-0.2-0.5-0.5v-3c0-0.3,0.2-0.5,0.5-0.5s0.5,0.2,0.5,0.5v3C16.2,46.8,15.9,47,15.7,47z"/>
	</g>
	<g>
		<path d="M24.2,23.4c-0.1,0-0.3,0-0.4-0.1c-0.2-0.2-0.2-0.5,0-0.7l2.1-2.1c0.2-0.2,0.5-0.2,0.7,0s0.2,0.5,0,0.7l-2.1,2.1
			C24.4,23.3,24.3,23.4,24.2,23.4z"/>
	</g>
	<g>
		<path d="M5,42.6c-0.1,0-0.3,0-0.4-0.1c-0.2-0.2-0.2-0.5,0-0.7l2.1-2.1c0.2-0.2,0.5-0.2,0.7,0c0.2,0.2,0.2,0.5,0,0.7l-2,2
			C5.3,42.5,5.1,42.6,5,42.6z"/>
	</g>
	<g>
		<path d="M30.7,31.9h-3c-0.3,0-0.5-0.2-0.5-0.5s0.2-0.5,0.5-0.5h3c0.3,0,0.5,0.2,0.5,0.5S31,31.9,30.7,31.9z"/>
	</g>
	<g>
		<path d="M3.6,31.9h-3c-0.3,0-0.5-0.2-0.5-0.5s0.2-0.5,0.5-0.5h3c0.3,0,0.5,0.2,0.5,0.5S3.9,31.9,3.6,31.9z"/>
	</g>
	<g>
		<path d="M26.3,42.6c-0.1,0-0.3,0-0.4-0.1l-2.1-2.1c-0.2-0.2-0.2-0.5,0-0.7c0.2-0.2,0.5-0.2,0.7,0l2.1,2.1c0.2,0.2,0.2,0.5,0,0.7
			C26.6,42.5,26.4,42.6,26.3,42.6z"/>
	</g>
	<g>
		<path d="M7.1,23.4c-0.1,0-0.3,0-0.4-0.1l-2.1-2.2c-0.2-0.2-0.2-0.5,0-0.7s0.5-0.2,0.7,0l2.1,2.1c0.2,0.2,0.2,0.5,0,0.7
			C7.4,23.3,7.2,23.4,7.1,23.4z"/>
	</g>
</g>
</svg>
