<?xml version="1.0" encoding="utf-8"?>
<!-- Generator: Adobe Illustrator 22.1.0, SVG Export Plug-In . SVG Version: 6.00 Build 0)  -->
<svg version="1.1" id="Слой_1" xmlns="http://www.w3.org/2000/svg" xmlns:xlink="http://www.w3.org/1999/xlink" x="0px" y="0px"
	 viewBox="0 0 472.1 389.6" style="enable-background:new 0 0 472.1 389.6;" xml:space="preserve">
<style type="text/css">
	.st0{fill-rule:evenodd;clip-rule:evenodd;}
</style>
<g>
	<path class="st0" d="M80.1,77h77.1V0H80.1V77z"/>
	<path class="st0" d="M0,0h77.1v77.1L0,0z"/>
	<path class="st0" d="M159.7,77h77.1V0h-77.1V77z"/>
	<path class="st0" d="M239.1,77h77.1V0h-77.1V77z"/>
	<path class="st0" d="M317.9,0L395,77.1h-77.1V0z"/>
	<path class="st0" d="M317.9,156.2H395v-77h-77.1V156.2z"/>
	<path class="st0" d="M240.9,235h77.1v-77h-77.1V235z"/>
	<path class="st0" d="M317.9,312.5H395v-77.1h-77.1V312.5z"/>
	<path class="st0" d="M395,312.5h77.1v77.1H395V312.5z"/>
	<path class="st0" d="M80.1,391h77.1V314H80.1V391z"/>
	<path class="st0" d="M1.2,314h77.1V391L1.2,314z"/>
	<path class="st0" d="M157.2,313.9h77.1v-77h-77.1V313.9z"/>
	<path class="st0" d="M1.2,312h77.1v-77H1.2V312z"/>
	<path class="st0" d="M1.2,233.2h77.1v-77.1H1.2V233.2z"/>
</g>
</svg>
