<?xml version="1.0" encoding="utf-8"?>
<!-- Generator: Adobe Illustrator 22.1.0, SVG Export Plug-In . SVG Version: 6.00 Build 0)  -->
<svg version="1.1" id="Слой_1" xmlns="http://www.w3.org/2000/svg" xmlns:xlink="http://www.w3.org/1999/xlink" x="0px" y="0px"
	 viewBox="0 0 129 76" style="enable-background:new 0 0 129 76;" xml:space="preserve">
<path class="st0" d="M125.2,5.1c0.9-3,0-5.1-4.2-5.1h-14c-3.6,0-5.2,1.9-6.1,4c0,0-7.1,17.4-17.2,28.6c-3.3,3.3-4.7,4.3-6.5,4.3
	c-0.9,0-2.2-1-2.2-4V5.1C75,1.6,74,0,71,0H49c-2.2,0-3.6,1.7-3.6,3.2c0,3.4,5,4.2,5.6,13.6v20.6c0,4.5-0.8,5.3-2.6,5.3
	c-4.7,0-16.3-17.4-23.1-37.4C23.9,1.6,22.6,0,19,0H5C1,0,0.2,1.9,0.2,4c0,3.7,4.7,22.1,22.1,46.4C33.9,67,50.2,76,65,76
	c8.9,0,10-2,10-5.4V58c0-4,0.8-4.8,3.7-4.8c2.1,0,5.6,1,13.9,9C102.1,71.7,103.7,76,109,76h14c4,0,6-2,4.8-5.9
	c-1.3-3.9-5.8-9.6-11.8-16.4c-3.3-3.9-8.2-8-9.6-10.1c-2.1-2.7-1.5-3.9,0-6.2C106.4,37.3,123.5,13.3,125.2,5.1z"/>
</svg>
