<?xml version="1.0" encoding="utf-8"?>
<!-- Generator: Adobe Illustrator 22.1.0, SVG Export Plug-In . SVG Version: 6.00 Build 0)  -->
<svg version="1.1" id="Layer_1" xmlns="http://www.w3.org/2000/svg" xmlns:xlink="http://www.w3.org/1999/xlink" x="0px" y="0px"
	 viewBox="0 0 271.3 56.9" style="enable-background:new 0 0 271.3 56.9;" xml:space="preserve">
<g>
	<path class="st0" d="M138.4,51.4c-0.7-0.3-1.7-0.1-2,0.6c-0.4,0.7-0.1,1.6,0.6,2l0,0c0.7,0.4,1.4,0.7,2.1,1
		c2.9,1.2,6.1,1.8,9.5,1.8c6.9,0,12.8-2.5,17.5-7.3c4.8-4.7,7.3-10.6,7.3-17.5c0-6.9-2.4-12.8-7.2-17.5c-4.8-4.8-10.7-7.3-17.5-7.3
		c-3.5,0-6.9,0.7-10.1,2.1c-0.7,0.3-1.6,0.6-2.1,1.3c-0.3,0.4-0.4,1-0.2,1.5c0.3,0.6,0.9,0.9,1.5,0.8c0.7,0,1.3-0.5,1.9-0.8
		c1.5-0.7,3.2-1.2,4.9-1.5c1.3-0.2,2.7-0.4,4.1-0.4c6,0,11.1,2.1,15.3,6.4c4.3,4.1,6.3,9.2,6.3,15.3c0,6.2-2.1,11.2-6.4,15.3
		c-4.2,4.3-9.2,6.4-15.3,6.4c-3,0-5.9-0.5-8.4-1.6"/>
	<path class="st0" d="M23.7,32.3L23.7,32.3C21.5,30.7,18.3,30,14,30c-1.8,0-3.3-0.1-4.6-0.4c-1.3-0.3-2.3-0.7-3-1.2
		c-0.5-0.4-0.9-0.8-1.3-1.1c-0.4-0.4-0.6-0.7-0.8-1C4.1,25.9,4,25.2,4,24.1v-0.5c0-0.3,0.1-0.6,0.3-0.9C4.5,22.4,4.7,22,5,21.6
		c0.9-1.2,2.2-2.1,3.7-2.7c1.5-0.6,3.4-0.9,5.5-0.9c3,0,5.6,0.9,7.8,2.7l-0.1,0c0.3,0.3,0.7,0.5,1.3,0.5c0.6-0.1,1.1-0.3,1.4-0.6
		c0.3-0.3,0.4-0.7,0.4-1.3c0-0.3-0.1-0.6-0.2-0.8c-0.1-0.2-0.3-0.4-0.5-0.5l0,0c-2.9-2.4-6.2-3.6-10.1-3.6c-5.5,0-9.6,1.7-12.1,5.1
		c-1,1.3-1.6,2.7-1.7,4l0,0.9c0,0.8,0.1,1.4,0.2,2c0.1,0.6,0.2,1.1,0.4,1.5c0.3,0.6,0.7,1.2,1.3,1.8c0.6,0.6,1.2,1.2,2,1.8
		c1.1,0.7,2.4,1.3,4,1.7c1.6,0.4,3.5,0.6,5.6,0.6c3.6,0,6.1,0.5,7.6,1.5c1,0.8,1.7,1.5,2.1,2.1c0.3,0.5,0.4,1.2,0.3,1.9
		c0,0.1,0,0.3,0,0.5c0,0.2,0,0.4-0.1,0.6v0.2c0,0.3-0.1,0.5-0.3,0.9c-0.2,0.3-0.4,0.7-0.7,1.1c-1.9,2.4-5,3.6-9.3,3.6
		c-1,0-2.1-0.1-3.1-0.4c-1-0.3-2-0.6-2.9-1.1c-1.8-1-3.2-2.4-4.1-4.1c-0.3-0.4-0.7-0.7-1.1-0.9l-0.5-0.1c-0.3,0-0.6,0.1-0.9,0.3l0,0
		c-0.3,0.2-0.4,0.3-0.6,0.5c-0.1,0.2-0.2,0.4-0.3,0.6C0,41,0,41.1,0,41.1c0,0.1,0,0.2,0,0.3c0,0.3,0.1,0.6,0.3,0.9l0,0
		c1.4,2.4,3.2,4.2,5.6,5.6c2.4,1.3,5,2,7.8,2c5.6,0,9.7-1.7,12.2-5c1-1.4,1.6-2.7,1.7-4c0-0.2,0-0.5,0-0.7c0-0.2,0-0.5,0-0.7
		c0-1.6-0.3-2.8-0.8-3.8C26.2,34.4,25.2,33.4,23.7,32.3z"/>
	<path class="st0" d="M48.9,14.3c-4.9,0-9.1,1.7-12.6,5.2c-1.7,1.8-3,3.7-3.9,5.8c-0.9,2.1-1.3,4.3-1.3,6.8c0,4.9,1.7,9.1,5.2,12.6
		c3.5,3.5,7.7,5.2,12.6,5.2c3.3,0,6.4-0.9,9.2-2.6c0.9-0.6,1.8-1.3,2.6-2c0.8-0.7,1.6-1.5,2.2-2.4V48c0,0.5,0.2,0.9,0.5,1.4
		c0.4,0.3,0.8,0.5,1.3,0.5c0.3,0,0.5,0,0.7-0.1c0.2-0.1,0.4-0.2,0.6-0.3c0.3-0.4,0.5-0.8,0.5-1.4v-16c0-4.8-1.7-9-5.2-12.5
		C58,16.1,53.8,14.3,48.9,14.3z M58.8,42c-2.8,2.8-6.1,4.1-9.9,4.1c-3.9,0-7.2-1.4-10-4.1c-2.8-2.8-4.1-6.1-4.1-10
		c0-3.8,1.4-7.1,4.1-9.9c2.8-2.8,6.1-4.1,10-4.1c3.8,0,7.1,1.4,9.9,4.1c2.8,2.8,4.1,6.1,4.1,9.9C63,35.9,61.6,39.2,58.8,42z"/>
	<path class="st0" d="M112.4,14.2c-1.5,0-2.9,0.2-4.2,0.6c-1.3,0.4-2.6,1-3.9,1.9c-0.9,0.7-1.8,1.4-2.5,2.2
		c-0.7,0.8-1.4,1.6-1.9,2.6c-1-1.9-2.5-3.5-4.4-4.8c-1.3-0.8-2.6-1.4-3.9-1.9c-1.3-0.4-2.7-0.6-4.2-0.6c-4,0-7.3,1.4-10.1,4.1
		c-2.8,2.7-4.2,6.1-4.3,10V48c0,0.5,0.2,0.9,0.5,1.2c0.2,0.2,0.4,0.3,0.6,0.4c0.2,0.1,0.4,0.1,0.7,0.1c0.5,0,0.9-0.2,1.4-0.5
		c0.1-0.2,0.3-0.3,0.3-0.6c0.1-0.2,0.1-0.5,0.1-0.7V28.6c0-2.9,1.1-5.5,3.2-7.6c2.1-2.1,4.6-3.1,7.5-3.1c2.9,0,5.5,1,7.6,3.1
		c2.1,2.1,3.1,4.6,3.1,7.6V48c0,0.5,0.2,1,0.6,1.3l-0.1,0c0.4,0.3,0.8,0.5,1.3,0.5c0.5,0,0.9-0.2,1.3-0.5c0.1-0.2,0.3-0.3,0.3-0.6
		c0.1-0.2,0.1-0.5,0.1-0.7V28.6c0-2.9,1.1-5.5,3.2-7.6c2.1-2.1,4.6-3.1,7.6-3.1c2.9,0,5.4,1,7.5,3.1c2.1,2.1,3.2,4.7,3.2,7.6V48
		c0,0.3,0.1,0.5,0.2,0.7c0.1,0.2,0.2,0.4,0.4,0.6c0.4,0.3,0.8,0.5,1.3,0.5c0.5,0,0.9-0.2,1.3-0.5l-0.1,0c0.4-0.3,0.6-0.8,0.6-1.3
		V28.6c0-4-1.4-7.4-4.2-10.1C119.8,15.6,116.4,14.2,112.4,14.2z"/>
	<path class="st0" d="M148.4,14.2c-4.9,0-9.1,1.7-12.5,5.2c-3.5,3.4-5.2,7.5-5.2,12.5c0,5,1.7,9.1,5.2,12.5c1.7,1.8,3.6,3.1,5.7,3.9
		c2.1,0.9,4.3,1.3,6.8,1.3c5,0,9.1-1.7,12.5-5.2c3.5-3.4,5.2-7.5,5.2-12.5c0-5-1.7-9.1-5.2-12.5C157.4,16,153.3,14.2,148.4,14.2z
		 M158.2,41.9c-2.7,2.8-6,4.1-9.9,4.1c-3.9,0-7.2-1.4-9.9-4.1c-2.8-2.7-4.1-6-4.1-9.9c0-3.8,1.4-7.1,4.1-9.9c2.7-2.8,6-4.2,9.9-4.2
		c3.8,0,7.1,1.4,9.9,4.2c2.8,2.8,4.2,6,4.2,9.9C162.4,35.8,161,39.1,158.2,41.9z"/>
	<path class="st0" d="M205.4,42.4h-0.3c-0.4,0-0.8,0.1-1.1,0.4c-2.6,2.1-5.5,3.1-8.8,3.1c-3.9,0-7.2-1.4-9.9-4.1
		c-2.8-2.7-4.2-6-4.2-9.9c0-3.9,1.4-7.2,4.2-10c2.7-2.7,6-4.1,9.9-4.1c3.2,0,6.1,1,8.7,3.1c0.3,0.2,0.7,0.3,1.1,0.3h0.3
		c0.3,0,0.5-0.1,0.7-0.2c0.2-0.1,0.4-0.3,0.6-0.5v0c0.3-0.3,0.4-0.7,0.4-1.2c0-0.3-0.1-0.6-0.2-0.9c-0.1-0.2-0.3-0.4-0.5-0.5h0
		c-3.2-2.6-6.9-3.9-11-3.9c-4.9,0-9.1,1.7-12.5,5.2c-3.5,3.4-5.2,7.6-5.2,12.5c0,4.8,1.7,9,5.2,12.5c3.4,3.4,7.6,5.2,12.5,5.2
		c4.2,0,7.9-1.3,11.1-4v0c0.4-0.3,0.6-0.7,0.7-1.3c0-0.6-0.2-1.1-0.5-1.4C206.3,42.7,205.9,42.5,205.4,42.4z"/>
	<path class="st0" d="M229,14.3c-4.9,0-9.1,1.7-12.6,5.2c-1.7,1.8-3,3.7-3.9,5.8c-0.9,2.1-1.3,4.3-1.3,6.8c0,4.9,1.7,9.1,5.2,12.6
		c3.5,3.5,7.7,5.2,12.6,5.2c3.3,0,6.4-0.9,9.2-2.6c0.9-0.6,1.8-1.3,2.6-2c0.8-0.7,1.6-1.5,2.2-2.4V48c0,0.5,0.2,0.9,0.5,1.4
		c0.4,0.3,0.8,0.5,1.3,0.5c0.3,0,0.5,0,0.7-0.1c0.2-0.1,0.4-0.2,0.6-0.3c0.3-0.4,0.5-0.8,0.5-1.4v-16c0-4.8-1.7-9-5.2-12.5
		C238,16.1,233.8,14.3,229,14.3z M238.9,42c-2.8,2.8-6.1,4.1-9.9,4.1c-3.9,0-7.2-1.4-10-4.1c-2.8-2.8-4.1-6.1-4.1-10
		c0-3.8,1.4-7.1,4.1-9.9c2.8-2.8,6.1-4.1,10-4.1c3.8,0,7.1,1.4,9.9,4.1c2.8,2.8,4.1,6.1,4.1,9.9C243,35.9,241.6,39.2,238.9,42z"/>
	<path class="st0" d="M270.8,46.6c-0.3-0.3-0.8-0.5-1.4-0.5c-3.9,0-7.3-1.4-10.2-4.3c-1.4-1.4-2.5-2.9-3.2-4.6
		c-0.7-1.7-1.1-3.5-1.1-5.6V17.9h11.5c0.6,0,1-0.2,1.4-0.5c0.4-0.3,0.6-0.8,0.6-1.4c0-0.5-0.2-1-0.6-1.3c-0.3-0.3-0.8-0.5-1.4-0.5
		h-11.5V1.9c0-0.3,0-0.6-0.1-0.8c-0.1-0.2-0.2-0.4-0.4-0.6c-0.2-0.2-0.4-0.3-0.6-0.4C253.5,0,253.3,0,253,0c-0.6,0-1,0.2-1.4,0.5
		c-0.4,0.4-0.6,0.8-0.6,1.4v30c0.1,5,2,9.2,5.5,12.6c3.6,3.5,7.8,5.2,12.8,5.2c0.6,0,1-0.2,1.4-0.5c0.3-0.4,0.5-0.8,0.5-1.4
		c0-0.3,0-0.6-0.1-0.8C271.1,47,270.9,46.8,270.8,46.6z"/>
</g>
</svg>
