<?xml version="1.0" encoding="utf-8"?>
<!-- Generator: Adobe Illustrator 22.1.0, SVG Export Plug-In . SVG Version: 6.00 Build 0)  -->
<svg version="1.1" id="Слой_1" xmlns="http://www.w3.org/2000/svg" xmlns:xlink="http://www.w3.org/1999/xlink" x="0px" y="0px"
	 viewBox="0 0 48 48" style="enable-background:new 0 0 48 48;" xml:space="preserve">
<g>
	<path d="M35.4,45c0.2,0,0.3,0,0.5-0.1c11.5-6.6,15.6-21.2,9-32.7s-21.2-15.6-32.7-9C4.6,7.4,0,15.4,0,24c0,0.6,0.4,1,1,1s1-0.4,1-1
		C2,11.8,11.9,2,24,2c12.2,0,22,9.9,22,22c0,7.9-4.3,15.2-11.1,19.1c-0.5,0.3-0.6,0.9-0.4,1.4C34.7,44.8,35,45,35.4,45z"/>
	<path d="M35,38c0.2,0,0.5-0.1,0.6-0.2c7.6-6.4,8.6-17.8,2.2-25.4S20,3.8,12.4,10.2C8.3,13.7,6,18.7,6,24c0,0.6,0.4,1,1,1s1-0.4,1-1
		c0-8.8,7.2-16,16-16s16,7.2,16,16c0,4.7-2.1,9.2-5.7,12.2c-0.4,0.4-0.5,1-0.1,1.4C34.4,37.9,34.7,38,35,38z"/>
	<path d="M14,24c0-2.6,4-4,8-4s8,1.4,8,4s-4,4-8,4S14,26.6,14,24z M16,24c0,0.7,2.3,2,6,2s6-1.3,6-2s-2.3-2-6-2S16,23.3,16,24z"/>
	<path d="M22,38c4,0,8-1.4,8-4c0-0.6-0.4-1-1-1s-1,0.4-1,1c0,0.7-2.3,2-6,2s-6-1.3-6-2c0-0.6-0.4-1-1-1s-1,0.4-1,1
		C14,36.6,18,38,22,38z"/>
	<path d="M22,43c4,0,8-1.4,8-4c0-0.6-0.4-1-1-1s-1,0.4-1,1c0,0.7-2.3,2-6,2s-6-1.3-6-2c0-0.6-0.4-1-1-1s-1,0.4-1,1
		C14,41.6,18,43,22,43z"/>
	<path d="M22,48c4,0,8-1.4,8-4V24c0-0.6-0.4-1-1-1s-1,0.4-1,1v20c0,0.7-2.3,2-6,2s-6-1.3-6-2V24c0-0.6-0.4-1-1-1s-1,0.4-1,1v20
		C14,46.6,18,48,22,48z"/>
	<path d="M22,33c4,0,8-1.4,8-4c0-0.6-0.4-1-1-1s-1,0.4-1,1c0,0.7-2.3,2-6,2s-6-1.3-6-2c0-0.6-0.4-1-1-1s-1,0.4-1,1
		C14,31.6,18,33,22,33z"/>
	<path d="M0,34c0-2.6,4-4,8-4s8,1.4,8,4s-4,4-8,4S0,36.6,0,34z M2,34c0,0.7,2.3,2,6,2s6-1.3,6-2s-2.3-2-6-2S2,33.3,2,34z"/>
	<path d="M8,48c4,0,8-1.4,8-4V34c0-0.6-0.4-1-1-1s-1,0.4-1,1v10c0,0.7-2.3,2-6,2s-6-1.3-6-2V34c0-0.6-0.4-1-1-1s-1,0.4-1,1v10
		C0,46.6,4,48,8,48z"/>
	<path d="M8,43c4,0,8-1.4,8-4c0-0.6-0.4-1-1-1s-1,0.4-1,1c0,0.7-2.3,2-6,2s-6-1.3-6-2c0-0.6-0.4-1-1-1s-1,0.4-1,1C0,41.6,4,43,8,43z
		"/>
</g>
</svg>
