<?xml version="1.0" encoding="utf-8"?>
<!-- Generator: Adobe Illustrator 22.1.0, SVG Export Plug-In . SVG Version: 6.00 Build 0)  -->
<svg version="1.1" id="Слой_1" xmlns="http://www.w3.org/2000/svg" xmlns:xlink="http://www.w3.org/1999/xlink" x="0px" y="0px"
	 viewBox="0 0 64 80" style="enable-background:new 0 0 64 80;" xml:space="preserve">
<path d="M3,9c2.2,0,4,1.8,4,4c0,0.6,0.4,1,1,1s1-0.4,1-1c0-2.2,1.8-4,4-4c0.6,0,1-0.4,1-1s-0.4-1-1-1c-2.2,0-4-1.8-4-4
	c0-0.6-0.4-1-1-1S7,2.4,7,3c0,2.2-1.8,4-4,4C2.4,7,2,7.4,2,8S2.4,9,3,9z M8,6.3C8.4,7,9,7.6,9.7,8C9,8.4,8.4,9,8,9.7
	C7.6,9,7,8.4,6.3,8C7,7.6,7.6,7,8,6.3z"/>
<path d="M12,22c0,0.6,0.4,1,1,1c2.2,0,4,1.8,4,4c0,0.6,0.4,1,1,1s1-0.4,1-1c0-2.2,1.8-4,4-4c0.6,0,1-0.4,1-1s-0.4-1-1-1
	c-2.2,0-4-1.8-4-4c0-0.6-0.4-1-1-1s-1,0.4-1,1c0,2.2-1.8,4-4,4C12.4,21,12,21.4,12,22z M18,20.3c0.4,0.7,1,1.2,1.7,1.7
	c-0.7,0.4-1.2,1-1.7,1.7c-0.4-0.7-1-1.2-1.7-1.7C17,21.6,17.6,21,18,20.3z"/>
<path d="M32,12h-2v6h-4v8h4v6h2v6.3c-4.3-7.7-14-10.5-21.7-6.3S-0.3,46,4,53.7S18,64.3,25.7,60c2.6-1.5,4.8-3.6,6.3-6.3V62h30V30h-2
	v-6h-4v-4h4v-6h2V6H32V12z M18,60c-7.7,0-14-6.3-14-14s6.3-14,14-14s14,6.3,14,14S25.7,60,18,60z M60,60H34v-4h26V60z M60,54H34v-4
	h26V54z M60,48H34v-4h26V48z M60,42H34v-4h26V42z M60,36H34v-4h26V36z M58,26v4H32v-4H58z M54,24H28v-4h26V24z M58,18H32v-4h26V18z
	 M34,8h26v4H34V8z"/>
<path d="M18,34c-0.6,0-1,0.4-1,1s0.4,1,1,1c5.5,0,10,4.5,10,10c0,0.6,0.4,1,1,1s1-0.4,1-1C30,39.4,24.6,34,18,34z"/>
</svg>
