<?xml version="1.0" encoding="utf-8"?>
<!-- Generator: Adobe Illustrator 22.1.0, SVG Export Plug-In . SVG Version: 6.00 Build 0)  -->
<svg version="1.1" id="Слой_1" xmlns="http://www.w3.org/2000/svg" xmlns:xlink="http://www.w3.org/1999/xlink" x="0px" y="0px"
	 viewBox="0 0 50 80.1" style="enable-background:new 0 0 50 80.1;" xml:space="preserve">
<path d="M44.6,0H5.4C2.4,0,0,2.4,0,5.4v69.3c0,3,2.4,5.4,5.4,5.4h39.2c3,0,5.4-2.4,5.4-5.4V5.3C49.9,2.4,47.5,0,44.6,0z M47.9,74.6
	c0,1.9-1.5,3.4-3.4,3.4H5.4C3.5,78,2,76.5,2,74.6V5.3c0-1.9,1.5-3.4,3.4-3.4h39.2c1.9,0,3.4,1.5,3.4,3.4L47.9,74.6z"/>
<path d="M43.3,10.5H6.7c-0.5,0-1,0.4-1,1v53.6c0,0.5,0.4,1,1,1h36.6c0.5,0,1-0.4,1-1V11.5C44.2,10.9,43.8,10.5,43.3,10.5z
	 M42.3,64.1H7.6V12.4h34.7V64.1z"/>
<path d="M25,69.1c-2,0-3.6,1.6-3.6,3.6s1.6,3.6,3.6,3.6s3.6-1.6,3.6-3.6S27,69.1,25,69.1z M25,74.3c-0.9,0-1.6-0.7-1.6-1.6
	s0.7-1.6,1.6-1.6s1.6,0.7,1.6,1.6C26.6,73.6,25.9,74.3,25,74.3z"/>
</svg>
