<?xml version="1.0" encoding="utf-8"?>
<!-- Generator: Adobe Illustrator 22.1.0, SVG Export Plug-In . SVG Version: 6.00 Build 0)  -->
<svg version="1.1" id="Слой_1" xmlns="http://www.w3.org/2000/svg" xmlns:xlink="http://www.w3.org/1999/xlink" x="0px" y="0px"
	 viewBox="0 0 110 110.9" style="enable-background:new 0 0 110 110.9;" xml:space="preserve">
<path d="M104,36c-0.4-0.9-0.7-1.7-1.1-2.6c7.8-14,9.2-24.2,4-29.4S91.5,0.2,77.5,8c-0.9-0.4-1.7-0.8-2.6-1.1
	c-3.2-1.3-6.5-2.3-9.8-2.9c-6.6-1.3-13.6-1.3-20.2,0c-3.4,0.6-6.7,1.6-9.8,2.9c-3.2,1.3-6.3,2.9-9.2,4.8c-3,2-5.8,4.2-8.3,6.8
	c-2.5,2.5-4.8,5.3-6.8,8.3c-1.9,2.9-3.5,6-4.8,9.2s-2.3,6.5-2.9,9.8s-1,6.7-1,10.1s0.3,6.8,1,10.1c0.7,3.4,1.6,6.7,2.9,9.8
	c0.4,0.9,0.7,1.7,1.1,2.6c-7.8,14-9.2,24.2-4,29.4c2.1,2.1,4.9,3.1,8.5,3.1c5.7,0,13.3-2.7,22.5-8l0,0c0,0,0,0,0.1,0
	c11.8-6.8,25.2-17.5,37.7-30c10.5-10.5,19.8-21.7,26.5-32c0.7,2,1.3,4.2,1.7,6.3c0.6,2.9,0.8,5.8,0.8,8.8s-0.3,5.9-0.8,8.8
	c-0.6,2.9-1.4,5.8-2.5,8.5c-1.1,2.8-2.5,5.5-4.2,8c-1.7,2.6-3.7,5-5.9,7.2c-2.2,2.2-4.6,4.2-7.2,5.9c-2.5,1.7-5.2,3.1-8,4.2
	c-2.7,1.1-5.6,2-8.5,2.5c-3.1,0.6-6.3,0.9-9.6,0.8c-1.9-0.1-3.5,1.5-3.6,3.4c0,1.9,1.5,3.5,3.4,3.6c0.3,0,0.6,0,0.9,0
	c3.4,0,6.8-0.3,10.1-1c3.4-0.6,6.7-1.6,9.8-2.9c3.2-1.3,6.3-2.9,9.2-4.8c3-2,5.8-4.2,8.3-6.8c2.5-2.5,4.8-5.3,6.8-8.3
	c1.9-2.9,3.5-6,4.8-9.2s2.3-6.5,2.9-9.8s1-6.7,1-10.1s-0.3-6.8-1-10.1C106.2,42.4,105.2,39.1,104,36z M8,102.8
	c-1.9-1.9-1.4-7.8,3.1-17.2c1.9,2.7,4,5.3,6.4,7.7c2.4,2.4,5,4.5,7.7,6.4C15.8,104.3,9.8,104.7,8,102.8z M66.9,67.9
	c-11.6,11.6-23.8,21.4-34.7,28c-0.9-0.5-1.7-1-2.6-1.6c-2.6-1.7-5-3.7-7.2-5.9c-2.2-2.2-4.2-4.6-5.9-7.2c-1.7-2.5-3.1-5.2-4.2-8
	c-1.1-2.7-2-5.6-2.5-8.5C9.2,61.8,9,58.9,9,55.9s0.3-5.9,0.8-8.8c0.6-2.9,1.4-5.8,2.5-8.5c1.1-2.8,2.5-5.5,4.2-8
	c1.7-2.6,3.7-5,5.9-7.2s4.6-4.2,7.2-5.9c2.5-1.7,5.2-3.1,8-4.2c2.7-1.1,5.6-2,8.5-2.5c5.8-1.1,11.8-1.1,17.6,0
	c2.9,0.6,5.8,1.4,8.5,2.5c2.8,1.1,5.5,2.5,8,4.2c1.9,1.3,3.8,2.7,5.5,4.3c1.4,1.3,3.6,1.2,4.9-0.2c1.3-1.4,1.2-3.6-0.2-4.9
	c-1.8-1.6-3.8-3.2-5.8-4.5c9.4-4.6,15.3-5,17.2-3.1c2.2,2.2,1.2,10.1-6,22.6C89.3,42.8,79,55.7,66.9,67.9z"/>
</svg>
