<?xml version="1.0" encoding="utf-8"?>
<!-- Generator: Adobe Illustrator 22.1.0, SVG Export Plug-In . SVG Version: 6.00 Build 0)  -->
<svg version="1.1" id="Слой_1" xmlns="http://www.w3.org/2000/svg" xmlns:xlink="http://www.w3.org/1999/xlink" x="0px" y="0px"
	 viewBox="0 0 95.1 89.1" style="enable-background:new 0 0 95.1 89.1;" xml:space="preserve">
<path d="M81.2,61.5c-0.6,0-1.1,0-1.6,0.1l-9.5-45.4c1.5-0.6,2.4-2.1,2.1-3.8l-0.5-2.5l0,0l1.8-1.3l1.9-0.4c0.7,1.3,2.1,2.2,3.6,2.2
	c0.2,0,0.5,0,0.7-0.1l11.7-2c1.1-0.2,2-0.8,2.7-1.7s0.9-2,0.7-3.1c-0.4-2.2-2.5-3.8-4.8-3.4l-11.7,2c-1.1,0.2-2,0.8-2.7,1.7
	c-0.3,0.4-0.5,0.9-0.6,1.4l-2.7,0.6l-2.4,1.8c-0.6-0.3-1.3-0.4-2.1-0.3L66,7.6c-0.9,0.2-1.6,0.7-2.1,1.3l-3.2-0.5L58,9.1
	c-0.8-0.9-1.9-1.5-3.1-1.5c-0.4,0-0.8,0.1-1.2,0.2l-11.4,3.4c-1.1,0.3-1.9,1-2.5,2s-0.6,2.1-0.3,3.2c0.5,1.7,2.2,3,4,3
	c0.4,0,0.8-0.1,1.2-0.2l11.4-3.4c1.7-0.5,2.9-2.1,2.9-3.8l1.9-0.5l2.5,0.4l0.4,2.1c0.3,1.6,1.7,2.7,3.3,2.7h0.1L73,44.6L53.2,72.3
	h-20C32.1,62.6,23.9,55,13.9,55C8.7,55,3.6,57.1,0,60.8l2.1,2.1C5.2,59.8,9.5,58,13.9,58c8.3,0,15.2,6.2,16.3,14.3h-2.7
	c-1.4-6.3-7-10.8-13.5-10.8c-7.6,0-13.8,6.2-13.8,13.8c0,7.6,6.2,13.8,13.8,13.8c5.7,0,10.9-3.6,12.9-8.9h33c3.1,0,5.7-2.5,5.7-5.7
	v-2.3h-0.8l11-15l1,4.9c-5.4,1.9-9.3,7-9.3,13.1c0,7.6,6.2,13.8,13.8,13.8c7.6,0,13.8-6.2,13.8-13.8C95.1,67.7,88.9,61.5,81.2,61.5z
	 M78.1,5.6c0.2-0.3,0.4-0.4,0.7-0.5l11.7-2c0.1,0,0.1,0,0.2,0c0.6,0,1,0.4,1.1,1c0.1,0.3,0,0.6-0.2,0.9s-0.4,0.4-0.7,0.5l-11.7,2
	c-0.1,0-0.1,0-0.2,0c-0.6,0-1-0.4-1.1-1C77.9,6.1,78,5.8,78.1,5.6z M55.2,13l-11.4,3.4c-0.7,0.2-1.3-0.2-1.5-0.8
	c-0.1-0.3-0.1-0.6,0.1-0.9c0.1-0.3,0.4-0.5,0.7-0.6l11.4-3.3c0.1,0,0.2,0,0.3,0c0.5,0,1,0.3,1.1,0.8C56.1,12.2,55.8,12.8,55.2,13z
	 M66.7,13.5L66.2,11c0-0.2,0.1-0.4,0.3-0.4l1.9-0.4c0.1,0,0.3,0.1,0.4,0.3l0.5,2.5c0,0.2-0.1,0.4-0.3,0.4l-1,0.2l0,0l0,0l-0.9,0.2
	C67,13.8,66.8,13.7,66.7,13.5z M13.9,86.2c-6,0-10.8-4.9-10.8-10.8c0-6,4.9-10.8,10.8-10.8c4.9,0,9.1,3.3,10.4,7.8h-2.5
	c-1.2-3.2-4.4-5.4-7.9-5.4c-4.7,0-8.4,3.8-8.4,8.4c0,4.7,3.8,8.4,8.4,8.4c2.7,0,5.2-1.3,6.8-3.5h2.8C21.7,83.8,17.9,86.2,13.9,86.2z
	 M13.1,73.6c-0.4,0.6-0.6,1.4-0.6,2.1c0,0.3,0.1,0.5,0.2,0.7c0.1,0.3,0.2,0.5,0.3,0.7c0,0.1,0.1,0.1,0.1,0.2
	c0.1,0.2,0.2,0.3,0.3,0.5c0.1,0.1,0.1,0.1,0.2,0.2c0.1,0.2,0.3,0.3,0.4,0.5l0.1,0.1c0.2,0.2,0.4,0.3,0.6,0.5c0.1,0,0.1,0.1,0.2,0.1
	c0.2,0.1,0.3,0.2,0.5,0.3c0.1,0,0.2,0.1,0.2,0.1c0.2,0.1,0.3,0.1,0.5,0.2c0.1,0,0.1,0.1,0.2,0.1h0.1c-0.8,0.4-1.7,0.7-2.6,0.7
	c-3,0-5.4-2.4-5.4-5.4s2.4-5.4,5.4-5.4c1.9,0,3.5,1,4.5,2.4h-2.7C14.7,72.3,13.7,72.8,13.1,73.6z M59.8,77.3H27.7h-5.2h-4.4
	c-1.1,0-2.1-0.7-2.5-1.8c0-0.1,0-0.1,0-0.2s0.1-0.1,0.1-0.1h6.8h5.3h34.6C62.1,76.4,61,77.3,59.8,77.3z M61,72.3h-4.1l17-23.7l1,4.8
	L61,72.3z M81.2,86.2c-6,0-10.8-4.9-10.8-10.8c0-4.6,2.9-8.5,6.9-10.1l0.5,2.4c-2.9,1.3-5,4.3-5,7.7c0,4.7,3.8,8.4,8.4,8.4
	s8.4-3.8,8.4-8.4c0-4.7-3.8-8.4-8.4-8.4c-0.2,0-0.3,0-0.5,0l-0.5-2.4c0.3,0,0.7-0.1,1-0.1c6,0,10.8,4.9,10.8,10.8
	C92.1,81.3,87.2,86.2,81.2,86.2z M79.9,77.6c0.1,0.7,0.8,1.2,1.5,1.2c0.1,0,0.2,0,0.3,0c0.8-0.2,1.3-1,1.2-1.8l-1.5-7.1
	c3,0.1,5.3,2.5,5.3,5.4c0,3-2.4,5.4-5.4,5.4s-5.4-2.4-5.4-5.4c0-2,1.1-3.7,2.6-4.7L79.9,77.6z"/>
</svg>
