<?xml version="1.0" encoding="utf-8"?>
<!-- Generator: Adobe Illustrator 22.1.0, SVG Export Plug-In . SVG Version: 6.00 Build 0)  -->
<svg version="1.1" id="Слой_1" xmlns="http://www.w3.org/2000/svg" xmlns:xlink="http://www.w3.org/1999/xlink" x="0px" y="0px"
	 viewBox="0 0 48.1 40.6" style="enable-background:new 0 0 48.1 40.6;" xml:space="preserve">
<path d="M40.2,27.9c-0.1,0-0.1,0-0.2,0L36.6,5.6l0.7,0.6c0.2,0.1,0.4,0.2,0.6,0.2c0.3,0,0.6-0.1,0.8-0.4c0.3-0.4,0.2-1.1-0.2-1.4
	l-6.3-4.4c-0.4-0.3-1.1-0.2-1.4,0.2c-0.3,0.4-0.2,1.1,0.2,1.4l3.2,2.3l3.7,24.1c-3,0.8-5.2,3.4-5.6,6.6H15.6
	c-0.5-3.9-3.8-6.9-7.8-6.9c-4.3,0-7.8,3.5-7.8,7.8c0,0.5,0.4,1,1,1s1-0.4,1-1c0-3.2,2.6-5.9,5.9-5.9c2.9,0,5.3,2.1,5.8,4.9h-1
	c-0.5-2.2-2.4-3.9-4.8-3.9C5.2,30.8,3,33,3,35.7s2.2,4.9,4.9,4.9c2.4,0,4.3-1.7,4.8-3.9h2.1h0.4h18.2c0.5,0,1-0.4,1-1
	c0-2.6,1.7-4.8,4-5.6l0.2,1c-1.9,0.7-3.2,2.5-3.2,4.6c0,2.7,2.2,4.9,4.9,4.9c2.7,0,4.9-2.2,4.9-4.9c0-2.6-2.1-4.7-4.7-4.9l-0.2-1
	c3.2,0.1,5.8,2.7,5.8,5.9c0,0.5,0.4,1,1,1c0.5,0,1-0.4,1-1C48,31.4,44.5,27.9,40.2,27.9z M7.8,38.6c-1.6,0-2.9-1.3-2.9-2.9
	c0-1.6,1.3-2.9,2.9-2.9c1.3,0,2.4,0.8,2.8,2H7.8c-0.5,0-1,0.4-1,1c0,0.5,0.4,1,1,1h2.8C10.2,37.8,9.1,38.6,7.8,38.6z M43.1,35.7
	c0,1.6-1.3,2.9-2.9,2.9c-1.6,0-2.9-1.3-2.9-2.9c0-1.1,0.6-2.1,1.6-2.6l0.4,2.7c0.1,0.5,0.5,0.8,1,0.8h0c0.5-0.1,0.9-0.6,0.8-1.1
	l-0.5-2.7C42.1,33.1,43.1,34.3,43.1,35.7z"/>
</svg>
