<?xml version="1.0" encoding="utf-8"?>
<!-- Generator: Adobe Illustrator 22.1.0, SVG Export Plug-In . SVG Version: 6.00 Build 0)  -->
<svg version="1.1" id="Слой_1" xmlns="http://www.w3.org/2000/svg" xmlns:xlink="http://www.w3.org/1999/xlink" x="0px" y="0px"
	 viewBox="0 0 57 57" style="enable-background:new 0 0 57 57;" xml:space="preserve">
<g>
	<g transform="translate(-721.000000, -645.000000)">
		<g transform="translate(721.000000, 645.000000)">
			<path d="M30.5,2L30.5,2C15,2.8,2.8,15,2,30.5c0,0.2,0.1,0.3,0.1,0.4c0.1,0,0.2,0.1,0.4,0.1h7.1c0.2,0,0.4-0.2,0.4-0.4
				c0.7-11.1,9.5-19.9,20.6-20.6c0.2,0,0.4-0.2,0.4-0.4V2.5c0-0.2-0.1-0.3-0.1-0.3C30.8,2.1,30.7,2,30.5,2 M9.6,33H2.5
				c-0.7,0-1.3-0.3-1.8-0.8C0.3,31.8,0,31.1,0,30.4C0.8,13.9,13.9,0.8,30.4,0c0.7,0,1.3,0.2,1.8,0.7C32.7,1.2,33,1.8,33,2.5v7.1
				c0,1.3-1,2.4-2.3,2.4c-10,0.6-18.1,8.7-18.7,18.7l0,0C12,32,10.9,33,9.6,33"/>
			<path d="M31,20c-6.1,0-11,4.9-11,11s4.9,11,11,11s11-4.9,11-11S37.1,20,31,20 M31,44c-7.2,0-13-5.8-13-13s5.8-13,13-13
				s13,5.8,13,13S38.2,44,31,44"/>
			<path d="M31,29c-1.1,0-2,0.9-2,2c0,1.1,0.9,2,2,2c1.1,0,2-0.9,2-2S32.1,29,31,29 M31,35c-2.2,0-4-1.8-4-4s1.8-4,4-4s4,1.8,4,4
				S33.2,35,31,35"/>
			<path d="M32,24c0,0.6-0.4,1-1,1s-1-0.4-1-1s0.4-1,1-1S32,23.4,32,24"/>
			<path d="M32,38c0,0.6-0.4,1-1,1s-1-0.4-1-1s0.4-1,1-1S32,37.4,32,38"/>
			<path d="M38,32c-0.6,0-1-0.4-1-1s0.4-1,1-1s1,0.4,1,1S38.6,32,38,32"/>
			<path d="M24,32c-0.6,0-1-0.4-1-1s0.4-1,1-1s1,0.4,1,1S24.6,32,24,32"/>
			<path d="M7.1,33c1,12.4,11.3,22,23.9,22c13.2,0,24-10.8,24-24c0-12.6-9.6-22.9-22-23.9v2.5c0,1.3-1,2.4-2.3,2.4
				c-10,0.6-18.1,8.7-18.7,18.7C12,32,10.9,33,9.6,33H7.1z M31,57C17,57,5.6,46,5,32v-1h4.6c0.2,0,0.4-0.2,0.4-0.4
				c0.7-11.1,9.5-19.9,20.6-20.6c0.2,0,0.4-0.2,0.4-0.4V5h1c14,0.6,25,12,25,26C57,45.3,45.3,57,31,57L31,57z"/>
		</g>
	</g>
</g>
</svg>
